<svg id="color_line" height="512" viewBox="0 0 74 74" width="512" xmlns="http://www.w3.org/2000/svg" data-name="color line"><path d="m48.24 12.81v-3.481a2.021 2.021 0 0 0 -2.019-2.019h-16.327a2.021 2.021 0 0 0 -2.019 2.019v3.481h-4.755v-3.219a6.542 6.542 0 0 1 6.534-6.534h16.807a6.542 6.542 0 0 1 6.539 6.534v3.219z" fill="#707583"/><path d="m53 13.31h-4.76a.5.5 0 0 1 -.5-.5v-3.481a1.521 1.521 0 0 0 -1.519-1.519h-16.327a1.521 1.521 0 0 0 -1.519 1.519v3.481a.5.5 0 0 1 -.5.5h-4.755a.5.5 0 0 1 -.5-.5v-3.219a7.043 7.043 0 0 1 7.035-7.035h16.806a7.043 7.043 0 0 1 7.039 7.035v3.219a.5.5 0 0 1 -.5.5zm-4.255-1h3.755v-2.719a6.041 6.041 0 0 0 -6.034-6.035h-16.811a6.041 6.041 0 0 0 -6.035 6.035v2.719h3.755v-2.981a2.522 2.522 0 0 1 2.519-2.519h16.327a2.522 2.522 0 0 1 2.519 2.519z" fill="#323c6b"/><rect fill="#e7aa6c" height="51.889" rx="5.161" width="67.991" x="4.06" y="12.441"/><path d="m14.16 34.26h-5.778a4.314 4.314 0 0 1 -4.324-4.311v-12.341a5.16 5.16 0 0 1 5.16-5.16h57.666a5.163 5.163 0 0 1 5.173 5.16v12.341a4.322 4.322 0 0 1 -4.324 4.311z" fill="#e7aa6c"/><path d="m71.918 17.231v41.569a5.16 5.16 0 0 1 -5.16 5.16h-57.67a5.167 5.167 0 0 1 -4.89-3.51 5.166 5.166 0 0 0 1.89.36h57.67a5.16 5.16 0 0 0 5.16-5.16v-41.569c0-.13 0-.25-.01-.38 0 0 .01-.01 0-.01a.09.09 0 0 1 -.01-.05 3.573 3.573 0 0 0 -.11-.73c-.03-.12-.06-.25-.1-.37a.689.689 0 0 0 -.04-.1h.01c.04.01.08.03.11.04a5.182 5.182 0 0 1 .87.47l.01.01a4.243 4.243 0 0 1 .76.63 5.009 5.009 0 0 1 1.11 1.64 3.76 3.76 0 0 1 .17.47 5.2 5.2 0 0 1 .23 1.53z" fill="#d09865"/><path d="m68.818 12.912a.689.689 0 0 0 -.04-.1h.01c.012.03.02.07.03.1z" fill="#d5d6db"/><path d="m55.727 34.76h-35.351a.5.5 0 1 1 0-1h35.351a.5.5 0 0 1 0 1z" fill="#323c6b"/><path d="m52.253 48.217h11.658a1.678 1.678 0 0 1 1.678 1.683v6.29a1.679 1.679 0 0 1 -1.679 1.679h-11.657a1.679 1.679 0 0 1 -1.679-1.679v-6.29a1.678 1.678 0 0 1 1.679-1.683z" fill="#e1e6e9"/><path d="m65.587 49.7v6.3a1.677 1.677 0 0 1 -1.68 1.68h-11.65a1.677 1.677 0 0 1 -1.68-1.68v-.37h11.29a1.675 1.675 0 0 0 1.68-1.67v-5.94h.36a1.684 1.684 0 0 1 1.68 1.68z" fill="#d5d6db"/><g fill="#323c6b"><path d="m61.811 51.917h-7.457a.5.5 0 0 1 0-1h7.458a.5.5 0 0 1 0 1z"/><path d="m61.811 55.292h-7.457a.5.5 0 0 1 0-1h7.458a.5.5 0 0 1 0 1z"/><path d="m51.558 67.83h-.688a.5.5 0 0 1 0-1h.688a.5.5 0 0 1 0 1z"/><path d="m48.412 67.83h-11.229a.5.5 0 0 1 0-1h11.229a.5.5 0 1 1 0 1z"/><path d="m1.06 19.917a.5.5 0 0 1 -.5-.5v-1a.5.5 0 0 1 1 0v1a.5.5 0 0 1 -.5.5z"/><path d="m1.254 16.36a.472.472 0 0 1 -.107-.012.5.5 0 0 1 -.382-.595 8.706 8.706 0 0 1 8.456-6.812.5.5 0 0 1 0 1 7.7 7.7 0 0 0 -7.479 6.025.5.5 0 0 1 -.488.394z"/><path d="m66.89 64.83h-57.669a5.667 5.667 0 0 1 -5.661-5.661v-41.569a5.667 5.667 0 0 1 5.661-5.661h57.669a5.667 5.667 0 0 1 5.661 5.661v41.569a5.667 5.667 0 0 1 -5.661 5.661zm-57.669-51.889a4.666 4.666 0 0 0 -4.661 4.659v41.569a4.666 4.666 0 0 0 4.661 4.661h57.669a4.666 4.666 0 0 0 4.661-4.661v-41.569a4.666 4.666 0 0 0 -4.661-4.661z"/><path d="m67.734 34.76h-59.352a4.823 4.823 0 0 1 -4.824-4.811v-12.342a5.667 5.667 0 0 1 5.661-5.66h57.665a5.673 5.673 0 0 1 5.673 5.66v12.342a4.823 4.823 0 0 1 -4.823 4.811zm-58.516-21.813a4.666 4.666 0 0 0 -4.661 4.66v12.342a3.822 3.822 0 0 0 3.825 3.811h59.352a3.822 3.822 0 0 0 3.824-3.811v-12.342a4.672 4.672 0 0 0 -4.673-4.66z"/></g><path d="m37.833 31.129h-8.463a.65.65 0 1 1 0-1.3h8.462a.65.65 0 0 1 0 1.3z" fill="#fff"/><path d="m41.26 31.129h-.677a.65.65 0 0 1 0-1.3h.677a.65.65 0 1 1 0 1.3z" fill="#fff"/><path d="m14.724 30.576v7.137a.922.922 0 0 0 .333.709l2.623 2.178a.922.922 0 0 0 1.179 0l2.623-2.181a.922.922 0 0 0 .333-.709v-7.134a.922.922 0 0 0 -.922-.922h-5.246a.922.922 0 0 0 -.923.922z" fill="#9297ab"/><path d="m53.534 30.576v7.137a.922.922 0 0 0 .333.709l2.622 2.178a.922.922 0 0 0 1.179 0l2.623-2.181a.922.922 0 0 0 .333-.709v-7.134a.922.922 0 0 0 -.922-.922h-5.246a.922.922 0 0 0 -.922.922z" fill="#9297ab"/><path d="m18.27 41.316a1.419 1.419 0 0 1 -.909-.329l-2.623-2.181a1.418 1.418 0 0 1 -.513-1.093v-7.137a1.424 1.424 0 0 1 1.422-1.422h5.246a1.424 1.424 0 0 1 1.422 1.422v7.137a1.418 1.418 0 0 1 -.513 1.094l-2.623 2.181a1.419 1.419 0 0 1 -.909.328zm-2.623-11.162a.423.423 0 0 0 -.422.422v7.137a.421.421 0 0 0 .152.324l2.623 2.182a.422.422 0 0 0 .54 0l2.623-2.181a.421.421 0 0 0 .152-.325v-7.137a.423.423 0 0 0 -.422-.422z" fill="#323c6b"/><path d="m57.079 41.316a1.419 1.419 0 0 1 -.91-.329l-2.623-2.181a1.42 1.42 0 0 1 -.513-1.093v-7.137a1.424 1.424 0 0 1 1.422-1.422h5.245a1.424 1.424 0 0 1 1.422 1.422v7.137a1.418 1.418 0 0 1 -.514 1.094l-2.622 2.181a1.42 1.42 0 0 1 -.907.328zm-2.623-11.162a.423.423 0 0 0 -.422.422v7.137a.422.422 0 0 0 .152.325l2.623 2.181a.423.423 0 0 0 .54 0l2.623-2.181a.422.422 0 0 0 .153-.325v-7.137a.423.423 0 0 0 -.422-.422z" fill="#323c6b"/><path d="m63.911 58.369h-11.658a2.181 2.181 0 0 1 -2.179-2.179v-6.29a2.181 2.181 0 0 1 2.179-2.178h11.658a2.181 2.181 0 0 1 2.178 2.178v6.29a2.181 2.181 0 0 1 -2.178 2.179zm-11.658-9.652a1.18 1.18 0 0 0 -1.178 1.183v6.29a1.18 1.18 0 0 0 1.179 1.179h11.657a1.18 1.18 0 0 0 1.178-1.179v-6.29a1.179 1.179 0 0 0 -1.178-1.178z" fill="#323c6b"/></svg>