<svg id="color_line" height="512" viewBox="0 0 74 74" width="512" xmlns="http://www.w3.org/2000/svg" data-name="color line"><path d="m59.784 48.216a22.784 22.784 0 1 1 -31.584-21.016v-17.937h17.6v17.937a22.769 22.769 0 0 1 13.984 21.016z" fill="#e1e6e9"/><path d="m45.8 27.155a15.966 15.966 0 0 0 -2.8-.686v-17.209h2.8z" fill="#d5d6db"/><path d="m59.78 48.22a22.781 22.781 0 0 1 -38.1 16.86 22.777 22.777 0 0 0 27.79-35.93 22.762 22.762 0 0 1 10.31 19.07z" fill="#d5d6db"/><circle cx="37" cy="48.216" fill="#fcd462" r="16.333"/><path d="m37 65.049a16.833 16.833 0 1 1 16.833-16.833 16.852 16.852 0 0 1 -16.833 16.833zm0-32.667a15.833 15.833 0 1 0 15.833 15.834 15.852 15.852 0 0 0 -15.833-15.833z" fill="#323c6b"/><circle cx="37" cy="48.216" fill="#fcd462" r="12.591"/><path d="m49.594 48.22a12.572 12.572 0 0 1 -5.034 10.068 12.588 12.588 0 0 0 -17.13-18.255 12.594 12.594 0 0 1 22.164 8.187z" fill="#f7be56"/><g fill="#323c6b"><path d="m36.4 57.373v-1.344h-.267a7.582 7.582 0 0 1 -3.62-1.074l.432-1.209a7.168 7.168 0 0 0 3.569.969c1.966 0 3.339-1.151 3.339-2.8 0-1.451-.922-2.444-3.083-3.319-2.938-1.152-4.082-2.331-4.082-4.206a4.093 4.093 0 0 1 3.663-4.008l.228-.037v-1.312h1.053v1.238l.263.009a6.8 6.8 0 0 1 3.022.88l-.45 1.188a6.42 6.42 0 0 0 -3.1-.759c-2.076 0-3 1.25-3 2.488 0 1.52 1.133 2.267 3.364 3.19 2.718 1.109 3.827 2.4 3.827 4.465a4.3 4.3 0 0 1 -3.844 4.218l-.228.038v1.386z"/><path d="m19.562 67.667a.5.5 0 0 1 -.339-.132 26.3 26.3 0 0 1 -6.05-8.239.5.5 0 1 1 .906-.423 25.3 25.3 0 0 0 5.821 7.927.5.5 0 0 1 -.339.868z"/><path d="m12.618 57.083a.5.5 0 0 1 -.473-.337c-.172-.5-.315-1.011-.457-1.523a.5.5 0 0 1 .347-.619.5.5 0 0 1 .615.345v.006c.137.492.273.985.439 1.465a.5.5 0 0 1 -.473.663z"/><path d="m48.8 18a.5.5 0 0 1 -.5-.5v-.854a.5.5 0 0 1 1 0v.854a.5.5 0 0 1 -.5.5z"/><path d="m52.225 27.917a.5.5 0 0 1 -.294-.1 25.418 25.418 0 0 0 -3.36-2.083.5.5 0 0 1 -.272-.445v-5.289a.5.5 0 0 1 1 0v4.989a26.655 26.655 0 0 1 3.222 2.023.5.5 0 0 1 -.3.9z"/><path d="m37 61.307a13.091 13.091 0 1 1 13.091-13.091 13.106 13.106 0 0 1 -13.091 13.091zm0-25.182a12.091 12.091 0 1 0 12.091 12.091 12.105 12.105 0 0 0 -12.091-12.091z"/><path d="m37 71.5a23.282 23.282 0 0 1 -9.3-44.626v-17.611a.5.5 0 0 1 .5-.5h17.6a.5.5 0 0 1 .5.5v17.611a23.282 23.282 0 0 1 -9.3 44.626zm-8.3-61.737v17.437a.5.5 0 0 1 -.307.461 22.284 22.284 0 1 0 17.212 0 .5.5 0 0 1 -.305-.461v-17.437z"/></g><path d="m29.31 54.441a.648.648 0 0 1 -.526-.268 10.076 10.076 0 0 1 -1.941-5.957 10.187 10.187 0 0 1 .075-1.211.65.65 0 1 1 1.291.156 8.745 8.745 0 0 0 1.627 6.248.65.65 0 0 1 -.525 1.032z" fill="#fff"/><path d="m28.187 45.317a.651.651 0 0 1 -.6-.894 10.093 10.093 0 0 1 .45-.979.65.65 0 1 1 1.146.612 8.89 8.89 0 0 0 -.391.854.65.65 0 0 1 -.605.407z" fill="#fff"/><rect fill="#9297ab" height="7.313" rx="1.691" width="22.774" x="25.613" y="2.604"/><path d="m48.39 4.3v3.93a1.694 1.694 0 0 1 -1.69 1.69h-.9v-2.95a1.662 1.662 0 0 0 -1.66-1.66h-18.53v-1.01a1.7 1.7 0 0 1 1.69-1.7h19.39a1.7 1.7 0 0 1 1.7 1.7z" fill="#84879c"/><path d="m46.7 10.417h-19.4a2.194 2.194 0 0 1 -2.191-2.191v-3.926a2.194 2.194 0 0 1 2.191-2.2h19.4a2.194 2.194 0 0 1 2.187 2.2v3.93a2.194 2.194 0 0 1 -2.187 2.187zm-19.4-7.317a1.193 1.193 0 0 0 -1.187 1.2v3.93a1.193 1.193 0 0 0 1.187 1.187h19.4a1.193 1.193 0 0 0 1.191-1.191v-3.926a1.193 1.193 0 0 0 -1.191-1.2z" fill="#323c6b"/></svg>