<svg id="color_line" height="512" viewBox="0 0 74 74" width="512" xmlns="http://www.w3.org/2000/svg" data-name="color line"><path d="m21.065 8.535h31.87a2.468 2.468 0 0 1 2.465 2.465v60a0 0 0 0 1 0 0h-36.8a0 0 0 0 1 0 0v-60a2.468 2.468 0 0 1 2.465-2.465z" fill="#e1e6e9"/><path d="m55.4 11v60h-3v-57a2.467 2.467 0 0 0 -2.46-2.47h-31.34v-.53a2.467 2.467 0 0 1 2.46-2.47h31.88a2.467 2.467 0 0 1 2.46 2.47z" fill="#d5d6db"/><path d="m55.15 11.25v60h-3v-57a2.467 2.467 0 0 0 -2.46-2.47h-31.34v-.53a2.467 2.467 0 0 1 2.46-2.47h31.88a2.467 2.467 0 0 1 2.46 2.47z" fill="#d5d6db"/><path d="m5.874 31.94h12.726a0 0 0 0 1 0 0v37.175a1.885 1.885 0 0 1 -1.888 1.885h-10.838a0 0 0 0 1 0 0v-39.06a0 0 0 0 1 0 0z" fill="#e1e6e9" transform="matrix(-1 0 0 -1 24.471 102.94)"/><path d="m18.6 71.5h-12.725a.5.5 0 0 1 -.5-.5v-37.176a2.387 2.387 0 0 1 2.385-2.385h10.84a.5.5 0 0 1 .5.5v39.061a.5.5 0 0 1 -.5.5zm-12.223-1h11.723v-38.061h-10.341a1.386 1.386 0 0 0 -1.385 1.385z" fill="#323c6b"/><path d="m55.403 24.981h12.723v46.019h-12.723z" fill="#e1e6e9" transform="matrix(-1 0 0 -1 123.529 95.981)"/><path d="m27.713 3h18.574a1.7 1.7 0 0 1 1.7 1.7v3.835a0 0 0 0 1 0 0h-21.978a0 0 0 0 1 0 0v-3.835a1.7 1.7 0 0 1 1.704-1.7z" fill="#9297ab"/><g fill="#323c6b"><path d="m14.055 38.333h-3.638a.5.5 0 1 1 0-1h3.638a.5.5 0 0 1 0 1z"/><path d="m14.055 45.151h-3.638a.5.5 0 1 1 0-1h3.638a.5.5 0 0 1 0 1z"/><path d="m14.055 51.97h-3.638a.5.5 0 1 1 0-1h3.638a.5.5 0 0 1 0 1z"/><path d="m14.055 58.788h-3.638a.5.5 0 1 1 0-1h3.638a.5.5 0 0 1 0 1z"/><path d="m14.055 65.606h-3.638a.5.5 0 1 1 0-1h3.638a.5.5 0 0 1 0 1z"/><path d="m63.583 37.871h-3.638a.5.5 0 0 1 0-1h3.638a.5.5 0 0 1 0 1z"/><path d="m63.583 30.938h-3.638a.5.5 0 0 1 0-1h3.638a.5.5 0 0 1 0 1z"/><path d="m63.583 44.805h-3.638a.5.5 0 0 1 0-1h3.638a.5.5 0 0 1 0 1z"/><path d="m63.583 51.739h-3.638a.5.5 0 0 1 0-1h3.638a.5.5 0 0 1 0 1z"/><path d="m63.583 58.672h-3.638a.5.5 0 0 1 0-1h3.638a.5.5 0 0 1 0 1z"/><path d="m63.583 65.606h-3.638a.5.5 0 0 1 0-1h3.638a.5.5 0 1 1 0 1z"/></g><path d="m26 14.941h7.391v7.391h-7.391z" fill="#89c5cd"/><path d="m33.391 22.832h-7.391a.5.5 0 0 1 -.5-.5v-7.391a.5.5 0 0 1 .5-.5h7.391a.5.5 0 0 1 .5.5v7.391a.5.5 0 0 1 -.5.5zm-6.891-1h6.391v-6.391h-6.391z" fill="#323c6b"/><path d="m40.609 14.941h7.391v7.391h-7.391z" fill="#89c5cd"/><path d="m48 22.832h-7.391a.5.5 0 0 1 -.5-.5v-7.391a.5.5 0 0 1 .5-.5h7.391a.5.5 0 0 1 .5.5v7.391a.5.5 0 0 1 -.5.5zm-6.891-1h6.391v-6.391h-6.391z" fill="#323c6b"/><path d="m26 27.631h7.391v7.391h-7.391z" fill="#89c5cd"/><path d="m33.391 35.522h-7.391a.5.5 0 0 1 -.5-.5v-7.391a.5.5 0 0 1 .5-.5h7.391a.5.5 0 0 1 .5.5v7.391a.5.5 0 0 1 -.5.5zm-6.891-1h6.391v-6.391h-6.391z" fill="#323c6b"/><path d="m40.609 27.631h7.391v7.391h-7.391z" fill="#89c5cd"/><path d="m48 35.522h-7.391a.5.5 0 0 1 -.5-.5v-7.391a.5.5 0 0 1 .5-.5h7.391a.5.5 0 0 1 .5.5v7.391a.5.5 0 0 1 -.5.5zm-6.891-1h6.391v-6.391h-6.391z" fill="#323c6b"/><path d="m28.083 45.833h17.833v25.167h-17.833z" fill="#84879c"/><path d="m2.708 34.813a.5.5 0 0 1 -.5-.5v-2.792a2.941 2.941 0 0 1 2.938-2.937h2.562a.5.5 0 0 1 0 1h-2.562a1.94 1.94 0 0 0 -1.937 1.938v2.792a.5.5 0 0 1 -.501.499z" fill="#323c6b"/><path d="m11.5 29.583h-1.167a.5.5 0 0 1 0-1h1.167a.5.5 0 0 1 0 1z" fill="#323c6b"/><path d="m30.875 54.983a.65.65 0 0 1 -.65-.65v-5.716a.65.65 0 0 1 .65-.65h2.333a.65.65 0 1 1 0 1.3h-1.683v5.066a.65.65 0 0 1 -.65.65z" fill="#fff"/><path d="m36.494 49.267h-.854a.65.65 0 1 1 0-1.3h.854a.65.65 0 1 1 0 1.3z" fill="#fff"/><path d="m71.125 58.958a.5.5 0 0 1 -.5-.5v-.833a.5.5 0 0 1 1 0v.833a.5.5 0 0 1 -.5.5z" fill="#323c6b"/><path d="m71.125 55.625a.5.5 0 0 1 -.5-.5v-9.292a.5.5 0 0 1 1 0v9.292a.5.5 0 0 1 -.5.5z" fill="#323c6b"/><path d="m55.4 71.5h-36.8a.5.5 0 0 1 -.5-.5v-60a2.972 2.972 0 0 1 2.968-2.968h31.87a2.972 2.972 0 0 1 2.962 2.968v60a.5.5 0 0 1 -.5.5zm-36.3-1h35.8v-59.5a1.97 1.97 0 0 0 -1.968-1.968h-31.867a1.97 1.97 0 0 0 -1.965 1.968z" fill="#323c6b"/><path d="m47.7 3.928a3.414 3.414 0 0 0 -.787-.753 1.792 1.792 0 0 1 -.294-.1h-.011a1.547 1.547 0 0 1 -.583-.075h-17.66a2.459 2.459 0 0 0 -2.445 2.313h22.2v-.239a2.915 2.915 0 0 0 -.42-1.146z" fill="#84879c"/><path d="m47.991 9.035h-21.982a.5.5 0 0 1 -.5-.5v-3.835a2.206 2.206 0 0 1 2.2-2.2h18.578a2.206 2.206 0 0 1 2.2 2.2v3.835a.5.5 0 0 1 -.496.5zm-21.481-1h20.981v-3.335a1.205 1.205 0 0 0 -1.2-1.2h-18.578a1.205 1.205 0 0 0 -1.2 1.2z" fill="#323c6b"/><path d="m45.917 71.5h-17.834a.5.5 0 0 1 -.5-.5v-25.167a.5.5 0 0 1 .5-.5h17.834a.5.5 0 0 1 .5.5v25.167a.5.5 0 0 1 -.5.5zm-17.333-1h16.833v-24.167h-16.834z" fill="#323c6b"/><path d="m66.4 24.928h-10.963v2.03h8.935a1.669 1.669 0 0 1 1.665 1.671v42.371h2.03v-44.4a1.669 1.669 0 0 0 -1.667-1.672z" fill="#d5d6db"/><path d="m68.125 71.5h-12.725a.5.5 0 0 1 -.5-.5v-46.019a.5.5 0 0 1 .5-.5h10.841a2.387 2.387 0 0 1 2.385 2.385v44.134a.5.5 0 0 1 -.501.5zm-12.225-1h11.725v-43.634a1.386 1.386 0 0 0 -1.385-1.385h-10.34z" fill="#323c6b"/></svg>