<svg id="color_line" height="512" viewBox="0 0 74 74" width="512" xmlns="http://www.w3.org/2000/svg" data-name="color line"><circle cx="51.981" cy="58.788" fill="#fcd462" r="6.757"/><path d="m33.94 69.64a6.451 6.451 0 0 1 -6.44-6.44v-.25a1.5 1.5 0 0 1 3 0v.25a3.451 3.451 0 0 0 3.44 3.44 3.438 3.438 0 0 0 3.43-3.44v-28a1.5 1.5 0 0 1 3 0v28a6.443 6.443 0 0 1 -6.43 6.44z" fill="#9297ab"/><path d="m33.94 70.14a6.951 6.951 0 0 1 -6.94-6.94v-.25a2 2 0 0 1 4 0v.25a2.952 2.952 0 0 0 2.94 2.94 2.938 2.938 0 0 0 2.93-2.94v-28a2 2 0 0 1 4 0v28a6.943 6.943 0 0 1 -6.93 6.94zm-4.94-8.19a1 1 0 0 0 -1 1v.25a5.951 5.951 0 0 0 5.94 5.94 5.942 5.942 0 0 0 5.93-5.94v-28a1 1 0 0 0 -2 0v28a3.939 3.939 0 0 1 -3.93 3.94 3.951 3.951 0 0 1 -3.94-3.94v-.25a1 1 0 0 0 -1-1z" fill="#323c6b"/><path d="m38.87 7.644a1.5 1.5 0 0 1 -1.5-1.5v-3.13a1.5 1.5 0 1 1 3 0v3.13a1.5 1.5 0 0 1 -1.5 1.5z" fill="#9297ab"/><path d="m38.87 8.144a2 2 0 0 1 -2-2v-3.13a2 2 0 0 1 4 0v3.13a2 2 0 0 1 -2 2zm0-6.13a1 1 0 0 0 -1 1v3.13a1 1 0 0 0 2 0v-3.13a1 1 0 0 0 -1-1z" fill="#323c6b"/><path d="m28.095 32.62c0 1.921.087 3.781.223 5.579-5.147-3.3-11.81-4.023-16.909 0a27.466 27.466 0 0 1 -.583-5.579 28.048 28.048 0 0 1 28.054-28.041c-5.963 0-10.785 12.558-10.785 28.041z" fill="#89c5cd"/><path d="m11.409 38.7a.493.493 0 0 1 -.171-.03.5.5 0 0 1 -.318-.368 28.042 28.042 0 0 1 -.594-5.68 28.58 28.58 0 0 1 28.554-28.543.5.5 0 0 1 0 1c-5.575 0-10.285 12.612-10.285 27.541 0 1.763.072 3.575.223 5.541a.5.5 0 0 1 -.242.467.5.5 0 0 1 -.526-.008c-4.363-2.8-10.945-4.275-16.33-.028a.5.5 0 0 1 -.311.108zm24.165-33.424a27.585 27.585 0 0 0 -24.248 27.344 26.851 26.851 0 0 0 .424 4.7c5.319-3.73 11.55-2.585 16-.05-.105-1.625-.157-3.156-.157-4.652.002-13.082 3.314-23.849 7.981-27.342z" fill="#323c6b"/><path d="m49.665 32.62c0 1.921-.087 3.781-.223 5.579 5.147-3.3 11.81-4.023 16.909 0a27.466 27.466 0 0 0 .583-5.579 28.048 28.048 0 0 0 -28.054-28.041c5.963 0 10.785 12.558 10.785 28.041z" fill="#89c5cd"/><path d="m66.463 32.619a27.645 27.645 0 0 1 -.58 5.58 12.5 12.5 0 0 0 -2.38-1.48c.08-.8.12-1.62.12-2.44a28.05 28.05 0 0 0 -20.623-27.04c-1.39-1.71-2.95-2.66-4.59-2.66a28.043 28.043 0 0 1 28.053 28.04z" fill="#6eaaad"/><path d="m49.653 32.62c0 1.921-.087 3.781-.223 5.579q-11.64-6.031-21.112 0c-.136-1.8-.223-3.657-.223-5.579 0-15.484 4.822-28.041 10.785-28.041s10.773 12.558 10.773 28.041z" fill="#eeefee"/><path d="m30.769 14.266c1.94-4.488 5.118-7.227 7.921-7.227s6.013 2.733 8.324 7.227c-1.968-5.925-4.884-9.687-8.134-9.687s-6.17 3.762-8.146 9.688z" fill="#e1e6e9"/><path d="m51.622 62.607v-.553a3.073 3.073 0 0 1 -1.614-.464l.253-.707a2.811 2.811 0 0 0 1.52.454c.749 0 1.256-.433 1.256-1.034 0-.58-.412-.939-1.193-1.256-1.076-.422-1.741-.907-1.741-1.825a1.731 1.731 0 0 1 1.593-1.7v-.553h.654v.51a2.815 2.815 0 0 1 1.372.369l-.264.7a2.55 2.55 0 0 0 -1.33-.359c-.813 0-1.119.485-1.119.907 0 .549.391.823 1.309 1.2 1.087.443 1.636.992 1.636 1.931a1.836 1.836 0 0 1 -1.667 1.794v.584z" fill="#323c6b"/><circle cx="20.445" cy="52.94" fill="#fcd462" r="6.757"/><path d="m58.74 58.789a6.68 6.68 0 0 1 -2.26 5.03 6.656 6.656 0 0 0 .8-3.17 6.747 6.747 0 0 0 -11.27-5.02 6.756 6.756 0 0 1 12.73 3.16z" fill="#f7be56"/><path d="m27.2 52.939a6.664 6.664 0 0 1 -2.26 5.03 6.627 6.627 0 0 0 .8-3.17 6.747 6.747 0 0 0 -11.28-5 6.759 6.759 0 0 1 12.74 3.14z" fill="#f7be56"/><g fill="#323c6b"><path d="m20.086 56.759v-.553a3.073 3.073 0 0 1 -1.614-.464l.253-.707a2.811 2.811 0 0 0 1.52.454c.749 0 1.256-.433 1.256-1.034 0-.58-.412-.939-1.193-1.256-1.076-.422-1.741-.907-1.741-1.825a1.731 1.731 0 0 1 1.593-1.7v-.553h.654v.51a2.815 2.815 0 0 1 1.372.369l-.264.7a2.55 2.55 0 0 0 -1.33-.359c-.813 0-1.119.485-1.119.907 0 .549.391.823 1.309 1.2 1.087.443 1.636.992 1.636 1.931a1.836 1.836 0 0 1 -1.667 1.794v.584z"/><path d="m14.667 42.329a.5.5 0 0 1 -.5-.5v-1.25a.5.5 0 0 1 1 0v1.25a.5.5 0 0 1 -.5.5z"/><path d="m22.418 41.092a.5.5 0 0 1 -.5-.5v-1.25a.5.5 0 0 1 1 0v1.25a.5.5 0 0 1 -.5.5z"/><path d="m31.917 50.277a.5.5 0 0 1 -.5-.5v-1.25a.5.5 0 1 1 1 0v1.25a.5.5 0 0 1 -.5.5z"/><path d="m31.917 44.2a.5.5 0 0 1 -.5-.5v-1.25a.5.5 0 0 1 1 0v1.25a.5.5 0 0 1 -.5.5z"/><path d="m31.917 56.35a.5.5 0 0 1 -.5-.5v-1.25a.5.5 0 1 1 1 0v1.25a.5.5 0 0 1 -.5.5z"/><path d="m45.844 44.2a.5.5 0 0 1 -.5-.5v-1.25a.5.5 0 0 1 1 0v1.25a.5.5 0 0 1 -.5.5z"/><path d="m45.844 49.17a.5.5 0 0 1 -.5-.5v-1.25a.5.5 0 0 1 1 0v1.25a.5.5 0 0 1 -.5.5z"/><path d="m53.595 42.96a.5.5 0 0 1 -.5-.5v-1.25a.5.5 0 0 1 1 0v1.25a.5.5 0 0 1 -.5.5z"/><path d="m53.595 47.934a.5.5 0 0 1 -.5-.5v-1.25a.5.5 0 0 1 1 0v1.25a.5.5 0 0 1 -.5.5z"/><path d="m63.094 50.277a.5.5 0 0 1 -.5-.5v-1.25a.5.5 0 0 1 1 0v1.25a.5.5 0 0 1 -.5.5z"/><path d="m63.094 44.2a.5.5 0 0 1 -.5-.5v-1.25a.5.5 0 0 1 1 0v1.25a.5.5 0 0 1 -.5.5z"/><path d="m63.094 56.35a.5.5 0 0 1 -.5-.5v-1.25a.5.5 0 0 1 1 0v1.25a.5.5 0 0 1 -.5.5z"/><path d="m9.223 23.966a.5.5 0 0 1 -.474-.66l.278-.8a.5.5 0 1 1 .947.32l-.278.8a.5.5 0 0 1 -.473.34z"/><path d="m10.427 20.787a.5.5 0 0 1 -.458-.7 31.672 31.672 0 0 1 4.81-7.745.5.5 0 0 1 .766.644 30.684 30.684 0 0 0 -4.659 7.5.5.5 0 0 1 -.459.301z"/><path d="m62.25 12.787a.5.5 0 0 1 -.354-.147q-.327-.328-.664-.647a.5.5 0 0 1 .688-.727q.347.329.686.668a.5.5 0 0 1 -.354.853z"/><path d="m68.43 23.654a.5.5 0 0 1 -.477-.347 30.325 30.325 0 0 0 -4.408-8.682.5.5 0 1 1 .807-.591 31.312 31.312 0 0 1 4.554 8.966.5.5 0 0 1 -.477.653z"/><path d="m66.352 38.7a.5.5 0 0 1 -.31-.107c-5.383-4.247-11.966-2.77-16.33.028a.5.5 0 0 1 -.525.008.5.5 0 0 1 -.243-.467c.149-1.971.222-3.784.222-5.541 0-14.929-4.71-27.541-10.285-27.541a.5.5 0 0 1 0-1 28.58 28.58 0 0 1 28.553 28.54 28.059 28.059 0 0 1 -.593 5.68.5.5 0 0 1 -.318.368.493.493 0 0 1 -.171.032zm-7.952-3.77a13.052 13.052 0 0 1 7.614 2.392 26.807 26.807 0 0 0 .423-4.7 27.585 27.585 0 0 0 -24.251-27.346c4.667 3.493 7.979 14.259 7.979 27.344 0 1.492-.052 3.022-.156 4.652a17.222 17.222 0 0 1 8.391-2.342z"/><path d="m20.445 60.2a7.256 7.256 0 1 1 7.255-7.26 7.265 7.265 0 0 1 -7.255 7.26zm0-13.513a6.256 6.256 0 1 0 6.255 6.253 6.264 6.264 0 0 0 -6.255-6.256z"/><path d="m51.98 66.044a7.256 7.256 0 1 1 7.257-7.256 7.264 7.264 0 0 1 -7.257 7.256zm0-13.513a6.256 6.256 0 1 0 6.257 6.256 6.263 6.263 0 0 0 -6.257-6.255z"/><path d="m49.43 38.7a.5.5 0 0 1 -.23-.056c-7.555-3.914-14.489-3.921-20.612-.022a.5.5 0 0 1 -.768-.384c-.151-1.991-.225-3.829-.225-5.617 0-16 4.957-28.541 11.285-28.541s11.272 12.536 11.272 28.54c0 1.8-.073 3.634-.224 5.617a.5.5 0 0 1 -.256.4.494.494 0 0 1 -.242.063zm-11.1-4.005a24.187 24.187 0 0 1 10.653 2.721c.113-1.675.168-3.25.168-4.794 0-14.929-4.7-27.541-10.272-27.541s-10.284 12.61-10.284 27.539c0 1.516.054 3.069.164 4.724a18.686 18.686 0 0 1 9.572-2.651z"/></g><path d="m24.478 28.4h-.049a.65.65 0 0 1 -.6-.7 60.568 60.568 0 0 1 1.457-9.666.65.65 0 0 1 1.264.3 59.208 59.208 0 0 0 -1.424 9.457.651.651 0 0 1 -.648.609z" fill="#fff"/><path d="m24.383 31.97h-.007a.651.651 0 0 1 -.644-.657l.015-.832a.65.65 0 1 1 1.3.027l-.013.818a.651.651 0 0 1 -.651.644z" fill="#fff"/></svg>