<svg id="color_line" height="512" viewBox="0 0 74 74" width="512" xmlns="http://www.w3.org/2000/svg" data-name="color line"><path d="m37.51 18.612c-18.778 0-34 17.277-34 17.277s15.222 17.277 34 17.277 34-17.277 34-17.277-15.223-17.277-34-17.277z" fill="#e1e6e9"/><path d="m71.51 35.89s-1.21 1.37-3.35 3.33c.76-.78 1.17-1.24 1.17-1.24s-15.22-17.28-34-17.28c-13.46 0-25.1 8.88-30.61 13.92 3.93-3.98 17.12-16.01 32.79-16.01 18.78 0 34 17.28 34 17.28z" fill="#d5d6db"/><path d="m36.974 53.164a17.275 17.275 0 1 1 17.275-17.275 17.294 17.294 0 0 1 -17.275 17.275z" fill="#9297ab"/><path d="m36.975 53.665a17.775 17.775 0 1 1 17.774-17.776 17.8 17.8 0 0 1 -17.774 17.776zm0-34.551a16.775 16.775 0 1 0 16.774 16.775 16.794 16.794 0 0 0 -16.774-16.775z" fill="#323c6b"/><circle cx="36.974" cy="35.889" fill="#fcd462" r="13.139"/><path d="m50.11 35.89a13.092 13.092 0 0 1 -6.12 11.1 13.131 13.131 0 0 0 -16.23-20.46 13.131 13.131 0 0 1 22.35 9.36z" fill="#f7be56"/><g fill="#323c6b"><path d="m36.58 42.973v-.851h-.295a5.759 5.759 0 0 1 -2.768-.925l.286-.8a5.784 5.784 0 0 0 2.782.729c1.607 0 2.729-.946 2.729-2.3 0-1.495-1.261-2.208-2.5-2.708-2.289-.9-3.181-1.81-3.181-3.254a3.206 3.206 0 0 1 2.832-3.145l.251-.041v-.811h.666v.765l.29.01a4.92 4.92 0 0 1 2.294.7l-.3.787a5.147 5.147 0 0 0 -2.413-.567c-1.7 0-2.465 1.032-2.465 2.056 0 1.251.915 1.859 2.718 2.6 2.116.863 2.979 1.865 2.979 3.459a3.452 3.452 0 0 1 -2.976 3.383l-.251.042v.872z"/><path d="m24.063 54.086a.5.5 0 0 1 -.175-.032 59.223 59.223 0 0 1 -9.109-4.4.5.5 0 0 1 .514-.858 58.217 58.217 0 0 0 8.945 4.323.5.5 0 0 1 -.175.968z"/><path d="m13.053 48.5a.5.5 0 0 1 -.276-.083l-.636-.427a.5.5 0 1 1 .561-.827l.628.42a.5.5 0 0 1 -.276.917z"/><path d="m56.833 21.2a.5.5 0 0 1 -.226-.054c-.168-.085-.337-.167-.509-.25a.5.5 0 0 1 .432-.9c.178.085.354.171.528.259a.5.5 0 0 1 -.226.946z"/><path d="m66.558 27.735a.5.5 0 0 1 -.312-.109 64.134 64.134 0 0 0 -7.375-5.1.5.5 0 0 1 .508-.861 65.115 65.115 0 0 1 7.49 5.175.5.5 0 0 1 -.312.891z"/><path d="m37.51 53.667c-18.787 0-34.222-17.272-34.375-17.447a.5.5 0 0 1 0-.661c.153-.174 15.588-17.447 34.375-17.447s34.221 17.272 34.375 17.447a.5.5 0 0 1 0 .661c-.154.174-15.585 17.447-34.375 17.447zm-33.322-17.778c2.232 2.382 16.422 16.778 33.322 16.778s31.09-14.4 33.321-16.777c-2.231-2.383-16.423-16.778-33.321-16.778s-31.09 14.395-33.322 16.777z"/><path d="m36.975 49.528a13.639 13.639 0 1 1 13.638-13.639 13.655 13.655 0 0 1 -13.638 13.639zm0-26.278a12.639 12.639 0 1 0 12.638 12.639 12.654 12.654 0 0 0 -12.638-12.639z"/></g><path d="m30.957 44.609a.646.646 0 0 1 -.388-.129 10.717 10.717 0 0 1 -4.269-7.763.65.65 0 0 1 1.3-.1 9.414 9.414 0 0 0 3.754 6.822.65.65 0 0 1 -.39 1.171z" fill="#fff"/><path d="m27.062 34.983a.676.676 0 0 1 -.108-.009.651.651 0 0 1 -.534-.748l.026-.157c.034-.213.069-.427.118-.635a.65.65 0 0 1 1.266.3c-.042.179-.071.362-.1.545l-.026.163a.651.651 0 0 1 -.642.541z" fill="#fff"/></svg>