<svg id="color_line" height="512" viewBox="0 0 74 74" width="512" xmlns="http://www.w3.org/2000/svg" data-name="color line"><path d="m64.666 26.124h-49.842l-8.333-7.539v43.39a7.531 7.531 0 0 0 7.538 7.525h50.637z" fill="#bbbbcd"/><path d="m64.667 26.12v43.38h-50.64a7.536 7.536 0 0 1 -6.72-4.12 7.434 7.434 0 0 0 3.39.81h50.64v-40.07z" fill="#9297ab"/><path d="m49.193 11.047h9.63v15.077h-44.794a7.538 7.538 0 0 1 0-15.077h12.245" fill="#9297ab"/><path d="m58.823 26.624h-44.794a8.039 8.039 0 0 1 0-16.077h12.244a.5.5 0 0 1 0 1h-12.244a7.039 7.039 0 0 0 0 14.077h44.294v-14.077h-9.13a.5.5 0 0 1 0-1h9.63a.5.5 0 0 1 .5.5v15.077a.5.5 0 0 1 -.5.5z" fill="#323c6b"/><path d="m16.321 26.117 15.786-23.5a2.51 2.51 0 0 1 3.483-.687l16.683 11.182a2.51 2.51 0 0 1 .687 3.488l-6.311 9.522z" fill="#eeefee"/><path d="m46.649 26.617h-30.328a.5.5 0 0 1 -.415-.779l15.786-23.5a3.009 3.009 0 0 1 4.176-.823l16.684 11.185a3.014 3.014 0 0 1 .823 4.177l-6.309 9.52a.5.5 0 0 1 -.417.22zm-29.39-1h29.122l6.162-9.3a2.014 2.014 0 0 0 -.543-2.79l-16.688-11.186a2.01 2.01 0 0 0 -2.789.55z" fill="#323c6b"/><path d="m46.649 26.117 3.582-5.4a7.258 7.258 0 0 1 -1.689-10.1l-9.22-6.182a7.238 7.238 0 0 1 -9.967 2.289l-13.034 19.4z" fill="#27ccbc"/><path d="m48.537 10.61-.71 2.56-8.01-5.37c-2.97 3.1-6.57 3.55-9.28 1.73l-11.137 16.59h-3.08l13.04-19.4a7.232 7.232 0 0 0 9.96-2.29l2.07 1.39z" fill="#21b3a9"/><path d="m38.288 26.124h-9.788a5.681 5.681 0 1 1 9.791 0z" fill="#eeefee"/><g fill="#323c6b"><path d="m38.287 26.624h-9.787a.5.5 0 0 1 -.429-.243 6.181 6.181 0 1 1 10.648 0 .5.5 0 0 1 -.432.243zm-9.5-1h9.2a5.182 5.182 0 0 0 -8.909-5.263 5.1 5.1 0 0 0 -.289 5.263z"/><path d="m48.19 73h-1a.5.5 0 0 1 0-1h1a.5.5 0 0 1 0 1z"/><path d="m44.773 73h-11.5a.5.5 0 0 1 0-1h11.5a.5.5 0 0 1 0 1z"/></g><path d="m10.607 52.193a.65.65 0 0 1 -.65-.65v-1.25a.65.65 0 0 1 1.3 0v1.25a.65.65 0 0 1 -.65.65z" fill="#fff"/><path d="m10.607 47.816a.65.65 0 0 1 -.65-.65v-10a.65.65 0 0 1 1.3 0v10a.65.65 0 0 1 -.65.65z" fill="#fff"/><path d="m4.539 14.542a.5.5 0 0 1 -.451-.716 11.1 11.1 0 0 1 9.668-6.276.487.487 0 0 1 .06 0h.214a.5.5 0 0 1 0 1 10.09 10.09 0 0 0 -9.04 5.708.5.5 0 0 1 -.451.284z" fill="#323c6b"/><path d="m17.5 8.547h-.687a.5.5 0 0 1 0-1h.687a.5.5 0 0 1 0 1z" fill="#323c6b"/><path d="m64.666 70h-50.637a8.041 8.041 0 0 1 -8.039-8.025v-43.39a.5.5 0 0 1 .482-.5.482.482 0 0 1 .517.463c.326 4.511 2.9 6.825 7.86 7.075h49.817a.5.5 0 0 1 .5.5v43.377a.5.5 0 0 1 -.5.5zm-57.676-47.539v39.514a7.04 7.04 0 0 0 7.039 7.025h50.137v-42.376h-49.342c-3.882-.195-6.5-1.591-7.834-4.163z" fill="#323c6b"/><path d="m56.833 53.413h9.558a1.9 1.9 0 0 0 1.9-1.9v-7.4a1.9 1.9 0 0 0 -1.9-1.9h-9.558a5.6 5.6 0 0 0 -5.6 5.6 5.6 5.6 0 0 0 5.6 5.6z" fill="#e1e6e9"/><path d="m66.392 53.913h-9.559a6.1 6.1 0 0 1 0-12.2h9.559a2.406 2.406 0 0 1 2.4 2.4v7.4a2.406 2.406 0 0 1 -2.4 2.4zm-9.559-11.2a5.1 5.1 0 0 0 0 10.2h9.559a1.4 1.4 0 0 0 1.4-1.4v-7.4a1.4 1.4 0 0 0 -1.4-1.4z" fill="#323c6b"/><circle cx="56.301" cy="47.812" fill="#323c6b" r="2.264"/><path d="m46.648 26.617h-30.327a.5.5 0 0 1 -.415-.779l13.033-19.4a.5.5 0 0 1 .693-.137 6.745 6.745 0 0 0 9.273-2.152.5.5 0 0 1 .693-.137l9.221 6.183a.5.5 0 0 1 .137.694 7.13 7.13 0 0 0 -1.142 5.165 6.294 6.294 0 0 0 2.695 4.246.5.5 0 0 1 .139.691l-3.582 5.4a.5.5 0 0 1 -.418.226zm-29.389-1h29.121l3.169-4.78a7.3 7.3 0 0 1 -2.72-4.619 8.1 8.1 0 0 1 1.031-5.463l-8.414-5.642a7.755 7.755 0 0 1 -9.946 2.287z" fill="#323c6b"/><circle cx="40.149" cy="14.625" fill="#eeefee" r="2.125"/><path d="m40.148 17.25a2.625 2.625 0 1 1 2.625-2.625 2.628 2.628 0 0 1 -2.625 2.625zm0-4.25a1.625 1.625 0 1 0 1.625 1.625 1.627 1.627 0 0 0 -1.625-1.625z" fill="#323c6b"/></svg>