<svg id="color_line" height="512" viewBox="0 0 74 74" width="512" xmlns="http://www.w3.org/2000/svg" data-name="color line"><path d="m66.688 49.883h1.4a3.311 3.311 0 0 0 3.3-3.3v-30a3.3 3.3 0 0 0 -3.3-3.293h-53.07a3.294 3.294 0 0 0 -3.3 3.293v1.953" fill="#27ccbc"/><path d="m60.675 55.14h2.325a3.311 3.311 0 0 0 3.3-3.3v-30a3.311 3.311 0 0 0 -3.3-3.3h-53.068a3.3 3.3 0 0 0 -3.3 3.3v2.288" fill="#27ccbc"/><path d="m71.39 16.58v30a3.293 3.293 0 0 1 -2.78 3.25 3.186 3.186 0 0 0 .05-.54v-30.01a3.3 3.3 0 0 0 -3.3-3.29h-53.07a2.326 2.326 0 0 0 -.53.05 3.294 3.294 0 0 1 3.26-2.76h53.06a3.312 3.312 0 0 1 3.31 3.3z" fill="#21b3a9"/><path d="m66.3 21.83v30.01a3.292 3.292 0 0 1 -2.77 3.25 3.192 3.192 0 0 0 .05-.54v-30.01a3.312 3.312 0 0 0 -3.31-3.3h-53.06a2.326 2.326 0 0 0 -.53.05 3.284 3.284 0 0 1 3.25-2.76h53.07a3.3 3.3 0 0 1 3.3 3.3z" fill="#21b3a9"/><path d="m68.083 50.383h-1.4a.5.5 0 0 1 0-1h1.4a2.807 2.807 0 0 0 2.8-2.8v-30a2.8 2.8 0 0 0 -2.8-2.793h-53.064a2.8 2.8 0 0 0 -2.8 2.793v1.953a.5.5 0 0 1 -1 0v-1.961a3.8 3.8 0 0 1 3.8-3.793h53.064a3.8 3.8 0 0 1 3.8 3.793v30a3.808 3.808 0 0 1 -3.8 3.808z" fill="#323c6b"/><path d="m63 55.641h-2.325a.5.5 0 0 1 0-1h2.325a2.807 2.807 0 0 0 2.8-2.8v-30a2.807 2.807 0 0 0 -2.8-2.8h-53.068a2.807 2.807 0 0 0 -2.8 2.8v2.288a.5.5 0 0 1 -1 0v-2.296a3.808 3.808 0 0 1 3.8-3.8h53.068a3.808 3.808 0 0 1 3.8 3.8v30a3.808 3.808 0 0 1 -3.8 3.808z" fill="#323c6b"/><rect fill="#27ccbc" height="36.603" rx="3.302" width="57.671" x="3" y="24.115"/><path d="m8.125 51.167v-17.5a5.312 5.312 0 0 0 5.313-5.312h36.8a5.312 5.312 0 0 0 5.313 5.313v17.5a5.313 5.313 0 0 0 -5.312 5.313h-36.8a5.313 5.313 0 0 0 -5.314-5.314z" fill="#eeefee"/><path d="m50.233 56.98h-36.8a.5.5 0 0 1 -.5-.5 4.818 4.818 0 0 0 -4.812-4.812.5.5 0 0 1 -.5-.5v-17.5a.5.5 0 0 1 .5-.5 4.818 4.818 0 0 0 4.813-4.812.5.5 0 0 1 .5-.5h36.8a.5.5 0 0 1 .5.5 4.818 4.818 0 0 0 4.813 4.812.5.5 0 0 1 .5.5v17.5a.5.5 0 0 1 -.5.5 4.818 4.818 0 0 0 -4.812 4.813.5.5 0 0 1 -.502.499zm-36.317-1h35.839a5.822 5.822 0 0 1 5.291-5.291v-16.545a5.822 5.822 0 0 1 -5.291-5.291h-35.839a5.822 5.822 0 0 1 -5.291 5.291v16.545a5.822 5.822 0 0 1 5.291 5.291z" fill="#323c6b"/><path d="m20.688 32.232h-.728a.65.65 0 1 1 0-1.3h.728a.65.65 0 0 1 0 1.3z" fill="#fff"/><path d="m10.781 37.545a.65.65 0 0 1 0-1.3 4.668 4.668 0 0 0 4.663-4.663.65.65 0 0 1 .65-.65h1.366a.65.65 0 0 1 0 1.3h-.751a5.971 5.971 0 0 1 -5.928 5.313z" fill="#fff"/><circle cx="31.836" cy="42.416" fill="#27ccbc" r="9.121"/><g fill="#323c6b"><path d="m31.835 52.038a9.621 9.621 0 1 1 9.621-9.621 9.632 9.632 0 0 1 -9.621 9.621zm0-18.242a8.621 8.621 0 1 0 8.621 8.621 8.631 8.631 0 0 0 -8.621-8.617z"/><path d="m31.3 48.117v-.825a4.588 4.588 0 0 1 -2.41-.693l.378-1.056a4.2 4.2 0 0 0 2.268.677c1.118 0 1.875-.646 1.875-1.544 0-.866-.614-1.4-1.78-1.875-1.607-.63-2.6-1.354-2.6-2.725a2.584 2.584 0 0 1 2.379-2.536v-.825h.976v.762a4.2 4.2 0 0 1 2.048.552l-.394 1.04a3.807 3.807 0 0 0 -1.985-.536c-1.213 0-1.67.725-1.67 1.354 0 .819.583 1.229 1.953 1.8 1.623.662 2.442 1.481 2.442 2.883a2.74 2.74 0 0 1 -2.489 2.678v.872z"/><path d="m14.807 40.733a.5.5 0 0 1 0-1l2.949-.01a.5.5 0 0 1 0 1z"/><path d="m14.821 45.109a.5.5 0 0 1 0-1l2.949-.01a.5.5 0 0 1 0 1z"/><path d="m48.864 40.733-2.949-.01a.5.5 0 0 1 0-1l2.949.01a.5.5 0 0 1 0 1z"/><path d="m48.85 45.109-2.95-.009a.5.5 0 0 1 0-1l2.949.01a.5.5 0 0 1 0 1z"/><path d="m26.042 64.218h-.917a.5.5 0 0 1 0-1h.917a.5.5 0 1 1 0 1z"/><path d="m22.667 64.218h-10.584a.5.5 0 1 1 0-1h10.584a.5.5 0 1 1 0 1z"/><path d="m59.906 10.782h-1.062a.5.5 0 1 1 0-1h1.063a.5.5 0 1 1 0 1z"/><path d="m72.123 12.25a.5.5 0 0 1 -.32-.116 5.811 5.811 0 0 0 -3.719-1.352h-5.75a.5.5 0 1 1 0-1h5.75a6.815 6.815 0 0 1 4.36 1.584.5.5 0 0 1 -.321.884z"/></g><path d="m60.671 27.436v30.01a3.292 3.292 0 0 1 -2.771 3.254 3.192 3.192 0 0 0 .05-.54v-30.014a3.312 3.312 0 0 0 -3.31-3.3h-50.891a2.326 2.326 0 0 0 -.53.05 3.284 3.284 0 0 1 3.25-2.76h50.9a3.3 3.3 0 0 1 3.302 3.3z" fill="#21b3a9"/><path d="m57.369 61.218h-51.069a3.806 3.806 0 0 1 -3.8-3.8v-30a3.806 3.806 0 0 1 3.8-3.8h51.069a3.806 3.806 0 0 1 3.8 3.8v30a3.806 3.806 0 0 1 -3.8 3.8zm-51.069-36.603a2.805 2.805 0 0 0 -2.8 2.8v30a2.805 2.805 0 0 0 2.8 2.8h51.069a2.805 2.805 0 0 0 2.8-2.8v-30a2.805 2.805 0 0 0 -2.8-2.8z" fill="#323c6b"/></svg>