<svg id="color_line" height="512" viewBox="0 0 74 74" width="512" xmlns="http://www.w3.org/2000/svg" data-name="color line"><path d="m58.967 64c-7.743 11.112-46.441 11.112-54.184 0-8.254-11.852 20.017-45.74 20.017-45.74h14.148s28.273 33.888 20.019 45.74z" fill="#e1e6e9"/><path d="m59.3 63.463c-.11.18-.22.36-.34.53-1.91 2.75-5.72 4.82-10.48 6.21-12.35 3.6-31.13 2.64-40.03-2.9 10.36 3.46 26.12 3.43 36.35-.12v-1.97a1.752 1.752 0 0 1 1.75-1.75h-2.11a1.752 1.752 0 0 1 -1.75-1.75v-3.23a1.752 1.752 0 0 1 1.75-1.75h2.89a1.752 1.752 0 0 1 -1.75-1.75v-3.24a1.752 1.752 0 0 1 1.75-1.75h6.76a2.575 2.575 0 0 1 -.08-.26 9.922 9.922 0 0 1 -6.57-14.16 167.234 167.234 0 0 0 -11.93-17.31h3.44a173.862 173.862 0 0 1 10.63 14.5 89.244 89.244 0 0 1 9.01 16.96c.04.09.07.18.1.27a29.111 29.111 0 0 1 1.68 6.74 10.976 10.976 0 0 1 -1.07 6.73z" fill="#d5d6db"/><circle cx="31.875" cy="48.972" fill="#fcd462" r="11.126"/><path d="m43 48.973a11.125 11.125 0 0 1 -19.8 6.97 11.131 11.131 0 0 0 15.1-16.06 11.142 11.142 0 0 1 4.7 9.09z" fill="#f7be56"/><path d="m31.244 55.691v-.972a5.407 5.407 0 0 1 -2.844-.819l.445-1.244a4.946 4.946 0 0 0 2.673.8c1.318 0 2.209-.761 2.209-1.819 0-1.021-.724-1.652-2.1-2.209-1.893-.742-3.063-1.6-3.063-3.212a3.045 3.045 0 0 1 2.8-2.989v-.972h1.15v.9a4.952 4.952 0 0 1 2.414.65l-.464 1.225a4.487 4.487 0 0 0 -2.339-.631c-1.43 0-1.968.854-1.968 1.6 0 .965.687 1.448 2.3 2.116 1.912.78 2.877 1.745 2.877 3.4a3.229 3.229 0 0 1 -2.933 3.156v1.028z" fill="#323c6b"/><path d="m4.3 44.521a.493.493 0 0 1 -.212-.048.5.5 0 0 1 -.239-.665l.116-.248c.147-.313.294-.627.453-.948a.5.5 0 0 1 .9.442c-.155.315-.3.623-.444.931l-.117.249a.5.5 0 0 1 -.457.287z" fill="#323c6b"/><path d="m5.992 41.146a.5.5 0 0 1 -.233-.058.5.5 0 0 1 -.208-.676c.953-1.8 2.014-3.663 3.153-5.542.71-1.171 1.433-2.316 2.155-3.433a.5.5 0 0 1 .84.543c-.717 1.109-1.435 2.247-2.14 3.409-1.13 1.863-2.181 3.71-3.125 5.491a.5.5 0 0 1 -.442.266z" fill="#323c6b"/><path d="m31.875 72.833c-9.939 0-23.106-2.239-27.5-8.55-8.375-12.024 18.878-44.948 20.043-46.344a.5.5 0 0 1 .384-.18h14.146a.5.5 0 0 1 .384.18c1.165 1.4 28.421 34.319 20.045 46.343l-.41-.282.41.286c-4.396 6.308-17.563 8.547-27.502 8.547zm-6.837-54.073c-2.191 2.672-27.485 33.984-19.845 44.951 3.437 4.934 13.91 8.122 26.682 8.122s23.245-3.188 26.682-8.122c7.643-10.969-17.657-42.279-19.845-44.951z" fill="#323c6b"/><path d="m39.393 18.26h-15.036l-6.693-15.927 7.016 1.497 7.195-1.497 6.662 2.458 7.549-2.458z" fill="#e1e6e9"/><path d="m39.393 18.76h-15.036a.5.5 0 0 1 -.461-.306l-6.696-15.927a.5.5 0 0 1 .076-.513.494.494 0 0 1 .49-.17l6.912 1.475 7.092-1.476a.5.5 0 0 1 .275.021l6.5 2.4 7.383-2.4a.5.5 0 0 1 .616.669l-6.69 15.921a.5.5 0 0 1 -.461.306zm-14.7-1h14.368l6.139-14.613-6.508 2.119a.5.5 0 0 1 -.328-.006l-6.528-2.408-7.054 1.467a.491.491 0 0 1 -.207 0l-6.075-1.298z" fill="#323c6b"/><rect fill="#bbbbcd" height="5.603" rx="2.801" width="22.252" x="20.749" y="16.166"/><path d="m43 18.963a2.8 2.8 0 0 1 -2.8 2.81h-2.75a2.805 2.805 0 0 0 0-5.61h2.75a2.808 2.808 0 0 1 2.8 2.8z" fill="#9297ab"/><circle cx="58.683" cy="40.07" fill="#fcd462" r="9.927"/><path d="m58.156 45.68v-.812a4.516 4.516 0 0 1 -2.372-.682l.372-1.039a4.131 4.131 0 0 0 2.233.667c1.1 0 1.845-.636 1.845-1.519 0-.853-.6-1.38-1.752-1.845-1.581-.62-2.558-1.333-2.558-2.682a2.543 2.543 0 0 1 2.341-2.5v-.812h.961v.75a4.135 4.135 0 0 1 2.016.543l-.388 1.023a3.747 3.747 0 0 0 -1.954-.527c-1.194 0-1.644.713-1.644 1.333 0 .806.574 1.209 1.923 1.767 1.6.651 2.4 1.457 2.4 2.837a2.7 2.7 0 0 1 -2.45 2.636v.859z" fill="#323c6b"/><rect fill="#fcd462" height="6.734" rx="1.75" width="21.415" x="47.195" y="63.465"/><rect fill="#fcd462" height="6.734" rx="1.75" width="21.415" x="45.089" y="56.731"/><rect fill="#fcd462" height="6.734" rx="1.75" width="21.415" x="47.976" y="49.997"/><path d="m68.612 40.073a9.9 9.9 0 0 1 -5.28 8.76 9.92 9.92 0 0 0 -11.48-15.96 9.924 9.924 0 0 1 16.76 7.2z" fill="#f7be56"/><path d="m69.392 51.743v3.24a1.752 1.752 0 0 1 -1.75 1.75h.041v-3.426a1.752 1.752 0 0 0 -1.75-1.75h-17.961v.186a1.758 1.758 0 0 1 1.75-1.75h17.92a1.752 1.752 0 0 1 1.75 1.75z" fill="#f7be56"/><path d="m66.507 58.478v3.24a1.752 1.752 0 0 1 -1.75 1.75h.043v-3.426a1.752 1.752 0 0 0 -1.75-1.75h-17.963v.186a1.758 1.758 0 0 1 1.75-1.75h17.92a1.752 1.752 0 0 1 1.75 1.75z" fill="#f7be56"/><path d="m68.613 65.213v3.24a1.752 1.752 0 0 1 -1.75 1.75h.037v-3.427a1.752 1.752 0 0 0 -1.75-1.75h-17.957v.186a1.758 1.758 0 0 1 1.75-1.75h17.92a1.752 1.752 0 0 1 1.75 1.751z" fill="#f7be56"/><g fill="#323c6b"><path d="m51.433 54.942a.5.5 0 0 1 -.5-.5v-2.156a.5.5 0 0 1 1 0v2.156a.5.5 0 0 1 -.5.5z"/><path d="m55.058 54.942a.5.5 0 0 1 -.5-.5v-2.156a.5.5 0 0 1 1 0v2.156a.5.5 0 0 1 -.5.5z"/><path d="m58.683 54.942a.5.5 0 0 1 -.5-.5v-2.156a.5.5 0 0 1 1 0v2.156a.5.5 0 0 1 -.5.5z"/><path d="m62.308 54.942a.5.5 0 0 1 -.5-.5v-2.156a.5.5 0 0 1 1 0v2.156a.5.5 0 0 1 -.5.5z"/><path d="m65.933 54.942a.5.5 0 0 1 -.5-.5v-2.156a.5.5 0 0 1 1 0v2.156a.5.5 0 0 1 -.5.5z"/><path d="m48.547 61.676a.5.5 0 0 1 -.5-.5v-2.155a.5.5 0 0 1 1 0v2.156a.5.5 0 0 1 -.5.499z"/><path d="m52.172 61.676a.5.5 0 0 1 -.5-.5v-2.155a.5.5 0 0 1 1 0v2.156a.5.5 0 0 1 -.5.499z"/><path d="m55.8 61.676a.5.5 0 0 1 -.5-.5v-2.155a.5.5 0 0 1 1 0v2.156a.5.5 0 0 1 -.5.499z"/><path d="m59.422 61.676a.5.5 0 0 1 -.5-.5v-2.155a.5.5 0 0 1 1 0v2.156a.5.5 0 0 1 -.5.499z"/><path d="m63.047 61.676a.5.5 0 0 1 -.5-.5v-2.155a.5.5 0 0 1 1 0v2.156a.5.5 0 0 1 -.5.499z"/><path d="m50.653 68.411a.5.5 0 0 1 -.5-.5v-2.156a.5.5 0 0 1 1 0v2.156a.5.5 0 0 1 -.5.5z"/><path d="m54.278 68.411a.5.5 0 0 1 -.5-.5v-2.156a.5.5 0 0 1 1 0v2.156a.5.5 0 0 1 -.5.5z"/><path d="m57.9 68.411a.5.5 0 0 1 -.5-.5v-2.156a.5.5 0 0 1 1 0v2.156a.5.5 0 0 1 -.5.5z"/><path d="m61.528 68.411a.5.5 0 0 1 -.5-.5v-2.156a.5.5 0 0 1 1 0v2.156a.5.5 0 0 1 -.5.5z"/><path d="m65.153 68.411a.5.5 0 0 1 -.5-.5v-2.156a.5.5 0 0 1 1 0v2.156a.5.5 0 0 1 -.5.5z"/><path d="m60.77 27.827a.508.508 0 0 1 -.081-.006q-.537-.088-1.087-.134a.5.5 0 0 1 -.456-.541.489.489 0 0 1 .541-.456q.587.05 1.163.143a.5.5 0 0 1 -.08.994z"/><path d="m70.727 35.9a.5.5 0 0 1 -.466-.318 12.488 12.488 0 0 0 -7.17-7.112.5.5 0 1 1 .356-.935 13.493 13.493 0 0 1 7.745 7.682.5.5 0 0 1 -.466.682z"/><path d="m67.641 57.231h-17.915a2.252 2.252 0 0 1 -2.25-2.25v-3.234a2.252 2.252 0 0 1 2.25-2.25h17.915a2.252 2.252 0 0 1 2.25 2.25v3.234a2.252 2.252 0 0 1 -2.25 2.25zm-17.915-6.731a1.251 1.251 0 0 0 -1.25 1.25v3.234a1.251 1.251 0 0 0 1.25 1.25h17.915a1.251 1.251 0 0 0 1.25-1.25v-3.237a1.251 1.251 0 0 0 -1.25-1.25z"/><path d="m64.754 63.965h-17.915a2.252 2.252 0 0 1 -2.25-2.25v-3.234a2.252 2.252 0 0 1 2.25-2.25h17.915a2.252 2.252 0 0 1 2.246 2.25v3.234a2.252 2.252 0 0 1 -2.246 2.25zm-17.915-6.734a1.251 1.251 0 0 0 -1.25 1.25v3.234a1.251 1.251 0 0 0 1.25 1.25h17.915a1.251 1.251 0 0 0 1.246-1.25v-3.234a1.251 1.251 0 0 0 -1.25-1.25z"/><path d="m66.86 70.7h-17.915a2.252 2.252 0 0 1 -2.25-2.25v-3.235a2.252 2.252 0 0 1 2.25-2.25h17.915a2.252 2.252 0 0 1 2.25 2.25v3.235a2.252 2.252 0 0 1 -2.25 2.25zm-17.915-6.735a1.251 1.251 0 0 0 -1.25 1.25v3.235a1.251 1.251 0 0 0 1.25 1.25h17.915a1.251 1.251 0 0 0 1.25-1.25v-3.235a1.251 1.251 0 0 0 -1.25-1.25z"/><path d="m58.683 50.5a10.427 10.427 0 1 1 10.427-10.43 10.439 10.439 0 0 1 -10.427 10.43zm0-19.854a9.427 9.427 0 1 0 9.427 9.424 9.438 9.438 0 0 0 -9.427-9.427z"/><path d="m40.2 22.27h-16.65a3.3 3.3 0 0 1 0-6.6h16.65a3.3 3.3 0 0 1 0 6.6zm-16.649-5.6a2.3 2.3 0 0 0 0 4.6h16.649a2.3 2.3 0 0 0 0-4.6z"/></g><path d="m26.062 25.421h-.956a.65.65 0 0 1 0-1.3h.956a.65.65 0 0 1 0 1.3z" fill="#fff"/><path d="m38.165 25.421h-9a.65.65 0 0 1 0-1.3h9a.65.65 0 1 1 0 1.3z" fill="#fff"/><path d="m31.875 60.6a11.626 11.626 0 1 1 11.625-11.628 11.639 11.639 0 0 1 -11.625 11.628zm0-22.252a10.626 10.626 0 1 0 10.625 10.624 10.638 10.638 0 0 0 -10.625-10.626z" fill="#323c6b"/></svg>