<svg id="color_line" height="512" viewBox="0 0 74 74" width="512" xmlns="http://www.w3.org/2000/svg" data-name="color line"><path d="m41.921 12.854h5.079a3.793 3.793 0 0 1 3.79 3.79v49.22a3.793 3.793 0 0 1 -3.79 3.789h-29.687a3.793 3.793 0 0 1 -3.79-3.79v-49.219a3.793 3.793 0 0 1 3.79-3.79h5.087" fill="#bbbbcd"/><path d="m50.635 16.531v49.22a3.794 3.794 0 0 1 -3.79 3.79h-29.69a3.786 3.786 0 0 1 -3.63-2.72 3.515 3.515 0 0 0 1.03.15h29.69a3.794 3.794 0 0 0 3.79-3.79v-49.22a3.467 3.467 0 0 0 -.16-1.07 3.792 3.792 0 0 1 2.76 3.64z" fill="#9297ab"/><path d="m18.47 20.789h27.377v16.056h-27.377z" fill="#89c5cd"/><path d="m42.97 20.789h2.88v16.06h-2.88z" fill="#82bbbf"/><path d="m41.921 1.653v16.115h-19.525v-16.115l4.881 1.778 4.881-1.778 4.882 1.778z" fill="#eeefee"/><path d="m41.92 1.653v16.11h-2.46v-15.21z" fill="#d5d6db"/><path d="m44.136 18.268h-23.955a.5.5 0 0 1 0-1h23.955a.5.5 0 0 1 0 1z" fill="#323c6b"/><path d="m37.948 8.206h-11.579a.5.5 0 1 1 0-1h11.579a.5.5 0 0 1 0 1z" fill="#323c6b"/><path d="m37.948 12.758h-11.579a.5.5 0 1 1 0-1h11.579a.5.5 0 0 1 0 1z" fill="#323c6b"/><path d="m19.086 41.254h5.211v4.998h-5.211z" fill="#9297ab"/><path d="m24.3 46.752h-5.214a.5.5 0 0 1 -.5-.5v-5a.5.5 0 0 1 .5-.5h5.214a.5.5 0 0 1 .5.5v5a.5.5 0 0 1 -.5.5zm-4.711-1h4.211v-4h-4.214z" fill="#323c6b"/><path d="m29.553 41.254h5.211v4.998h-5.211z" fill="#9297ab"/><path d="m34.764 46.752h-5.211a.5.5 0 0 1 -.5-.5v-5a.5.5 0 0 1 .5-.5h5.211a.5.5 0 0 1 .5.5v5a.5.5 0 0 1 -.5.5zm-4.711-1h4.211v-4h-4.211z" fill="#323c6b"/><path d="m40.019 41.254h5.211v4.998h-5.211z" fill="#9297ab"/><path d="m45.23 46.752h-5.21a.5.5 0 0 1 -.5-.5v-5a.5.5 0 0 1 .5-.5h5.21a.5.5 0 0 1 .5.5v5a.5.5 0 0 1 -.5.5zm-4.711-1h4.211v-4h-4.21z" fill="#323c6b"/><path d="m19.086 50.119h5.211v4.998h-5.211z" fill="#9297ab"/><path d="m24.3 55.617h-5.214a.5.5 0 0 1 -.5-.5v-5a.5.5 0 0 1 .5-.5h5.214a.5.5 0 0 1 .5.5v5a.5.5 0 0 1 -.5.5zm-4.711-1h4.211v-4h-4.214z" fill="#323c6b"/><path d="m29.553 50.119h5.211v4.998h-5.211z" fill="#9297ab"/><path d="m34.764 55.617h-5.211a.5.5 0 0 1 -.5-.5v-5a.5.5 0 0 1 .5-.5h5.211a.5.5 0 0 1 .5.5v5a.5.5 0 0 1 -.5.5zm-4.711-1h4.211v-4h-4.211z" fill="#323c6b"/><path d="m40.019 50.119h5.211v4.998h-5.211z" fill="#9297ab"/><path d="m45.23 55.617h-5.21a.5.5 0 0 1 -.5-.5v-5a.5.5 0 0 1 .5-.5h5.21a.5.5 0 0 1 .5.5v5a.5.5 0 0 1 -.5.5zm-4.711-1h4.211v-4h-4.21z" fill="#323c6b"/><path d="m19.086 58.985h5.211v4.998h-5.211z" fill="#9297ab"/><path d="m24.3 64.483h-5.214a.5.5 0 0 1 -.5-.5v-5a.5.5 0 0 1 .5-.5h5.214a.5.5 0 0 1 .5.5v5a.5.5 0 0 1 -.5.5zm-4.711-1h4.211v-4h-4.214z" fill="#323c6b"/><path d="m29.553 58.985h5.211v4.998h-5.211z" fill="#9297ab"/><path d="m34.764 64.483h-5.211a.5.5 0 0 1 -.5-.5v-5a.5.5 0 0 1 .5-.5h5.211a.5.5 0 0 1 .5.5v5a.5.5 0 0 1 -.5.5zm-4.711-1h4.211v-4h-4.211z" fill="#323c6b"/><path d="m40.019 58.985h5.211v4.998h-5.211z" fill="#9297ab"/><path d="m45.23 64.483h-5.21a.5.5 0 0 1 -.5-.5v-5a.5.5 0 0 1 .5-.5h5.21a.5.5 0 0 1 .5.5v5a.5.5 0 0 1 -.5.5zm-4.711-1h4.211v-4h-4.21z" fill="#323c6b"/><path d="m55.73 30.987h9.667v30.302h-9.667z" fill="#05afd6"/><path d="m63.23 23.737h-5.33a2.167 2.167 0 0 0 -2.17 2.163v5.083h9.67v-5.083a2.167 2.167 0 0 0 -2.17-2.163z" fill="#fcd462"/><path d="m55.73 61.288 4.834 8.365 4.833-8.365z" fill="#fcd462"/><path d="m62.83 30.983h2.57v30.31h-2.57z" fill="#27a2db"/><path d="m65.4 25.9v5.08h-2.57v-5.08a2.166 2.166 0 0 0 -2.16-2.17h2.56a2.168 2.168 0 0 1 2.17 2.17z" fill="#f7be56"/><path d="m65.4 61.293-4.84 8.36-1.28-2.22 3.55-6.14z" fill="#f7be56"/><g fill="#323c6b"><path d="m15.293 72.847a.493.493 0 0 1 -.149-.023 7.26 7.26 0 0 1 -5.122-6.96v-1.5a.5.5 0 1 1 1 0v1.5a6.265 6.265 0 0 0 4.419 6.006.5.5 0 0 1 -.149.977z"/><path d="m10.523 62.215a.5.5 0 0 1 -.5-.5v-.808a.5.5 0 0 1 1 0v.808a.5.5 0 0 1 -.5.5z"/><path d="m68.4 41.716a.5.5 0 0 1 -.5-.5v-8.316a.5.5 0 0 1 1 0v8.313a.5.5 0 0 1 -.5.503z"/><path d="m68.4 45.122a.5.5 0 0 1 -.5-.5v-.781a.5.5 0 0 1 1 0v.781a.5.5 0 0 1 -.5.5z"/><path d="m47 70.153h-29.687a4.294 4.294 0 0 1 -4.29-4.29v-49.219a4.294 4.294 0 0 1 4.29-4.29h5.087a.5.5 0 0 1 0 1h-5.087a3.293 3.293 0 0 0 -3.29 3.29v49.22a3.293 3.293 0 0 0 3.29 3.29h29.687a3.293 3.293 0 0 0 3.289-3.29v-49.22a3.293 3.293 0 0 0 -3.289-3.29h-5.079a.5.5 0 0 1 0-1h5.079a4.294 4.294 0 0 1 4.289 4.29v49.22a4.294 4.294 0 0 1 -4.289 4.289z"/><path d="m45.847 37.344h-27.377a.5.5 0 0 1 -.5-.5v-16.055a.5.5 0 0 1 .5-.5h27.377a.5.5 0 0 1 .5.5v16.055a.5.5 0 0 1 -.5.5zm-26.876-1h26.376v-15.055h-26.377z"/><path d="m41.921 18.268h-19.521a.5.5 0 0 1 -.5-.5v-16.115a.5.5 0 0 1 .671-.47l4.706 1.717 4.71-1.715a.5.5 0 0 1 .342 0l4.711 1.715 4.71-1.716a.5.5 0 0 1 .671.47v16.114a.5.5 0 0 1 -.5.5zm-19.026-1h18.526v-14.9l-4.211 1.532a.5.5 0 0 1 -.342 0l-4.71-1.715-4.71 1.715a.5.5 0 0 1 -.342 0l-4.206-1.532z"/><path d="m65.4 61.789h-9.67a.5.5 0 0 1 -.5-.5v-30.3a.5.5 0 0 1 .5-.5h9.67a.5.5 0 0 1 .5.5v30.3a.5.5 0 0 1 -.5.5zm-9.167-1h8.667v-29.3h-8.67z"/><path d="m65.4 31.487h-9.67a.5.5 0 0 1 -.5-.5v-5.087a2.67 2.67 0 0 1 2.67-2.663h5.33a2.67 2.67 0 0 1 2.67 2.663v5.083a.5.5 0 0 1 -.5.504zm-9.167-1h8.667v-4.587a1.668 1.668 0 0 0 -1.667-1.667h-5.333a1.668 1.668 0 0 0 -1.67 1.667z"/><path d="m60.563 70.153a.5.5 0 0 1 -.433-.25l-4.83-8.364a.5.5 0 0 1 .433-.75h9.667a.5.5 0 0 1 .433.75l-4.833 8.361a.5.5 0 0 1 -.437.253zm-3.963-8.364 3.967 6.865 3.967-6.865z"/></g><path d="m24.792 34.314h-1.992a2.058 2.058 0 0 1 -2.056-2.056v-1.25a.65.65 0 0 1 1.3 0v1.25a.757.757 0 0 0 .756.756h1.988a.65.65 0 1 1 0 1.3z" fill="#fff"/><path d="m21.4 29.007a.65.65 0 0 1 -.65-.65v-.807a.65.65 0 0 1 1.3 0v.807a.65.65 0 0 1 -.65.65z" fill="#fff"/></svg>