<svg id="color_line" height="512" viewBox="0 0 74 74" width="512" xmlns="http://www.w3.org/2000/svg" data-name="color line"><path d="m12.721 38.069h48.558v32.431h-48.558z" fill="#e1e6e9"/><path d="m37 2.5-32.689 35.569h65.378z" fill="#fe7058"/><path d="m69.69 38.07h-4.21l-30.58-33.28 2.1-2.29z" fill="#ea6453"/><path d="m29.667 52.167h14.667v18.333h-14.667z" fill="#84879c"/><path d="m21.937 27.915h30.125v4.762h-30.125z" fill="#bbbbcd"/><g fill="#323c6b"><path d="m52.063 33.177h-30.125a.5.5 0 0 1 -.5-.5v-4.762a.5.5 0 0 1 .5-.5h30.125a.5.5 0 0 1 .5.5v4.762a.5.5 0 0 1 -.5.5zm-29.625-1h29.125v-3.762h-29.125z"/><path d="m52.678 15.625a.5.5 0 0 1 -.368-.162l-.662-.721a.5.5 0 0 1 .736-.677l.662.721a.5.5 0 0 1 -.368.838z"/><path d="m60.082 23.682a.5.5 0 0 1 -.368-.162l-5.645-6.142a.5.5 0 0 1 .736-.677l5.645 6.142a.5.5 0 0 1 -.368.838z"/><path d="m9.563 60.869a.5.5 0 0 1 -.5-.5v-7.775a.5.5 0 0 1 1 0v7.775a.5.5 0 0 1 -.5.5z"/><path d="m9.563 50.927a.5.5 0 0 1 -.5-.5v-.854a.5.5 0 0 1 1 0v.854a.5.5 0 0 1 -.5.5z"/></g><path d="m45.9 32.658a10.771 10.771 0 1 0 -17.8 0z" fill="#fcd462"/><path d="m45.9 33.158h-17.8a.5.5 0 0 1 -.413-.218 11.271 11.271 0 1 1 18.623 0 .5.5 0 0 1 -.41.218zm-17.529-1h17.26a10.271 10.271 0 1 0 -17.262 0z" fill="#323c6b"/><path d="m36.428 32.8v-.9a4.93 4.93 0 0 1 -2.574-.849l.4-1.127a4.482 4.482 0 0 0 2.422.723c1.194 0 2-.69 2-1.648 0-.925-.656-1.5-1.9-2-1.716-.673-2.775-1.446-2.775-2.91a2.864 2.864 0 0 1 2.54-2.817v-.9h1.042v.831a4.4 4.4 0 0 1 2.187.7l-.421 1.11a4.065 4.065 0 0 0 -2.12-.572c-1.3 0-1.783.774-1.783 1.446 0 .875.623 1.312 2.086 1.918 1.733.707 2.607 1.581 2.607 3.079a3.03 3.03 0 0 1 -2.658 2.967v.949z" fill="#323c6b"/><path d="m69.689 38.569h-65.378a.5.5 0 0 1 -.368-.838l32.689-35.569a.516.516 0 0 1 .736 0l32.69 35.569a.5.5 0 0 1 -.368.838zm-64.24-1h63.1l-31.549-34.33z" fill="#323c6b"/><path d="m58.187 38.069h3.091v32.431h-3.091z" fill="#d5d6db"/><path d="m61.279 71h-48.558a.5.5 0 0 1 -.5-.5v-32.431a.5.5 0 0 1 .5-.5h48.558a.5.5 0 0 1 .5.5v32.431a.5.5 0 0 1 -.5.5zm-48.058-1h47.558v-31.431h-47.558z" fill="#323c6b"/><path d="m44.333 71h-14.666a.5.5 0 0 1 -.5-.5v-18.333a.5.5 0 0 1 .5-.5h14.666a.5.5 0 0 1 .5.5v18.333a.5.5 0 0 1 -.5.5zm-14.166-1h13.666v-17.333h-13.666z" fill="#323c6b"/><path d="m35.088 35.869h-9.167a.65.65 0 1 1 0-1.3h9.167a.65.65 0 1 1 0 1.3z" fill="#fff"/><path d="m23.042 35.869h-.855a.65.65 0 1 1 0-1.3h.855a.65.65 0 1 1 0 1.3z" fill="#fff"/></svg>