<svg id="color_line" height="512" viewBox="0 0 74 74" width="512" xmlns="http://www.w3.org/2000/svg" data-name="color line"><path d="m10.753 29.884h52.495v4.705h-52.495z" fill="#e1e6e9"/><path d="m8.791 62.558h56.418v6.319h-56.418z" fill="#e1e6e9"/><path d="m71 69.377h-68a.5.5 0 0 1 0-1h68a.5.5 0 0 1 0 1z" fill="#323c6b"/><path d="m13.788 34.589h11.022v3.911h-11.022z" fill="#d5d6db"/><path d="m24.811 39h-11.023a.5.5 0 0 1 -.5-.5v-3.912a.5.5 0 0 1 .5-.5h11.023a.5.5 0 0 1 .5.5v3.912a.5.5 0 0 1 -.5.5zm-10.523-1h10.023v-2.912h-10.023z" fill="#323c6b"/><path d="m13.788 59.34h11.022v3.218h-11.022z" fill="#d5d6db"/><path d="m24.811 63.058h-11.023a.5.5 0 0 1 -.5-.5v-3.219a.5.5 0 0 1 .5-.5h11.023a.5.5 0 0 1 .5.5v3.218a.5.5 0 0 1 -.5.501zm-10.522-1h10.022v-2.219h-10.023z" fill="#323c6b"/><path d="m16.007 38.5h6.585v20.84h-6.585z" fill="#e1e6e9"/><path d="m31.489 34.589h11.022v3.911h-11.022z" fill="#d5d6db"/><path d="m42.511 39h-11.022a.5.5 0 0 1 -.5-.5v-3.912a.5.5 0 0 1 .5-.5h11.022a.5.5 0 0 1 .5.5v3.912a.5.5 0 0 1 -.5.5zm-10.522-1h10.022v-2.912h-10.022z" fill="#323c6b"/><path d="m31.489 59.34h11.022v3.218h-11.022z" fill="#d5d6db"/><path d="m42.511 63.058h-11.022a.5.5 0 0 1 -.5-.5v-3.219a.5.5 0 0 1 .5-.5h11.022a.5.5 0 0 1 .5.5v3.218a.5.5 0 0 1 -.5.501zm-10.521-1h10.021v-2.219h-10.022z" fill="#323c6b"/><path d="m33.707 38.5h6.585v20.84h-6.585z" fill="#e1e6e9"/><path d="m49.19 34.589h11.022v3.911h-11.022z" fill="#d5d6db"/><path d="m60.212 39h-11.023a.5.5 0 0 1 -.5-.5v-3.912a.5.5 0 0 1 .5-.5h11.023a.5.5 0 0 1 .5.5v3.912a.5.5 0 0 1 -.5.5zm-10.523-1h10.023v-2.912h-10.023z" fill="#323c6b"/><path d="m49.19 59.34h11.022v3.218h-11.022z" fill="#d5d6db"/><path d="m60.212 63.058h-11.023a.5.5 0 0 1 -.5-.5v-3.219a.5.5 0 0 1 .5-.5h11.023a.5.5 0 0 1 .5.5v3.218a.5.5 0 0 1 -.5.501zm-10.522-1h10.022v-2.219h-10.023z" fill="#323c6b"/><path d="m51.408 38.5h6.585v20.84h-6.585z" fill="#e1e6e9"/><path d="m37 3.123-32.132 26.761h64.264z" fill="#e1e6e9"/><path d="m60.667 29.88h2.583v4.71h-2.583z" fill="#d5d6db"/><path d="m62.83 62.56h2.38v6.32h-2.38z" fill="#d5d6db"/><path d="m20.22 38.5h2.37v20.84h-2.37z" fill="#d5d6db"/><path d="m37.92 38.5h2.37v20.84h-2.37z" fill="#d5d6db"/><path d="m55.62 38.5h2.37v20.84h-2.37z" fill="#d5d6db"/><path d="m69.13 29.88h-3.8l-30.23-25.17 1.9-1.59z" fill="#d5d6db"/><circle cx="37" cy="15.913" fill="#9297ab" r="4.371"/><path d="m37 20.785a4.872 4.872 0 1 1 4.871-4.872 4.877 4.877 0 0 1 -4.871 4.872zm0-8.743a3.872 3.872 0 1 0 3.871 3.872 3.876 3.876 0 0 0 -3.871-3.872z" fill="#323c6b"/><path d="m13.007 52.292v-8.584" fill="#ebf0f3"/><g fill="#323c6b"><path d="m13.007 52.792a.5.5 0 0 1 -.5-.5v-8.584a.5.5 0 0 1 1 0v8.583a.5.5 0 0 1 -.5.501z"/><path d="m13.007 55.813a.5.5 0 0 1 -.5-.5v-.854a.5.5 0 0 1 1 0v.854a.5.5 0 0 1 -.5.5z"/><path d="m47.583 8.533a.5.5 0 0 1 -.32-.116l-.617-.517a.5.5 0 0 1 .641-.769l.616.514a.5.5 0 0 1 -.32.884z"/><path d="m56.042 15.578a.5.5 0 0 1 -.32-.116l-6.3-5.244a.5.5 0 0 1 .641-.769l6.3 5.244a.5.5 0 0 1 -.32.884z"/><path d="m63.247 35.088h-52.494a.5.5 0 0 1 -.5-.5v-4.7a.5.5 0 0 1 .5-.5h52.494a.5.5 0 0 1 .5.5v4.7a.5.5 0 0 1 -.5.5zm-51.994-1h51.494v-3.7h-51.494z"/><path d="m65.209 69.377h-56.418a.5.5 0 0 1 -.5-.5v-6.319a.5.5 0 0 1 .5-.5h56.418a.5.5 0 0 1 .5.5v6.319a.5.5 0 0 1 -.5.5zm-55.918-1h55.418v-5.319h-55.418z"/><path d="m22.592 59.839h-6.585a.5.5 0 0 1 -.5-.5v-20.839a.5.5 0 0 1 .5-.5h6.585a.5.5 0 0 1 .5.5v20.839a.5.5 0 0 1 -.5.5zm-6.085-1h5.585v-19.839h-5.585z"/><path d="m40.293 59.839h-6.586a.5.5 0 0 1 -.5-.5v-20.839a.5.5 0 0 1 .5-.5h6.586a.5.5 0 0 1 .5.5v20.839a.5.5 0 0 1 -.5.5zm-6.086-1h5.586v-19.839h-5.586z"/><path d="m57.993 59.839h-6.585a.5.5 0 0 1 -.5-.5v-20.839a.5.5 0 0 1 .5-.5h6.585a.5.5 0 0 1 .5.5v20.839a.5.5 0 0 1 -.5.5zm-6.085-1h5.585v-19.839h-5.585z"/><path d="m69.132 30.384h-64.264a.5.5 0 0 1 -.32-.884l32.132-26.761a.5.5 0 0 1 .641 0l32.131 26.761a.5.5 0 0 1 -.32.884zm-62.882-1h61.5l-30.75-25.61z"/></g></svg>