<svg id="color_line" height="512" viewBox="0 0 74 74" width="512" xmlns="http://www.w3.org/2000/svg" data-name="color line"><path d="m8.747 49.692h-1.147a3.193 3.193 0 0 1 -3.2-3.192v-28.98a3.193 3.193 0 0 1 3.2-3.188h49.33a3.193 3.193 0 0 1 3.2 3.188v1.15" fill="#27ccbc"/><path d="m64.473 23.007v-1.15a3.193 3.193 0 0 0 -3.2-3.188h-49.329a3.193 3.193 0 0 0 -3.2 3.188v28.984a3.193 3.193 0 0 0 3.2 3.188h1.15" fill="#27ccbc"/><path d="m68.82 44.465v-18.265a3.193 3.193 0 0 0 -3.2-3.188h-49.328a3.193 3.193 0 0 0 -3.2 3.188v28.979a3.193 3.193 0 0 0 3.2 3.188h42.416" fill="#21b3a9"/><path d="m58.708 58.868h-42.416a3.7 3.7 0 0 1 -3.7-3.688v-28.98a3.7 3.7 0 0 1 3.7-3.688h49.33a3.7 3.7 0 0 1 3.7 3.688v18.265a.5.5 0 0 1 -1 0v-18.265a2.7 2.7 0 0 0 -2.7-2.688h-49.33a2.7 2.7 0 0 0 -2.7 2.688v28.979a2.7 2.7 0 0 0 2.7 2.688h42.416a.5.5 0 0 1 0 1z" fill="#323c6b"/><path d="m60.1 17.256a3 3 0 0 0 -.929-.148h-49.326a3.193 3.193 0 0 0 -3.2 3.187v28.982a1.113 1.113 0 0 0 .021.264 3.166 3.166 0 0 1 -2.266-3.041v-28.98a3.187 3.187 0 0 1 3.2-3.187h49.326a3.171 3.171 0 0 1 3.174 2.923z" fill="#21b3a9"/><path d="m64.451 21.594a3 3 0 0 0 -.929-.148h-49.329a3.187 3.187 0 0 0 -3.193 3.188v28.981a1.113 1.113 0 0 0 .021.264 3.166 3.166 0 0 1 -2.269-3.04v-28.981a3.187 3.187 0 0 1 3.2-3.187h49.323a3.171 3.171 0 0 1 3.176 2.923z" fill="#21b3a9"/><path d="m68.82 44.465v-18.265a3.193 3.193 0 0 0 -3.2-3.188h-49.328a3.193 3.193 0 0 0 -3.2 3.188v28.979a3.193 3.193 0 0 0 3.2 3.188h42.416" fill="#27ccbc"/><path d="m68.481 26.415v18.269l-10.111 13.9h-.718l8.264-11.367v-18.269a3.187 3.187 0 0 0 -3.2-3.187h-49.327a3.489 3.489 0 0 0 -.581.053 3.2 3.2 0 0 1 3.145-2.586h49.33a3.194 3.194 0 0 1 3.198 3.187z" fill="#21b3a9"/><path d="m63.419 44.562v-11.033a5.127 5.127 0 0 1 -5.13-5.13h-34.664a5.129 5.129 0 0 1 -5.14 5.13v14.317a5.135 5.135 0 0 1 5.14 5.13h32.819" fill="#ebf0f3"/><path d="m56.444 53.477h-32.819a.5.5 0 0 1 -.5-.5 4.64 4.64 0 0 0 -4.64-4.63.5.5 0 0 1 -.5-.5v-14.319a.5.5 0 0 1 .5-.5 4.64 4.64 0 0 0 4.64-4.63.5.5 0 0 1 .5-.5h34.664a.5.5 0 0 1 .5.5 4.635 4.635 0 0 0 4.63 4.63.5.5 0 0 1 .5.5v11.034a.5.5 0 0 1 -1 0v-10.556a5.638 5.638 0 0 1 -5.107-5.106h-33.712a5.644 5.644 0 0 1 -5.117 5.108v13.361a5.644 5.644 0 0 1 5.117 5.108h32.344a.5.5 0 0 1 0 1z" fill="#323c6b"/><circle cx="40.957" cy="40.689" fill="#27ccbc" r="8.252"/><path d="m48.815 41.038a8.241 8.241 0 0 1 -3 6.364 8.146 8.146 0 0 0 1.52-4.76 8.254 8.254 0 0 0 -13.509-6.364 8.247 8.247 0 0 1 14.987 4.76z" fill="#21b3a9"/><path d="m40.491 45.749v-.732a4.013 4.013 0 0 1 -2.095-.693l.328-.917a3.648 3.648 0 0 0 1.971.589c.972 0 1.629-.561 1.629-1.342 0-.753-.534-1.218-1.547-1.629-1.4-.547-2.259-1.177-2.259-2.368a2.334 2.334 0 0 1 2.067-2.3v-.732h.848v.675a3.583 3.583 0 0 1 1.78.571l-.342.9a3.309 3.309 0 0 0 -1.725-.465c-1.055 0-1.451.63-1.451 1.177 0 .712.507 1.068 1.7 1.561 1.41.575 2.122 1.287 2.122 2.505a2.468 2.468 0 0 1 -2.163 2.418l-.031.774z" fill="#323c6b"/><circle cx="25.685" cy="40.689" fill="#27ccbc" r="1.997"/><path d="m25.686 43.186a2.5 2.5 0 1 1 2.5-2.5 2.5 2.5 0 0 1 -2.5 2.5zm0-3.994a1.5 1.5 0 1 0 1.5 1.5 1.5 1.5 0 0 0 -1.5-1.5z" fill="#323c6b"/><circle cx="56.228" cy="40.689" fill="#27ccbc" r="1.997"/><g fill="#323c6b"><path d="m56.228 43.186a2.5 2.5 0 1 1 2.5-2.5 2.5 2.5 0 0 1 -2.5 2.5zm0-3.994a1.5 1.5 0 1 0 1.5 1.5 1.5 1.5 0 0 0 -1.5-1.5z"/><path d="m1 16.286a.506.506 0 0 1 -.163-.027.5.5 0 0 1 -.31-.635 6.86 6.86 0 0 1 6.473-4.638h1.533a.5.5 0 0 1 0 1h-1.533a5.86 5.86 0 0 0 -5.532 3.963.5.5 0 0 1 -.468.337z"/><path d="m11.963 11.986h-1.033a.5.5 0 0 1 0-1h1.033a.5.5 0 0 1 0 1z"/><path d="m8.747 50.192h-1.147a3.7 3.7 0 0 1 -3.7-3.692v-28.98a3.7 3.7 0 0 1 3.7-3.688h49.33a3.7 3.7 0 0 1 3.7 3.688v1.149a.5.5 0 0 1 -1 0v-1.149a2.7 2.7 0 0 0 -2.7-2.688h-49.33a2.7 2.7 0 0 0 -2.7 2.688v28.98a2.7 2.7 0 0 0 2.7 2.688h1.15a.5.5 0 1 1 0 1z"/><path d="m13.094 54.529h-1.15a3.7 3.7 0 0 1 -3.7-3.688v-28.984a3.7 3.7 0 0 1 3.7-3.688h49.33a3.7 3.7 0 0 1 3.7 3.688v1.15a.5.5 0 0 1 -1 0v-1.15a2.7 2.7 0 0 0 -2.7-2.688h-49.33a2.7 2.7 0 0 0 -2.7 2.688v28.984a2.7 2.7 0 0 0 2.7 2.688h1.149a.5.5 0 0 1 0 1z"/><path d="m58.708 58.868h-42.416a3.7 3.7 0 0 1 -3.7-3.688v-28.98a3.7 3.7 0 0 1 3.7-3.688h49.33a3.7 3.7 0 0 1 3.7 3.688v18.265a.5.5 0 0 1 -1 0v-18.265a2.7 2.7 0 0 0 -2.7-2.688h-49.33a2.7 2.7 0 0 0 -2.7 2.688v28.979a2.7 2.7 0 0 0 2.7 2.688h42.416a.5.5 0 0 1 0 1z"/></g><circle cx="64.058" cy="52.38" fill="#fcd462" r="8.942"/><path d="m73 52.556a8.914 8.914 0 0 1 -4.834 7.937 8.941 8.941 0 0 0 -10.3-14.385 8.942 8.942 0 0 1 15.134 6.448z" fill="#f7be56"/><path d="m64.058 57.482a.5.5 0 0 1 -.5-.5v-9.2a.5.5 0 0 1 1 0v9.2a.5.5 0 0 1 -.5.5z" fill="#323c6b"/><path d="m64.058 57.482a.5.5 0 0 1 -.354-.146l-2.7-2.7a.5.5 0 0 1 .707-.707l2.35 2.35 2.351-2.35a.5.5 0 0 1 .707.707l-2.7 2.7a.5.5 0 0 1 -.361.146z" fill="#323c6b"/><path d="m64.29 64.674a.5.5 0 0 1 -.01-1 11.219 11.219 0 0 0 8.018-3.58.5.5 0 1 1 .729.685 12.211 12.211 0 0 1 -8.727 3.9z" fill="#323c6b"/><path d="m61.965 64.489a.508.508 0 0 1 -.09-.008c-.315-.057-.626-.131-.933-.211a.5.5 0 1 1 .258-.97c.281.074.566.142.856.194a.5.5 0 0 1 -.088.992z" fill="#323c6b"/><path d="m64.058 61.822a9.442 9.442 0 1 1 9.442-9.442 9.453 9.453 0 0 1 -9.442 9.442zm0-17.884a8.442 8.442 0 1 0 8.442 8.442 8.452 8.452 0 0 0 -8.442-8.442z" fill="#323c6b"/><path d="m40.956 49.441a8.752 8.752 0 1 1 8.753-8.752 8.762 8.762 0 0 1 -8.753 8.752zm0-16.5a7.752 7.752 0 1 0 7.753 7.752 7.761 7.761 0 0 0 -7.753-7.756z" fill="#323c6b"/><path d="m39.931 56.217h-.4a.587.587 0 1 1 0-1.174h.4a.587.587 0 1 1 0 1.174z" fill="#fff"/><path d="m37.334 56.217h-7.721a.587.587 0 1 1 0-1.174h7.722a.587.587 0 1 1 0 1.174z" fill="#fff"/></svg>