<svg id="color_line" height="512" viewBox="0 0 74 74" width="512" xmlns="http://www.w3.org/2000/svg" data-name="color line"><g fill="#323c6b"><path d="m71 70.908h-68a.5.5 0 0 1 -.5-.5v-66.816a.5.5 0 0 1 1 0v66.316h67.5a.5.5 0 0 1 0 1z"/><path d="m6.121 12.479h-3.121a.5.5 0 0 1 0-1h3.121a.5.5 0 0 1 0 1z"/><path d="m6.121 22.487h-3.121a.5.5 0 0 1 0-1h3.121a.5.5 0 0 1 0 1z"/><path d="m6.121 32.5h-3.121a.5.5 0 0 1 0-1h3.121a.5.5 0 0 1 0 1z"/><path d="m6.121 42.5h-3.121a.5.5 0 0 1 0-1h3.121a.5.5 0 0 1 0 1z"/><path d="m6.121 52.513h-3.121a.5.5 0 0 1 0-1h3.121a.5.5 0 0 1 0 1z"/><path d="m6.121 62.521h-3.121a.5.5 0 0 1 0-1h3.121a.5.5 0 0 1 0 1z"/><path d="m11.979 70.908a.5.5 0 0 1 -.5-.5v-3.121a.5.5 0 0 1 1 0v3.121a.5.5 0 0 1 -.5.5z"/><path d="m21.987 70.908a.5.5 0 0 1 -.5-.5v-3.121a.5.5 0 0 1 1 0v3.121a.5.5 0 0 1 -.5.5z"/><path d="m32 70.908a.5.5 0 0 1 -.5-.5v-3.121a.5.5 0 0 1 1 0v3.121a.5.5 0 0 1 -.5.5z"/><path d="m42 70.908a.5.5 0 0 1 -.5-.5v-3.121a.5.5 0 0 1 1 0v3.121a.5.5 0 0 1 -.5.5z"/><path d="m52.013 70.908a.5.5 0 0 1 -.5-.5v-3.121a.5.5 0 0 1 1 0v3.121a.5.5 0 0 1 -.5.5z"/><path d="m62.021 70.908a.5.5 0 0 1 -.5-.5v-3.121a.5.5 0 0 1 1 0v3.121a.5.5 0 0 1 -.5.5z"/></g><path d="m57.046 13.323-16.91 12.91-10.73-7.11-20.42 16.15 2.48 3.14 18.15-14.35 10.68 7.08 19.25-14.69" fill="#27ccbc"/><path d="m11.466 38.913a.472.472 0 0 1 -.059 0 .5.5 0 0 1 -.334-.187l-2.48-3.14a.5.5 0 0 1 .082-.7l20.42-16.15a.5.5 0 0 1 .587-.025l10.433 6.909 16.627-12.694a.5.5 0 0 1 .607.795l-16.91 12.91a.5.5 0 0 1 -.58.02l-10.427-6.911-19.744 15.615 1.86 2.355 17.752-14.039a.5.5 0 0 1 .587-.025l10.388 6.884 18.967-14.474a.5.5 0 0 1 .607.795l-19.249 14.69a.5.5 0 0 1 -.58.02l-10.379-6.88-17.865 14.124a.5.5 0 0 1 -.31.108z" fill="#323c6b"/><path d="m52.416 48.083-10.91-8.64-10.7 7.09-22.29-17.44 2.47-3.15 20.02 15.67 10.71-7.1 13.2 10.45" fill="#fe7058"/><path d="m52.416 48.583a.5.5 0 0 1 -.311-.108l-10.626-8.414-10.4 6.89a.5.5 0 0 1 -.584-.023l-22.287-17.441a.5.5 0 0 1 -.086-.7l2.47-3.15a.5.5 0 0 1 .7-.085l19.738 15.448 10.409-6.9a.5.5 0 0 1 .587.024l13.2 10.45a.5.5 0 0 1 -.621.784l-12.916-10.228-10.407 6.9a.5.5 0 0 1 -.585-.023l-19.627-15.362-1.852 2.363 21.612 16.909 10.4-6.891a.5.5 0 0 1 .587.025l10.91 8.64a.5.5 0 0 1 -.311.892z" fill="#323c6b"/><path d="m54.186 9.748 13.234-1.284-4.955 11.625z" fill="#27ccbc"/><path d="m62.465 20.589a.5.5 0 0 1 -.391-.187l-8.274-10.341a.5.5 0 0 1 .343-.81l13.229-1.285a.508.508 0 0 1 .451.2.5.5 0 0 1 .057.492l-4.955 11.628a.5.5 0 0 1 -.393.3.52.52 0 0 1 -.067.003zm-7.311-10.432 7.179 8.967 4.3-10.081z" fill="#323c6b"/><path d="m49.558 51.66 8.206-10.253 4.963 12.649z" fill="#fe7058"/><path d="m62.728 54.556a.473.473 0 0 1 -.09-.008l-13.169-2.4a.5.5 0 0 1 -.3-.8l8.205-10.248a.49.49 0 0 1 .466-.182.5.5 0 0 1 .391.312l4.963 12.648a.5.5 0 0 1 -.466.683zm-12.255-3.237 11.462 2.081-4.32-11z" fill="#323c6b"/></svg>