<svg id="color_line" height="512" viewBox="0 0 74 74" width="512" xmlns="http://www.w3.org/2000/svg" data-name="color line"><path d="m60.884 20.475v-1.375a2.9 2.9 0 0 0 -2.9-2.9h-52.084a2.9 2.9 0 0 0 -2.9 2.9v31.526a2.9 2.9 0 0 0 2.9 2.895h2.444" fill="#27ccbc"/><path d="m8.344 54.021h-2.444a3.4 3.4 0 0 1 -3.4-3.395v-31.526a3.409 3.409 0 0 1 3.4-3.4h52.079a3.409 3.409 0 0 1 3.4 3.4v1.376a.5.5 0 1 1 -1 0v-1.376a2.407 2.407 0 0 0 -2.4-2.4h-52.079a2.407 2.407 0 0 0 -2.4 2.4v31.526a2.4 2.4 0 0 0 2.4 2.395h2.444a.5.5 0 1 1 0 1z" fill="#323c6b"/><path d="m66.22 35.235v-11.856a2.9 2.9 0 0 0 -2.9-2.9h-52.079a2.9 2.9 0 0 0 -2.9 2.9v31.528a2.9 2.9 0 0 0 2.9 2.9h52.079" fill="#27ccbc"/><path d="m63.43 25.978v10.272h2.387l.1-.8v-11.862a2.9 2.9 0 0 0 -2.9-2.9h-52.077a2.9 2.9 0 0 0 -2.86 2.42 2.222 2.222 0 0 1 .37-.03h52.08a2.9 2.9 0 0 1 2.9 2.9z" fill="#21b3a9"/><path d="m61.817 35.5v-4.585a5.838 5.838 0 0 1 -5.838-5.838h-37.4a5.838 5.838 0 0 1 -5.838 5.838v16.455a5.838 5.838 0 0 1 5.838 5.838h36.968" fill="#21b3a9"/><path d="m55.547 53.708h-36.965a.5.5 0 0 1 -.5-.5 5.344 5.344 0 0 0 -5.338-5.338.5.5 0 0 1 -.5-.5v-16.454a.5.5 0 0 1 .5-.5 5.344 5.344 0 0 0 5.338-5.338.5.5 0 0 1 .5-.5h37.4a.5.5 0 0 1 .5.5 5.344 5.344 0 0 0 5.338 5.338.5.5 0 0 1 .5.5v4.584a.5.5 0 0 1 -1 0v-4.1a6.348 6.348 0 0 1 -5.82-5.822h-36.437a6.348 6.348 0 0 1 -5.819 5.822v15.49a6.348 6.348 0 0 1 5.818 5.818h36.485a.5.5 0 0 1 0 1z" fill="#323c6b"/><circle cx="37.28" cy="39.143" fill="#eeefee" r="8.469"/><path d="m37.28 48.112a8.969 8.969 0 1 1 8.97-8.969 8.979 8.979 0 0 1 -8.97 8.969zm0-16.939a7.969 7.969 0 1 0 7.97 7.97 7.979 7.979 0 0 0 -7.97-7.97z" fill="#323c6b"/><circle cx="20.968" cy="39.143" fill="#eeefee" r="2.623"/><path d="m20.968 42.267a3.124 3.124 0 1 1 3.124-3.124 3.127 3.127 0 0 1 -3.124 3.124zm0-5.247a2.124 2.124 0 1 0 2.124 2.124 2.126 2.126 0 0 0 -2.124-2.124z" fill="#323c6b"/><circle cx="53.593" cy="39.143" fill="#eeefee" r="2.623"/><g fill="#323c6b"><path d="m53.593 42.267a3.124 3.124 0 1 1 3.124-3.124 3.127 3.127 0 0 1 -3.124 3.124zm0-5.247a2.124 2.124 0 1 0 2.124 2.124 2.126 2.126 0 0 0 -2.124-2.124z"/><path d="m36.8 44.212v-.734a4.08 4.08 0 0 1 -2.143-.617l.343-.937a3.732 3.732 0 0 0 2.017.6c.995 0 1.667-.574 1.667-1.373 0-.771-.546-1.247-1.583-1.667-1.429-.56-2.311-1.2-2.311-2.423a2.3 2.3 0 0 1 2.11-2.254v-.734h.868v.678a3.737 3.737 0 0 1 1.822.49l-.35.925a3.386 3.386 0 0 0 -1.765-.476c-1.079 0-1.485.644-1.485 1.2 0 .728.518 1.093 1.737 1.6 1.443.589 2.171 1.317 2.171 2.564a2.437 2.437 0 0 1 -2.213 2.382v.776z"/><path d="m19.063 61.307h-10.188a.5.5 0 0 1 0-1h10.188a.5.5 0 1 1 0 1z"/><path d="m22.313 61.307h-.937a.5.5 0 0 1 0-1h.938a.5.5 0 1 1 0 1z"/><path d="m41.958 13.693h-.844a.5.5 0 0 1 0-1h.844a.5.5 0 0 1 0 1z"/><path d="m54.852 13.693h-10.519a.5.5 0 0 1 0-1h10.519a.5.5 0 0 1 0 1z"/></g><path d="m71 39.17c0 2.39-3.61 4.32-8.07 4.32s-8.08-1.93-8.08-4.32 3.62-4.31 8.08-4.31 8.07 1.93 8.07 4.31z" fill="#fcd462"/><path d="m71 39.17v4.78c0 2.38-3.61 4.31-8.07 4.31s-8.08-1.93-8.08-4.31v-4.78c0 2.39 3.62 4.32 8.08 4.32s8.07-1.93 8.07-4.32z" fill="#fcd462"/><path d="m71 43.95v4.77c0 2.38-3.61 4.31-8.07 4.31s-8.08-1.93-8.08-4.31v-4.77c0 2.38 3.62 4.31 8.08 4.31s8.07-1.93 8.07-4.31z" fill="#fcd462"/><path d="m71 48.72v4.77c0 2.38-3.61 4.32-8.07 4.32s-8.08-1.94-8.08-4.32v-4.77c0 2.38 3.62 4.31 8.08 4.31s8.07-1.93 8.07-4.31z" fill="#fcd462"/><path d="m62.575 34.985c-3.29 0-6.12 1.05-7.37 2.55a12.655 12.655 0 0 1 5.36-1.09c4.358 0 7.9 1.844 8.064 4.149v1.555a3.552 3.552 0 0 0 2.016-2.854c0-2.38-3.61-4.31-8.07-4.31z" fill="#f7be56"/><path d="m70.83 39.17v4.78c0 1.18-.88 2.24-2.31 3.02v-4.77c1.43-.79 2.31-1.85 2.31-3.03z" fill="#f7be56"/><path d="m70.83 43.95v4.77c0 1.18-.88 2.24-2.31 3.02v-4.77c1.43-.78 2.31-1.84 2.31-3.02z" fill="#f7be56"/><path d="m70.83 48.72v4.77c0 2.38-3.61 4.32-8.07 4.32-.39 0-.77-.02-1.15-.05 3.91-.3 6.91-2.1 6.91-4.27v-1.75c1.43-.78 2.31-1.84 2.31-3.02z" fill="#f7be56"/><path d="m62.56 41.577v-.348a4.642 4.642 0 0 1 -1.644-.292l.258-.445a4.222 4.222 0 0 0 1.548.285c.763 0 1.279-.272 1.279-.651s-.419-.591-1.215-.79c-1.1-.265-1.773-.571-1.773-1.149 0-.551.634-.969 1.623-1.069v-.348h.664v.321a4.283 4.283 0 0 1 1.4.232l-.269.438a3.859 3.859 0 0 0 -1.354-.226c-.828 0-1.139.305-1.139.571 0 .345.4.518 1.333.757 1.107.279 1.666.624 1.666 1.215 0 .525-.591 1.016-1.7 1.129v.368z" fill="#323c6b"/><path d="m63.32 58.307h-52.079a3.4 3.4 0 0 1 -3.4-3.4v-31.528a3.4 3.4 0 0 1 3.4-3.4h52.079a3.4 3.4 0 0 1 3.4 3.4v11.856a.5.5 0 0 1 -1 0v-11.856a2.4 2.4 0 0 0 -2.4-2.4h-52.079a2.4 2.4 0 0 0 -2.4 2.4v31.528a2.4 2.4 0 0 0 2.4 2.4h52.079a.5.5 0 0 1 0 1z" fill="#323c6b"/><path d="m62.93 43.99c-4.811 0-8.58-2.117-8.58-4.82s3.769-4.81 8.58-4.81 8.57 2.113 8.57 4.81-3.764 4.82-8.57 4.82zm0-8.63c-4.109 0-7.58 1.745-7.58 3.81s3.471 3.82 7.58 3.82 7.57-1.75 7.57-3.82-3.467-3.81-7.57-3.81z" fill="#323c6b"/><path d="m62.93 48.76c-4.811 0-8.58-2.113-8.58-4.81v-4.78a.5.5 0 1 1 1 0c0 2.071 3.471 3.82 7.58 3.82s7.57-1.75 7.57-3.82a.5.5 0 0 1 1 0v4.78c0 2.697-3.764 4.81-8.57 4.81zm-7.58-7.3v2.49c0 2.065 3.471 3.81 7.58 3.81s7.57-1.745 7.57-3.81v-2.485c-1.429 1.516-4.251 2.525-7.57 2.525s-6.15-1.011-7.58-2.527z" fill="#323c6b"/><path d="m62.93 53.53c-4.811 0-8.58-2.113-8.58-4.81v-4.77a.5.5 0 0 1 1 0c0 2.065 3.471 3.81 7.58 3.81s7.57-1.745 7.57-3.81a.5.5 0 0 1 1 0v4.77c0 2.697-3.764 4.81-8.57 4.81zm-7.58-7.291v2.481c0 2.065 3.471 3.81 7.58 3.81s7.57-1.745 7.57-3.81v-2.48c-1.429 1.512-4.251 2.52-7.57 2.52s-6.15-1.009-7.58-2.521z" fill="#323c6b"/><path d="m62.93 58.31c-4.811 0-8.58-2.117-8.58-4.82v-4.77a.5.5 0 0 1 1 0c0 2.065 3.471 3.81 7.58 3.81s7.57-1.745 7.57-3.81a.5.5 0 0 1 1 0v4.77c0 2.703-3.764 4.82-8.57 4.82zm-7.58-7.3v2.48c0 2.07 3.471 3.82 7.58 3.82s7.57-1.75 7.57-3.82v-2.48c-1.429 1.512-4.251 2.52-7.57 2.52s-6.15-1.009-7.58-2.522z" fill="#323c6b"/><path d="m46.342 50.9h-9.131a.583.583 0 0 1 0-1.165h9.131a.583.583 0 0 1 0 1.165z" fill="#fff"/><path d="m34.578 50.9h-1.12a.583.583 0 0 1 0-1.165h1.12a.583.583 0 0 1 0 1.165z" fill="#fff"/></svg>