<svg id="color_line" height="512" viewBox="0 0 74 74" width="512" xmlns="http://www.w3.org/2000/svg" data-name="color line"><path d="m39.821 39.277 24.162-5.168-3.809-17.849-27.234 5.821 2.793 13.055" fill="#eeefee"/><path d="m35.731 35.637a.5.5 0 0 1 -.488-.4l-3.063-14.328a.5.5 0 1 1 .978-.209l3.062 14.332a.5.5 0 0 1 -.384.593.483.483 0 0 1 -.105.012z" fill="#323c6b"/><path d="m35.733 35.136-2.151-10.059-19.23 4.11 2.537 11.856 15.283-3.262" fill="#eeefee"/><path d="m17.271 43.349a.5.5 0 0 1 -.488-.4l-3.307-15.467a.5.5 0 0 1 .978-.209l3.306 15.471a.5.5 0 0 1 -.384.593.483.483 0 0 1 -.105.012z" fill="#323c6b"/><path d="m3.955 32.311h11.794v8.07h-11.794z" fill="#eeefee" transform="matrix(.978 -.209 .209 .978 -7.379 2.862)"/><path d="m63.98 34.11-.08.02-3.181-15.036-27.15 5.8-.629-2.814 27.23-5.82z" fill="#e1e6e9"/><path d="m35.73 35.14-.07.04-1.531-7.276-19.15 4.09-.149-.544-.06-.28-.42-1.98 19.16-4.09.07-.02z" fill="#e1e6e9"/><path d="m16.46 39.06-.07.02-1.2-5.63.129.544-11.45 2.45-.629-2.814 11.53-2.46.06.28z" fill="#e1e6e9"/><path d="m35.73 35.14-.07.04-1.67-7.82-.48-2.26-.16-.73.08-.02.15.73z" fill="#d5d6db"/><path d="m16.46 39.06-.07.02-1.2-5.63h-.01l-.42-1.98.07-.02h.01z" fill="#d5d6db"/><path d="m6.873 43.817a.5.5 0 0 1 -.1-.989l.467-.1a.5.5 0 1 1 .209.978l-.467.1a.483.483 0 0 1 -.109.011z" fill="#323c6b"/><path d="m9.28 43.3a.5.5 0 0 1 -.1-.989l5.236-1.119a.5.5 0 1 1 .209.978l-5.24 1.121a.483.483 0 0 1 -.105.009z" fill="#323c6b"/><path d="m5.169 43.153a.5.5 0 0 1 -.488-.4l-2.17-10.146a.5.5 0 0 1 .978-.209l2.169 10.15a.5.5 0 0 1 -.384.593.483.483 0 0 1 -.105.012z" fill="#323c6b"/><circle cx="19.225" cy="12.652" fill="#fcd462" r="8.152"/><path d="m27.005 12.983a8.167 8.167 0 0 1 -3.27 6.54 8.155 8.155 0 0 0 -11.335-11.51 8.151 8.151 0 0 1 14.61 4.97z" fill="#f7be56"/><g fill="#323c6b"><path d="m18.792 17.26v-.667a3.708 3.708 0 0 1 -1.948-.56l.305-.853a3.392 3.392 0 0 0 1.833.547c.9 0 1.515-.522 1.515-1.248 0-.7-.5-1.133-1.439-1.515-1.3-.509-2.1-1.095-2.1-2.2a2.089 2.089 0 0 1 1.923-2.05v-.669h.789v.615a3.4 3.4 0 0 1 1.656.446l-.318.84a3.077 3.077 0 0 0 -1.6-.433c-.981 0-1.35.586-1.35 1.095 0 .662.471.993 1.579 1.451 1.311.535 1.973 1.2 1.973 2.33a2.215 2.215 0 0 1 -2.012 2.165v.705z"/><path d="m40.609 17.919a.5.5 0 0 1 -.1-.989l.958-.2a.5.5 0 1 1 .209.978l-.958.2a.483.483 0 0 1 -.109.011z"/><path d="m43.859 17.225a.5.5 0 0 1 -.106-.988l8.417-1.845a.5.5 0 1 1 .214.977l-8.417 1.845a.506.506 0 0 1 -.108.011z"/><path d="m39.82 39.777a.5.5 0 0 1 -.1-.989l23.67-5.063-3.6-16.871-26.256 5.611 2.688 12.566a.5.5 0 0 1 -.978.209l-2.793-13.054a.5.5 0 0 1 .384-.593l27.233-5.821a.49.49 0 0 1 .376.069.5.5 0 0 1 .217.315l3.811 17.844a.5.5 0 0 1 -.384.593l-24.163 5.173a.483.483 0 0 1 -.105.011z"/><path d="m16.888 41.543a.5.5 0 0 1 -.488-.4l-2.536-11.852a.5.5 0 0 1 .384-.593l19.229-4.109a.5.5 0 0 1 .593.384l2.151 10.059a.5.5 0 0 1 -.978.209l-2.043-9.57-18.251 3.9 2.324 10.879 14.794-3.157a.5.5 0 0 1 .209.978l-15.283 3.261a.483.483 0 0 1 -.105.011z"/><path d="m4.928 42.024a.5.5 0 0 1 -.488-.4l-1.688-7.887a.5.5 0 0 1 .384-.593l11.534-2.466a.5.5 0 0 1 .593.384l1.687 7.892a.5.5 0 0 1 -.384.593l-11.533 2.466a.483.483 0 0 1 -.105.011zm-1.094-8.007 1.478 6.914 10.556-2.256-1.477-6.915z"/></g><path d="m64.282 36.742-4.921-23.024a1.207 1.207 0 0 1 .913-1.43l5.01-1.138a1.207 1.207 0 0 1 1.448.925l4.921 23.025a1.207 1.207 0 0 1 -.913 1.43l-5.01 1.138a1.207 1.207 0 0 1 -1.448-.926z" fill="#9297ab"/><path d="m59.762 14.688 3.521-.785a1.47 1.47 0 0 1 1.74 1.13l4.69 21.93.66-.15a1.482 1.482 0 0 0 1.14-1.75l-4.83-22.59a1.48 1.48 0 0 0 -1.75-1.13l-4.49 1.05a1.215 1.215 0 0 0 -.272.108 1.507 1.507 0 0 0 -.409 2.187z" fill="#84879c"/><path d="m65.672 38.2a1.971 1.971 0 0 1 -1.923-1.56l-4.829-22.591a1.971 1.971 0 0 1 1.516-2.34l4.479-1.045a1.972 1.972 0 0 1 2.349 1.514l4.829 22.592a1.971 1.971 0 0 1 -1.511 2.339l-4.482 1.046a2.014 2.014 0 0 1 -.428.045zm-.333-26.583a.976.976 0 0 0 -.205.021l-4.48 1.046a.972.972 0 0 0 -.754 1.156l4.829 22.592a.972.972 0 0 0 1.153.748l4.48-1.046h.01a.971.971 0 0 0 .747-1.153l-4.831-22.595a.973.973 0 0 0 -.948-.769z" fill="#323c6b"/><path d="m19.225 21.3a8.652 8.652 0 1 1 8.652-8.652 8.662 8.662 0 0 1 -8.652 8.652zm0-16.3a7.652 7.652 0 1 0 7.652 7.652 7.661 7.661 0 0 0 -7.652-7.652z" fill="#323c6b"/><circle cx="36.23" cy="38.101" fill="#d5d6db" r="4.569"/><path d="m36.23 43.17a5.069 5.069 0 1 1 5.07-5.07 5.075 5.075 0 0 1 -5.07 5.07zm0-9.138a4.069 4.069 0 1 0 4.07 4.068 4.073 4.073 0 0 0 -4.07-4.068z" fill="#323c6b"/><path d="m24.853 67.92-2.207-1.174 9.01-16.938a1.25 1.25 0 0 1 1.1-.663h6.944a1.25 1.25 0 0 1 1.1.663l9.01 16.938-2.203 1.174-8.657-16.275h-5.439z" fill="#9297ab"/><path d="m47.607 68.42a.5.5 0 0 1 -.442-.265l-8.516-16.009h-4.838l-8.517 16.009a.5.5 0 0 1 -.676.207l-2.207-1.174a.5.5 0 0 1 -.207-.676l9.01-16.937a1.746 1.746 0 0 1 1.545-.928h6.941a1.746 1.746 0 0 1 1.545.929l9.01 16.937a.5.5 0 0 1 -.207.676l-2.207 1.174a.5.5 0 0 1 -.234.057zm-24.285-1.88 1.324.7 8.423-15.833a.5.5 0 0 1 .441-.265h5.44a.5.5 0 0 1 .441.265l8.422 15.833 1.324-.7-8.775-16.5a.748.748 0 0 0 -.662-.4h-6.94a.749.749 0 0 0 -.662.4z" fill="#323c6b"/><path d="m34.98 42.67h2.5v6.475h-2.5z" fill="#9297ab"/><path d="m37.48 49.646h-2.5a.5.5 0 0 1 -.5-.5v-6.476a.5.5 0 0 1 .5-.5h2.5a.5.5 0 0 1 .5.5v6.475a.5.5 0 0 1 -.5.501zm-2-1h1.5v-5.476h-1.5z" fill="#323c6b"/><path d="m34.98 51.645h2.5v16.274h-2.5z" fill="#9297ab"/><path d="m37.48 68.42h-2.5a.5.5 0 0 1 -.5-.5v-16.274a.5.5 0 0 1 .5-.5h2.5a.5.5 0 0 1 .5.5v16.274a.5.5 0 0 1 -.5.5zm-2-1h1.5v-15.274h-1.5z" fill="#323c6b"/></svg>