<svg id="color_line" height="512" viewBox="0 0 74 74" width="512" xmlns="http://www.w3.org/2000/svg" data-name="color line"><path d="m9 62.323v3.627a1.273 1.273 0 0 0 1.273 1.273h5.92a1.273 1.273 0 0 0 1.273-1.273v-3.627z" fill="#9297ab"/><path d="m16.193 67.723h-5.92a1.775 1.775 0 0 1 -1.773-1.774v-3.626a.5.5 0 0 1 .5-.5h8.466a.5.5 0 0 1 .5.5v3.626a1.775 1.775 0 0 1 -1.773 1.774zm-6.693-4.9v3.126a.775.775 0 0 0 .773.773h5.919a.774.774 0 0 0 .773-.773v-3.126z" fill="#323c6b"/><path d="m56.534 62.323v3.627a1.273 1.273 0 0 0 1.273 1.273h5.92a1.273 1.273 0 0 0 1.273-1.274v-3.626z" fill="#9297ab"/><path d="m63.727 67.723h-5.92a1.775 1.775 0 0 1 -1.773-1.773v-3.627a.5.5 0 0 1 .5-.5h8.466a.5.5 0 0 1 .5.5v3.626a1.775 1.775 0 0 1 -1.773 1.774zm-6.692-4.9v3.126a.774.774 0 0 0 .773.773h5.919a.775.775 0 0 0 .773-.773v-3.126z" fill="#323c6b"/><rect fill="#e1e6e9" height="56.243" rx="5.342" width="68" x="3" y="6.317"/><path d="m70.67 12.1v45.56a5.345 5.345 0 0 1 -3.75 5.1 5.338 5.338 0 0 0 .66-2.57v-45.562a5.348 5.348 0 0 0 -5.35-5.34h-57.31a5.281 5.281 0 0 0 -1.59.24 5.325 5.325 0 0 1 4.68-2.77h57.32a5.339 5.339 0 0 1 5.34 5.342z" fill="#d5d6db"/><path d="m62.33 48.822v3.328a2.749 2.749 0 0 1 -2.752 2.75h-43.727a3.792 3.792 0 0 1 -3.791-3.791v-34.4a3.794 3.794 0 0 1 3.791-3.8h43.727a2.756 2.756 0 0 1 2.753 2.753v33.16z" fill="#e1e6e9"/><path d="m59.578 55.4h-43.727a4.3 4.3 0 0 1 -4.291-4.291v-34.4a4.3 4.3 0 0 1 4.291-4.3h43.727a3.256 3.256 0 0 1 3.252 3.253v36.487a3.256 3.256 0 0 1 -3.252 3.251zm-43.727-41.987a3.3 3.3 0 0 0 -3.291 3.3v34.4a3.294 3.294 0 0 0 3.291 3.287h43.727a2.255 2.255 0 0 0 2.252-2.253v-36.481a2.255 2.255 0 0 0 -2.252-2.253z" fill="#323c6b"/><path d="m34.5 36.532a8.749 8.749 0 1 1 .04-5.114l-3.328.241a5.532 5.532 0 1 0 -.068 4.648z" fill="#fcd462"/><path d="m26.157 43.155a9.248 9.248 0 1 1 8.864-11.88.5.5 0 0 1 -.443.641l-3.328.242a.489.489 0 0 1 -.494-.3 5.033 5.033 0 1 0 -.062 4.23.522.522 0 0 1 .484-.283l3.357.225a.5.5 0 0 1 .444.649 9.21 9.21 0 0 1 -8.822 6.476zm0-17.5a8.248 8.248 0 1 0 7.651 11.327l-2.37-.158a5.972 5.972 0 0 1 -5.282 3.113 6.034 6.034 0 1 1 5.36-8.806l2.344-.17a8.189 8.189 0 0 0 -7.703-5.301z" fill="#323c6b"/><path d="m48.125 33.923a3.365 3.365 0 0 1 -3.635 3.354l-15.619-1.289a2 2 0 0 1 -1.842-2 2 2 0 0 1 1.825-2l15.608-1.421a3.365 3.365 0 0 1 3.663 3.351z" fill="#fcd462"/><g fill="#323c6b"><path d="m44.758 37.787c-.1 0-.206 0-.309-.012l-15.619-1.289a2.519 2.519 0 0 1 -2.3-2.5 2.492 2.492 0 0 1 2.28-2.5l15.607-1.421a3.865 3.865 0 1 1 .342 7.714zm.011-6.729c-.087 0-.175 0-.263.012l-15.606 1.421a1.5 1.5 0 0 0 -1.371 1.5 1.513 1.513 0 0 0 1.382 1.5l15.619 1.289a2.865 2.865 0 1 0 .238-5.72z"/><path d="m45.667 66.06h-9.573a.5.5 0 0 1 0-1h9.573a.5.5 0 0 1 0 1z"/><path d="m33.906 66.06h-.844a.5.5 0 0 1 0-1h.844a.5.5 0 0 1 0 1z"/><path d="m.616 8.875a.493.493 0 0 1 -.19-.038.5.5 0 0 1 -.272-.652 8.6 8.6 0 0 1 7.981-5.368h.531a.5.5 0 0 1 0 1h-.531a7.609 7.609 0 0 0 -7.056 4.748.5.5 0 0 1 -.463.31z"/><path d="m11.583 3.817h-.437a.5.5 0 0 1 0-1h.438a.5.5 0 0 1 0 1z"/></g><rect fill="#9297ab" height="9.986" rx=".917" width="4.279" x="60.191" y="17.75"/><path d="m63.553 28.236h-2.446a1.418 1.418 0 0 1 -1.417-1.417v-8.152a1.418 1.418 0 0 1 1.417-1.417h2.446a1.418 1.418 0 0 1 1.417 1.417v8.152a1.418 1.418 0 0 1 -1.417 1.417zm-2.446-9.986a.417.417 0 0 0 -.417.417v8.152a.417.417 0 0 0 .417.417h2.446a.417.417 0 0 0 .417-.417v-8.152a.417.417 0 0 0 -.417-.417z" fill="#323c6b"/><rect fill="#9297ab" height="9.986" rx=".917" width="4.279" x="60.191" y="40.083"/><path d="m63.553 50.569h-2.446a1.418 1.418 0 0 1 -1.417-1.417v-8.152a1.418 1.418 0 0 1 1.417-1.417h2.446a1.418 1.418 0 0 1 1.417 1.417v8.152a1.418 1.418 0 0 1 -1.417 1.417zm-2.446-9.986a.417.417 0 0 0 -.417.417v8.152a.417.417 0 0 0 .417.417h2.446a.417.417 0 0 0 .417-.417v-8.152a.417.417 0 0 0 -.417-.417z" fill="#323c6b"/><path d="m65.658 63.06h-57.316a5.848 5.848 0 0 1 -5.842-5.842v-45.56a5.848 5.848 0 0 1 5.842-5.841h57.316a5.848 5.848 0 0 1 5.842 5.841v45.56a5.848 5.848 0 0 1 -5.842 5.842zm-57.316-56.243a4.847 4.847 0 0 0 -4.842 4.841v45.56a4.847 4.847 0 0 0 4.842 4.842h57.316a4.847 4.847 0 0 0 4.842-4.842v-45.56a4.847 4.847 0 0 0 -4.842-4.841z" fill="#323c6b"/></svg>