<svg id="color_line" height="512" viewBox="0 0 74 74" width="512" xmlns="http://www.w3.org/2000/svg" data-name="color line"><path d="m17.556 34.627h-10.512a3.535 3.535 0 0 1 -3.535-3.535v-18.548a3.535 3.535 0 0 1 3.535-3.535h59.956a3.535 3.535 0 0 1 3.535 3.535v18.548a3.535 3.535 0 0 1 -3.535 3.535h-8.731" fill="#9297ab"/><path d="m70.279 12.956v18.553a3.526 3.526 0 0 1 -3.351 3.524 2.741 2.741 0 0 0 .03-.406v-18.553a3.536 3.536 0 0 0 -3.534-3.534h-59.955a1.1 1.1 0 0 0 -.183.01 3.521 3.521 0 0 1 3.5-3.128h59.959a3.536 3.536 0 0 1 3.534 3.534z" fill="#84879c"/><path d="m17.556 25.917h-6.707v-7.378h52.344v7.378h-4.924" fill="#e1e6e9"/><path d="m63.193 26.417h-4.923a.5.5 0 0 1 0-1h4.424v-6.378h-51.345v6.378h6.208a.5.5 0 0 1 0 1h-6.708a.5.5 0 0 1 -.5-.5v-7.378a.5.5 0 0 1 .5-.5h52.344a.5.5 0 0 1 .5.5v7.378a.5.5 0 0 1 -.5.5z" fill="#323c6b"/><path d="m17.556 18.539v43.742a3.673 3.673 0 0 0 3.673 3.673h33.371a3.673 3.673 0 0 0 3.673-3.673v-43.742z" fill="#27ccbc"/><path d="m57.956 18.267v43.733a3.673 3.673 0 0 1 -3.666 3.676h-33.37a3.67 3.67 0 0 1 -3.636-3.168 3.549 3.549 0 0 0 .66.061h33.37a3.673 3.673 0 0 0 3.666-3.669v-40.633z" fill="#21b3a9"/><path d="m23.764 18.539v34.674a6.533 6.533 0 0 1 6.536 6.532h15.229a6.533 6.533 0 0 1 6.533-6.533v-34.673z" fill="#ebf0f3"/><path d="m45.528 60.246h-15.228a.5.5 0 0 1 -.5-.5 6.039 6.039 0 0 0 -6.032-6.033.5.5 0 0 1 -.5-.5v-34.674a.5.5 0 0 1 .5-.5h28.3a.5.5 0 0 1 .5.5v34.674a.5.5 0 0 1 -.5.5 6.039 6.039 0 0 0 -6.033 6.033.5.5 0 0 1 -.507.5zm-14.749-1h14.267a7.043 7.043 0 0 1 6.516-6.515v-33.692h-27.3v33.691a7.043 7.043 0 0 1 6.517 6.516z" fill="#323c6b"/><circle cx="37.913" cy="33.88" fill="#27ccbc" r="9.771"/><path d="m37.913 44.15a10.271 10.271 0 1 1 10.271-10.271 10.283 10.283 0 0 1 -10.271 10.271zm0-19.542a9.271 9.271 0 1 0 9.271 9.271 9.281 9.281 0 0 0 -9.271-9.27z" fill="#323c6b"/><path d="m32.178 33.341h.83a4.616 4.616 0 0 1 .7-2.425l1.062.38a4.222 4.222 0 0 0 -.681 2.282c0 1.125.65 1.886 1.553 1.886.872 0 1.41-.618 1.886-1.791.634-1.616 1.363-2.614 2.741-2.614a2.6 2.6 0 0 1 2.552 2.393h.83v.982h-.767a4.227 4.227 0 0 1 -.555 2.061l-1.046-.4a3.83 3.83 0 0 0 .539-2c0-1.221-.729-1.68-1.363-1.68-.824 0-1.236.586-1.807 1.965-.666 1.632-1.49 2.456-2.9 2.456a2.757 2.757 0 0 1 -2.694-2.5h-.878z" fill="#323c6b"/><circle cx="37.913" cy="51.121" fill="#27ccbc" r="2.639"/><g fill="#323c6b"><path d="m37.913 54.259a3.139 3.139 0 1 1 3.139-3.139 3.142 3.142 0 0 1 -3.139 3.139zm0-5.277a2.139 2.139 0 1 0 2.139 2.139 2.141 2.141 0 0 0 -2.139-2.139z"/><path d="m.781 11.028a.507.507 0 0 1 -.153-.028.5.5 0 0 1 -.322-.629 7.064 7.064 0 0 1 6.739-4.909h2.05a.5.5 0 0 1 0 1h-2.05a6.067 6.067 0 0 0 -5.788 4.219.5.5 0 0 1 -.476.347z"/><path d="m12.564 6.462h-.974a.5.5 0 0 1 0-1h.974a.5.5 0 0 1 0 1z"/><path d="m54.6 69.5a.5.5 0 0 1 0-1 6.227 6.227 0 0 0 6.22-6.219v-.851a.5.5 0 0 1 1 0v.851a7.228 7.228 0 0 1 -7.22 7.219z"/><path d="m61.315 59.053a.5.5 0 0 1 -.5-.5v-.846a.5.5 0 0 1 1 0v.846a.5.5 0 0 1 -.5.5z"/><path d="m67 35.127h-8.73a.5.5 0 0 1 0-1h8.73a3.038 3.038 0 0 0 3.035-3.035v-18.548a3.038 3.038 0 0 0 -3.035-3.035h-59.955a3.039 3.039 0 0 0 -3.036 3.035v18.548a3.039 3.039 0 0 0 3.036 3.035h10.512a.5.5 0 0 1 0 1h-10.512a4.04 4.04 0 0 1 -4.036-4.035v-18.548a4.04 4.04 0 0 1 4.036-4.035h59.955a4.04 4.04 0 0 1 4.035 4.035v18.548a4.04 4.04 0 0 1 -4.035 4.035z"/><path d="m54.6 66.454h-33.371a4.178 4.178 0 0 1 -4.173-4.173v-43.742a.5.5 0 0 1 .5-.5h40.714a.5.5 0 0 1 .5.5v43.742a4.178 4.178 0 0 1 -4.17 4.173zm-36.543-47.415v43.242a3.176 3.176 0 0 0 3.173 3.173h33.37a3.176 3.176 0 0 0 3.173-3.173v-43.242z"/></g><path d="m20.582 43.853a.66.66 0 0 1 -.66-.66v-9.11a.66.66 0 0 1 1.321 0v9.11a.66.66 0 0 1 -.661.66z" fill="#fff"/><path d="m20.582 47.492a.66.66 0 0 1 -.66-.66v-.973a.66.66 0 0 1 1.321 0v.973a.66.66 0 0 1 -.661.66z" fill="#fff"/></svg>