<svg id="color_line" height="512" viewBox="0 0 74 74" width="512" xmlns="http://www.w3.org/2000/svg" data-name="color line"><path d="m68.128 50.687a34.014 34.014 0 1 0 -16.574 17.036" fill="#89c5cd"/><path d="m67.62 38.872a33.906 33.906 0 0 1 -2.451 12.667h2.117l.464-.477a34 34 0 0 0 -47.76-43.34 34 34 0 0 1 47.63 31.15z" fill="#6eaaad"/><path d="m37 22.956a34.281 34.281 0 0 1 -24.152-9.867.5.5 0 0 1 .7-.714 33.284 33.284 0 0 0 23.452 9.581 33.24 33.24 0 0 0 23.451-9.58.5.5 0 0 1 .7.713 34.234 34.234 0 0 1 -24.151 9.867z" fill="#323c6b"/><path d="m37 71.5a.5.5 0 0 1 -.5-.5v-68a.5.5 0 1 1 1 0v68a.5.5 0 0 1 -.5.5z" fill="#323c6b"/><path d="m71 37.5h-68a.5.5 0 0 1 0-1h68a.5.5 0 0 1 0 1z" fill="#323c6b"/><path d="m51.52 67.862a34.106 34.106 0 0 0 -2.82-2.752 10.53 10.53 0 0 1 -1.895-3.036 12.825 12.825 0 0 1 -.552-7.455c1.183-5.474 4.954-7.947 9.72-9.744-.331-.027-.662-.051-1-.051a12.2 12.2 0 0 0 -4.283 23.627 1.507 1.507 0 0 1 .83-.589z" fill="#6eaaad"/><g fill="#323c6b"><path d="m7.717 60.083a.5.5 0 0 1 -.4-.2q-.35-.459-.689-.927a.5.5 0 0 1 .811-.587c.221.305.444.607.674.907a.5.5 0 0 1 -.4.8z"/><path d="m5.02 56.083a.5.5 0 0 1 -.432-.248 37.29 37.29 0 0 1 -3.946-9.713.5.5 0 0 1 .971-.244 36.284 36.284 0 0 0 3.839 9.454.5.5 0 0 1 -.432.752z"/><path d="m70.619 22.083a.5.5 0 0 1 -.454-.291 36.643 36.643 0 0 0 -6.776-9.965.5.5 0 1 1 .723-.69 37.614 37.614 0 0 1 6.962 10.237.5.5 0 0 1 -.454.709z"/><path d="m61.875 10.333a.5.5 0 0 1 -.325-.12c-.36-.309-.729-.609-1.1-.9a.5.5 0 0 1 .621-.784c.383.3.762.612 1.132.929a.5.5 0 0 1 -.325.88z"/><path d="m37 71.495a34.495 34.495 0 1 1 34.5-34.495 34.163 34.163 0 0 1 -2.915 13.884.5.5 0 1 1 -.914-.4 33.19 33.19 0 0 0 2.829-13.484 33.5 33.5 0 1 0 -33.5 33.495 33.058 33.058 0 0 0 14.339-3.223.5.5 0 1 1 .43.9 34.043 34.043 0 0 1 -14.769 3.323z"/><path d="m13.2 61.774a.5.5 0 0 1 -.351-.856 34.239 34.239 0 0 1 24.151-9.879 34.616 34.616 0 0 1 9.57 1.341.5.5 0 0 1 -.277.961 33.6 33.6 0 0 0 -9.293-1.302 33.246 33.246 0 0 0 -23.451 9.592.5.5 0 0 1 -.349.143z"/><path d="m37 71.5c-10.567 0-19.166-15.479-19.166-34.5s8.599-34.5 19.166-34.5 19.168 15.479 19.168 34.5a61.478 61.478 0 0 1 -.571 8.411.5.5 0 0 1 -.99-.138 60.552 60.552 0 0 0 .561-8.273c0-18.47-8.149-33.5-18.168-33.5s-18.166 15.03-18.166 33.5 8.149 33.5 18.166 33.5c3.821 0 7.485-2.186 10.6-6.321a.5.5 0 0 1 .8.6c-3.311 4.394-7.251 6.721-11.4 6.721z"/></g><path d="m21.779 41.372a.65.65 0 0 1 -.648-.619q-.04-.828-.055-1.646a.649.649 0 0 1 .637-.663.639.639 0 0 1 .662.637q.016.8.055 1.61a.65.65 0 0 1 -.618.681z" fill="#fff"/><path d="m21.813 35.334h-.04a.65.65 0 0 1 -.609-.688 45.484 45.484 0 0 1 1.806-10.5.65.65 0 0 1 1.244.379 44.229 44.229 0 0 0 -1.753 10.2.649.649 0 0 1 -.648.609z" fill="#fff"/><circle cx="57.827" cy="57.243" fill="#fcd462" r="12.209"/><path d="m57.826 69.951a12.708 12.708 0 1 1 12.709-12.708 12.723 12.723 0 0 1 -12.709 12.708zm0-24.417a11.708 11.708 0 1 0 11.709 11.709 11.721 11.721 0 0 0 -11.709-11.709z" fill="#323c6b"/><path d="m64.3 63.759a8.915 8.915 0 0 0 1.09-4.3 9.044 9.044 0 0 0 -15.51-6.31 9.037 9.037 0 1 1 14.42 10.61z" fill="#f7be56"/><path d="m60.466 61.774h-5.086a.5.5 0 0 1 -.3-.9 1.67 1.67 0 0 0 .663-1.192l.425-5.421a2.151 2.151 0 0 1 4.294.18v.227a.5.5 0 0 1 -1 0v-.228a1.151 1.151 0 0 0 -2.3-.1l-.425 5.421a2.673 2.673 0 0 1 -.294 1.011h4.021a.5.5 0 0 1 0 1z" fill="#323c6b"/><path d="m57.9 57.88h-2.712a.5.5 0 0 1 0-1h2.712a.5.5 0 0 1 0 1z" fill="#323c6b"/><path d="m57.826 66.777a9.534 9.534 0 1 1 9.534-9.534 9.545 9.545 0 0 1 -9.534 9.534zm0-18.068a8.534 8.534 0 1 0 8.534 8.534 8.544 8.544 0 0 0 -8.534-8.535z" fill="#323c6b"/></svg>