<svg id="color_line" height="512" viewBox="0 0 74 74" width="512" xmlns="http://www.w3.org/2000/svg" data-name="color line"><rect fill="#e1e6e9" height="68" rx="3.91" width="42.5" x="11.463" y="3.578"/><path d="m53.885 7.646v60.18a3.882 3.882 0 0 1 -2.65 3.69 3.52 3.52 0 0 0 .15-1.03v-60.18a3.909 3.909 0 0 0 -3.91-3.91h-34.68a3.556 3.556 0 0 0 -1.26.22 3.888 3.888 0 0 1 3.76-2.88h34.68a3.909 3.909 0 0 1 3.91 3.91z" fill="#d5d6db"/><path d="m16.463 13.748h32.5v45.83h-32.5z" fill="#89c5cd"/><path d="m48.96 13.75v45.83h-2.75v-43.05h-29.75v-2.78z" fill="#6eaaad"/><path d="m34.588 63.557h-3.75a1.833 1.833 0 0 0 0 3.667h3.75a1.833 1.833 0 0 0 0-3.667z" fill="#84879c"/><path d="m34.588 67.724h-3.75a2.333 2.333 0 0 1 0-4.667h3.75a2.333 2.333 0 1 1 0 4.667zm-3.75-3.667a1.333 1.333 0 0 0 0 2.667h3.75a1.333 1.333 0 1 0 0-2.667z" fill="#323c6b"/><path d="m28.127 9.328h-1a.5.5 0 1 1 0-1h1a.5.5 0 1 1 0 1z" fill="#323c6b"/><path d="m33.212 9.328h-1a.5.5 0 0 1 0-1h1a.5.5 0 0 1 0 1z" fill="#323c6b"/><path d="m38.3 9.328h-1a.5.5 0 0 1 0-1h1a.5.5 0 0 1 0 1z" fill="#323c6b"/><circle cx="32.715" cy="25.652" fill="#fcd462" r="5.402"/><path d="m44.478 43.141h-23.529c.712-7.44 3.718-8.89 8.595-10.241a5.372 5.372 0 0 0 6.35 0c4.866 1.35 7.873 2.8 8.584 10.241z" fill="#fcd462"/><path d="m37.995 25.892a5.355 5.355 0 0 1 -2.24 4.37 5.222 5.222 0 0 0 .74-2.71 5.405 5.405 0 0 0 -5.41-5.4 5.333 5.333 0 0 0 -3.16 1.03 5.4 5.4 0 0 1 10.07 2.71z" fill="#f7be56"/><path d="m35.546 33.142a5.249 5.249 0 0 1 -1.831.849v.032c4.577 1.269 7.494 2.978 8.4 9.36h2.02c-.709-7.44-3.719-8.891-8.589-10.241z" fill="#f7be56"/><g fill="#323c6b"><path d="m39.93 53.245a.5.5 0 0 1 -.5-.5v-3.583a.5.5 0 0 1 1 0v3.583a.5.5 0 0 1 -.5.5z"/><path d="m25.5 53.245a.5.5 0 0 1 -.5-.5v-3.583a.5.5 0 0 1 1 0v3.583a.5.5 0 0 1 -.5.5z"/><path d="m23.981 52.287a.5.5 0 0 1 -.25-.933l3.1-1.792a.5.5 0 0 1 .5.866l-3.1 1.792a.5.5 0 0 1 -.25.067z"/><path d="m27.013 52.287a.5.5 0 0 1 -.25-.067l-3.1-1.792a.5.5 0 0 1 .5-.866l3.1 1.792a.5.5 0 0 1 -.25.933z"/><path d="m32.713 53.245a.5.5 0 0 1 -.5-.5v-3.583a.5.5 0 0 1 1 0v3.583a.5.5 0 0 1 -.5.5z"/><path d="m31.2 52.287a.5.5 0 0 1 -.25-.933l3.1-1.792a.5.5 0 0 1 .5.866l-3.1 1.792a.5.5 0 0 1 -.25.067z"/><path d="m34.229 52.287a.5.5 0 0 1 -.25-.067l-3.1-1.792a.5.5 0 0 1 .5-.866l3.1 1.792a.5.5 0 0 1 -.25.933z"/><path d="m38.414 52.287a.5.5 0 0 1 -.25-.933l3.1-1.792a.5.5 0 0 1 .5.866l-3.1 1.792a.5.5 0 0 1 -.25.067z"/><path d="m41.445 52.287a.5.5 0 0 1 -.25-.067l-3.1-1.792a.5.5 0 0 1 .5-.866l3.1 1.792a.5.5 0 0 1 -.25.933z"/><path d="m8.463 11.521a.5.5 0 0 1 -.5-.5v-.6a.5.5 0 0 1 1 0v.6a.5.5 0 0 1 -.5.5z"/><path d="m8.463 8.625a.5.5 0 0 1 -.5-.5v-.637a7.419 7.419 0 0 1 7.41-7.41.5.5 0 0 1 0 1 6.418 6.418 0 0 0 -6.41 6.41v.637a.5.5 0 0 1 -.5.5z"/><path d="m56.963 33.938a.5.5 0 0 1 -.5-.5v-1a.5.5 0 0 1 1 0v1a.5.5 0 0 1 -.5.5z"/><path d="m56.963 46.75a.5.5 0 0 1 -.5-.5v-10.062a.5.5 0 0 1 1 0v10.062a.5.5 0 0 1 -.5.5z"/><path d="m50.054 72.078h-34.681a4.415 4.415 0 0 1 -4.41-4.41v-60.18a4.415 4.415 0 0 1 4.41-4.41h34.681a4.414 4.414 0 0 1 4.409 4.41v60.18a4.414 4.414 0 0 1 -4.409 4.41zm-34.681-68a3.414 3.414 0 0 0 -3.41 3.41v60.18a3.414 3.414 0 0 0 3.41 3.41h34.681a3.413 3.413 0 0 0 3.409-3.41v-60.18a3.413 3.413 0 0 0 -3.409-3.41z"/><path d="m48.963 60.078h-32.5a.5.5 0 0 1 -.5-.5v-45.83a.5.5 0 0 1 .5-.5h32.5a.5.5 0 0 1 .5.5v45.83a.5.5 0 0 1 -.5.5zm-32-1h31.5v-44.83h-31.5z"/><path d="m32.715 31.553a5.9 5.9 0 1 1 5.9-5.9 5.908 5.908 0 0 1 -5.9 5.9zm0-10.8a4.9 4.9 0 1 0 4.9 4.9 4.907 4.907 0 0 0 -4.9-4.903z"/><path d="m44.479 43.641h-23.531a.5.5 0 0 1 -.5-.548c.75-7.831 4.034-9.311 8.959-10.675a.5.5 0 0 1 .431.079 4.949 4.949 0 0 0 5.758 0 .494.494 0 0 1 .43-.079c4.919 1.366 8.2 2.846 8.949 10.675a.5.5 0 0 1 -.5.548zm-22.975-1h22.419c-.769-6.616-3.533-7.956-7.936-9.2a5.963 5.963 0 0 1 -6.538 0c-4.408 1.242-7.176 2.581-7.949 9.2z"/></g><path d="m24.723 56.425h-.5a.65.65 0 1 1 0-1.3h.5a.65.65 0 1 1 0 1.3z" fill="#fff"/><path d="m22.1 55.126h-1.749v-4.48a.65.65 0 1 0 -1.3 0v5.13a.643.643 0 0 0 .171.431c.008.009.011.02.019.029s.02.012.029.019a.642.642 0 0 0 .431.171h2.4a.65.65 0 1 0 0-1.3z" fill="#fff"/></svg>