<svg id="color_line" height="512" viewBox="0 0 74 74" width="512" xmlns="http://www.w3.org/2000/svg" data-name="color line"><rect fill="#9297ab" height="68" rx="3.886" width="41.421" x="16.29" y="3"/><path d="m57.63 6.8v60.22a3.887 3.887 0 0 1 -3.16 3.82 4.224 4.224 0 0 0 .16-1.13v-60.229a3.886 3.886 0 0 0 -3.89-3.881h-33.64a3.54 3.54 0 0 0 -.73.07 3.9 3.9 0 0 1 3.73-2.76h33.64a3.888 3.888 0 0 1 3.89 3.89z" fill="#84879c"/><path d="m21.539 11.531h30.922v46.894h-30.922z" fill="#89c5cd"/><path d="m33.039 8.093h-1.152a.5.5 0 0 1 0-1h1.152a.5.5 0 1 1 0 1z" fill="#323c6b"/><path d="m37.576 8.093h-1.152a.5.5 0 0 1 0-1h1.152a.5.5 0 1 1 0 1z" fill="#323c6b"/><path d="m42.113 8.093h-1.153a.5.5 0 0 1 0-1h1.152a.5.5 0 1 1 0 1z" fill="#323c6b"/><path d="m38.823 62.853h-3.646a1.859 1.859 0 1 0 0 3.718h3.646a1.859 1.859 0 0 0 0-3.718z" fill="#707583"/><path d="m38.823 67.072h-3.646a2.359 2.359 0 1 1 0-4.718h3.646a2.359 2.359 0 1 1 0 4.718zm-3.646-3.718a1.359 1.359 0 1 0 0 2.718h3.646a1.359 1.359 0 1 0 0-2.718z" fill="#323c6b"/><path d="m37 33.479a4.254 4.254 0 0 1 -4.249-4.249.5.5 0 0 1 1 0 3.249 3.249 0 1 0 3.249-3.25 4.249 4.249 0 1 1 4.249-4.249.5.5 0 0 1 -1 0 3.249 3.249 0 1 0 -3.249 3.249 4.249 4.249 0 1 1 0 8.5z" fill="#323c6b"/><path d="m37 18.482a.5.5 0 0 1 -.5-.5v-1.2a.5.5 0 0 1 1 0v1.2a.5.5 0 0 1 -.5.5z" fill="#323c6b"/><path d="m37 34.68a.5.5 0 0 1 -.5-.5v-1.2a.5.5 0 0 1 1 0v1.2a.5.5 0 0 1 -.5.5z" fill="#323c6b"/><path d="m44.1 38.167h-13.791a1.243 1.243 0 0 0 -1.2 1.284v2.387a1.243 1.243 0 0 0 1.2 1.284h13.791a1.243 1.243 0 0 0 1.2-1.284v-2.388a1.243 1.243 0 0 0 -1.2-1.283z" fill="#fcd462"/><path d="m45.394 43.12h-13.789a1.243 1.243 0 0 0 -1.2 1.284v2.386a1.243 1.243 0 0 0 1.2 1.284h13.789a1.243 1.243 0 0 0 1.2-1.284v-2.39a1.243 1.243 0 0 0 -1.2-1.28z" fill="#fcd462"/><path d="m42.394 48.074h-13.788a1.243 1.243 0 0 0 -1.2 1.284v2.387a1.243 1.243 0 0 0 1.2 1.284h13.788a1.243 1.243 0 0 0 1.2-1.284v-2.387a1.243 1.243 0 0 0 -1.2-1.284z" fill="#fcd462"/><path d="m45.29 39.45v2.39a1.234 1.234 0 0 1 -1.19 1.28h-.6v-1.88a1.235 1.235 0 0 0 -1.2-1.28h-13.19v-.51a1.242 1.242 0 0 1 1.2-1.28h13.79a1.234 1.234 0 0 1 1.19 1.28z" fill="#f7be56"/><path d="m46.257 44.4v2.39a1.242 1.242 0 0 1 -1.2 1.28h-1.79a1.242 1.242 0 0 0 1.2-1.28v-2.39a1.248 1.248 0 0 0 -1.2-1.28h1.79a1.248 1.248 0 0 1 1.2 1.28z" fill="#f7be56"/><path d="m43.257 49.36v2.38a1.244 1.244 0 0 1 -1.2 1.29h-1.79a1.251 1.251 0 0 0 1.2-1.29v-2.38a1.251 1.251 0 0 0 -1.2-1.29h1.79a1.244 1.244 0 0 1 1.2 1.29z" fill="#f7be56"/><g fill="#323c6b"><path d="m13.29 12.75a.5.5 0 0 1 -.5-.5v-.958a.5.5 0 0 1 1 0v.958a.5.5 0 0 1 -.5.5z"/><path d="m13.29 9.583a.5.5 0 0 1 -.5-.5v-2.2a7.435 7.435 0 0 1 5.768-7.2.5.5 0 1 1 .219.976 6.428 6.428 0 0 0 -4.987 6.227v2.2a.5.5 0 0 1 -.5.497z"/><path d="m60.71 45.458a.5.5 0 0 1 -.5-.5v-.917a.5.5 0 0 1 1 0v.917a.5.5 0 0 1 -.5.5z"/><path d="m60.71 57.333a.5.5 0 0 1 -.5-.5v-9.5a.5.5 0 0 1 1 0v9.5a.5.5 0 0 1 -.5.5z"/><path d="m53.825 71.5h-33.65a4.391 4.391 0 0 1 -4.386-4.386v-60.228a4.391 4.391 0 0 1 4.386-4.386h33.65a4.391 4.391 0 0 1 4.385 4.386v60.228a4.391 4.391 0 0 1 -4.385 4.386zm-33.65-68a3.39 3.39 0 0 0 -3.385 3.386v60.228a3.39 3.39 0 0 0 3.385 3.386h33.65a3.39 3.39 0 0 0 3.386-3.386v-60.228a3.39 3.39 0 0 0 -3.386-3.386z"/><path d="m52.461 58.925h-30.922a.5.5 0 0 1 -.5-.5v-46.894a.5.5 0 0 1 .5-.5h30.922a.5.5 0 0 1 .5.5v46.894a.5.5 0 0 1 -.5.5zm-30.422-1h29.922v-45.894h-29.922z"/><path d="m44.1 43.621h-13.791a1.744 1.744 0 0 1 -1.7-1.784v-2.387a1.744 1.744 0 0 1 1.7-1.784h13.791a1.744 1.744 0 0 1 1.7 1.784v2.387a1.744 1.744 0 0 1 -1.7 1.784zm-13.791-4.954a.745.745 0 0 0 -.7.784v2.387a.745.745 0 0 0 .7.784h13.791a.745.745 0 0 0 .7-.784v-2.388a.745.745 0 0 0 -.7-.784z"/><path d="m45.394 48.574h-13.789a1.744 1.744 0 0 1 -1.7-1.784v-2.39a1.744 1.744 0 0 1 1.7-1.783h13.789a1.744 1.744 0 0 1 1.7 1.783v2.387a1.744 1.744 0 0 1 -1.7 1.787zm-13.789-4.953a.745.745 0 0 0 -.7.783v2.387a.745.745 0 0 0 .7.784h13.789a.745.745 0 0 0 .7-.784v-2.391a.745.745 0 0 0 -.7-.783z"/><path d="m42.395 53.528h-13.789a1.744 1.744 0 0 1 -1.7-1.784v-2.387a1.744 1.744 0 0 1 1.7-1.783h13.789a1.744 1.744 0 0 1 1.7 1.783v2.387a1.744 1.744 0 0 1 -1.7 1.784zm-13.789-4.954a.745.745 0 0 0 -.7.783v2.387a.745.745 0 0 0 .7.784h13.789a.745.745 0 0 0 .7-.784v-2.387a.745.745 0 0 0 -.7-.783z"/></g></svg>