<svg id="color_line" height="512" viewBox="0 0 74 74" width="512" xmlns="http://www.w3.org/2000/svg" data-name="color line"><circle cx="21.656" cy="21.656" fill="#fcd462" r="18.656"/><path d="m26.271 29.575h-8.894a.5.5 0 0 1 -.3-.9 3.294 3.294 0 0 0 1.308-2.354l.743-9.482a3.387 3.387 0 0 1 6.762.285v.4a.5.5 0 0 1 -1 0v-.4a2.387 2.387 0 0 0 -4.766-.2l-.743 9.476a4.3 4.3 0 0 1 -.814 2.172h7.7a.5.5 0 0 1 0 1z" fill="#323c6b"/><path d="m21.781 22.764h-4.74a.5.5 0 0 1 0-1h4.74a.5.5 0 0 1 0 1z" fill="#323c6b"/><path d="m21.656 36.362a14.706 14.706 0 1 1 14.706-14.706 14.723 14.723 0 0 1 -14.706 14.706zm0-28.413a13.706 13.706 0 1 0 13.706 13.707 13.722 13.722 0 0 0 -13.706-13.707z" fill="#323c6b"/><circle cx="52.344" cy="52.344" fill="#fcd462" r="18.656"/><path d="m40.31 21.66a18.621 18.621 0 0 1 -8.13 15.4 18.651 18.651 0 0 0 -23.78-28.53 18.654 18.654 0 0 1 31.91 13.13z" fill="#f7be56"/><path d="m71 52.34a18.639 18.639 0 0 1 -8.13 15.41 18.651 18.651 0 0 0 -23.78-28.53 18.654 18.654 0 0 1 31.91 13.12z" fill="#f7be56"/><g fill="#323c6b"><path d="m52.344 60.127a4.146 4.146 0 0 1 -4.144-4.141.5.5 0 0 1 1 0 3.141 3.141 0 1 0 3.141-3.142 4.141 4.141 0 1 1 4.145-4.144.5.5 0 0 1 -1 0 3.141 3.141 0 1 0 -3.142 3.141 4.142 4.142 0 0 1 0 8.283z"/><path d="m52.344 45.562a.5.5 0 0 1 -.5-.5v-1.4a.5.5 0 1 1 1 0v1.4a.5.5 0 0 1 -.5.5z"/><path d="m52.344 61.527a.5.5 0 0 1 -.5-.5v-1.4a.5.5 0 0 1 1 0v1.4a.5.5 0 0 1 -.5.5z"/><path d="m25.44 65.917h-16.757a.5.5 0 0 1 -.5-.5v-15.617a.5.5 0 0 1 1 0v15.117h16.257a.5.5 0 1 1 0 1z"/><path d="m4.991 54.684a.5.5 0 0 1 -.382-.822l3.691-4.385a.517.517 0 0 1 .765 0l3.692 4.385a.5.5 0 0 1 -.765.645l-3.31-3.931-3.31 3.931a.5.5 0 0 1 -.381.177z"/><path d="m65.317 24.7a.5.5 0 0 1 -.5-.5v-15.117h-16.257a.5.5 0 0 1 0-1h16.757a.5.5 0 0 1 .5.5v15.617a.5.5 0 0 1 -.5.5z"/><path d="m65.317 24.7a.5.5 0 0 1 -.382-.178l-3.692-4.385a.5.5 0 0 1 .765-.645l3.31 3.931 3.31-3.931a.5.5 0 0 1 .765.645l-3.693 4.386a.5.5 0 0 1 -.383.177z"/><path d="m1.06 15.516a.5.5 0 0 1 -.477-.65q.117-.366.243-.724a.5.5 0 0 1 .94.341c-.082.225-.157.453-.229.683a.5.5 0 0 1 -.477.35z"/><path d="m2.614 11.875a.5.5 0 0 1 -.439-.738 22.4 22.4 0 0 1 7.39-8.037.5.5 0 1 1 .548.837 21.384 21.384 0 0 0 -7.059 7.671.5.5 0 0 1 -.44.267z"/><path d="m69.038 66.583a.5.5 0 0 1 -.385-.818 21.209 21.209 0 0 0 4.472-9.486.5.5 0 1 1 .982.187 22.212 22.212 0 0 1 -4.683 9.934.5.5 0 0 1 -.386.183z"/><path d="m65.959 69.631a.5.5 0 0 1 -.309-.894c.206-.161.408-.326.6-.5a.5.5 0 0 1 .658.753c-.21.184-.426.36-.645.532a.5.5 0 0 1 -.304.109z"/><path d="m52.344 66.79a14.706 14.706 0 1 1 14.707-14.707 14.723 14.723 0 0 1 -14.707 14.707zm0-28.413a13.706 13.706 0 1 0 13.707 13.706 13.722 13.722 0 0 0 -13.707-13.706z"/><path d="m52.344 71.5a19.156 19.156 0 1 1 19.156-19.156 19.177 19.177 0 0 1 -19.156 19.156zm0-37.311a18.156 18.156 0 1 0 18.156 18.155 18.176 18.176 0 0 0 -18.156-18.155z"/><path d="m21.656 40.811a19.156 19.156 0 1 1 19.155-19.155 19.177 19.177 0 0 1 -19.155 19.155zm0-37.311a18.156 18.156 0 1 0 18.155 18.156 18.176 18.176 0 0 0 -18.155-18.156z"/></g></svg>