<svg id="color_line" height="512" viewBox="0 0 74 74" width="512" xmlns="http://www.w3.org/2000/svg" data-name="color line"><path d="m18.36 3.843a14.51 14.51 0 1 1 0 29.02 14.51 14.51 0 1 1 0-29.02" fill="#89c5cd"/><path d="m32.87 18.36a14.47 14.47 0 0 1 -6.29 11.95 14.507 14.507 0 0 0 -18.76-21.92 14.5 14.5 0 0 1 25.05 9.97z" fill="#6eaaad"/><g fill="#323c6b"><path d="m18.358 12.646a14.916 14.916 0 0 1 -10.509-4.294.5.5 0 0 1 .7-.714 13.92 13.92 0 0 0 9.809 4.007 13.9 13.9 0 0 0 9.809-4.007.5.5 0 1 1 .7.713 14.9 14.9 0 0 1 -10.509 4.295z"/><path d="m28.518 29.214a.5.5 0 0 1 -.351-.144 14 14 0 0 0 -19.617 0 .5.5 0 1 1 -.7-.713 14.9 14.9 0 0 1 10.51-4.3 14.9 14.9 0 0 1 10.51 4.3.5.5 0 0 1 -.351.856z"/><path d="m18.359 33.364a.5.5 0 0 1 -.5-.5v-29.022a.5.5 0 1 1 1 0v29.022a.5.5 0 0 1 -.5.5z"/><path d="m32.87 18.853h-29.021a.5.5 0 1 1 0-1h29.021a.5.5 0 0 1 0 1z"/><path d="m18.359 33.364c-4.669 0-8.468-6.734-8.468-15.011s3.8-15.011 8.468-15.011 8.468 6.734 8.468 15.011-3.799 15.011-8.468 15.011zm0-29.021c-4.118 0-7.468 6.285-7.468 14.011s3.35 14.011 7.468 14.011 7.468-6.285 7.468-14.011-3.349-14.012-7.468-14.012z"/><path d="m20.415 65.3h-11.378a.5.5 0 0 1 -.5-.5v-15.318a.5.5 0 0 1 1 0v14.818h10.878a.5.5 0 0 1 0 1z"/><path d="m5.885 53.523a.5.5 0 0 1 -.373-.833l3.152-3.541a.5.5 0 0 1 .373-.167.5.5 0 0 1 .373.167l3.151 3.541a.5.5 0 1 1 -.746.665l-2.778-3.121-2.779 3.121a.5.5 0 0 1 -.373.168z"/><path d="m64.9 26.225a.5.5 0 0 1 -.5-.5v-14.82h-10.88a.5.5 0 0 1 0-1h11.38a.5.5 0 0 1 .5.5v15.32a.5.5 0 0 1 -.5.5z"/><path d="m64.9 26.225a.5.5 0 0 1 -.373-.167l-3.151-3.541a.5.5 0 1 1 .746-.665l2.778 3.121 2.779-3.122a.5.5 0 1 1 .746.665l-3.152 3.541a.5.5 0 0 1 -.373.168z"/><path d="m1.876 13a.5.5 0 0 1 -.471-.668 18.166 18.166 0 0 1 4.905-7.332.5.5 0 1 1 .67.742 17.168 17.168 0 0 0 -4.633 6.922.5.5 0 0 1 -.471.336z"/><path d="m8.625 4.307a.5.5 0 0 1 -.278-.915c.279-.187.567-.36.856-.532a.5.5 0 1 1 .51.859c-.273.163-.546.326-.81.5a.493.493 0 0 1 -.278.088z"/></g><path d="m25.948 68.129h45.012v4.674h-45.012z" fill="#e1e6e9"/><path d="m30.153 43.558h8.69v3.543h-8.69z" fill="#e1e6e9"/><path d="m38.843 47.6h-8.69a.5.5 0 0 1 -.5-.5v-3.542a.5.5 0 0 1 .5-.5h8.689a.5.5 0 0 1 .5.5v3.542a.5.5 0 0 1 -.499.5zm-8.189-1h7.689v-2.542h-7.69z" fill="#323c6b"/><path d="m30.153 64.945h8.69v3.184h-8.69z" fill="#e1e6e9"/><path d="m38.843 68.629h-8.69a.5.5 0 0 1 -.5-.5v-3.184a.5.5 0 0 1 .5-.5h8.689a.5.5 0 0 1 .5.5v3.185a.5.5 0 0 1 -.499.499zm-8.189-1h7.689v-2.184h-7.69z" fill="#323c6b"/><path d="m31.902 47.102h5.192v17.843h-5.192z" fill="#e1e6e9"/><path d="m44.109 43.558h8.69v3.543h-8.69z" fill="#e1e6e9"/><path d="m52.8 47.6h-8.69a.5.5 0 0 1 -.5-.5v-3.542a.5.5 0 0 1 .5-.5h8.69a.5.5 0 0 1 .5.5v3.542a.5.5 0 0 1 -.5.5zm-8.19-1h7.69v-2.542h-7.69z" fill="#323c6b"/><path d="m44.109 64.945h8.69v3.184h-8.69z" fill="#e1e6e9"/><path d="m52.8 68.629h-8.69a.5.5 0 0 1 -.5-.5v-3.184a.5.5 0 0 1 .5-.5h8.69a.5.5 0 0 1 .5.5v3.185a.5.5 0 0 1 -.5.499zm-8.19-1h7.69v-2.184h-7.69z" fill="#323c6b"/><path d="m45.858 47.102h5.192v17.843h-5.192z" fill="#e1e6e9"/><path d="m58.064 43.558h8.69v3.543h-8.69z" fill="#e1e6e9"/><path d="m66.755 47.6h-8.69a.5.5 0 0 1 -.5-.5v-3.542a.5.5 0 0 1 .5-.5h8.69a.5.5 0 0 1 .5.5v3.542a.5.5 0 0 1 -.5.5zm-8.19-1h7.69v-2.542h-7.69z" fill="#323c6b"/><path d="m58.064 64.945h8.69v3.184h-8.69z" fill="#e1e6e9"/><path d="m66.755 68.629h-8.69a.5.5 0 0 1 -.5-.5v-3.184a.5.5 0 0 1 .5-.5h8.69a.5.5 0 0 1 .5.5v3.185a.5.5 0 0 1 -.5.499zm-8.19-1h7.69v-2.184h-7.69z" fill="#323c6b"/><path d="m59.813 47.102h5.192v17.843h-5.192z" fill="#e1e6e9"/><path d="m48.454 22.615-24.253 20.943h48.505z" fill="#e1e6e9"/><path d="m68.359 68.125h2.596v4.68h-2.596z" fill="#d5d6db"/><path d="m34.493 47.099h2.596v17.848h-2.596z" fill="#d5d6db"/><path d="m48.451 47.099h2.596v17.848h-2.596z" fill="#d5d6db"/><path d="m62.41 47.099h2.596v17.848h-2.596z" fill="#d5d6db"/><path d="m72.201 43.56h-3.352l-22.574-19.501 1.676-1.443z" fill="#d5d6db"/><circle cx="48.454" cy="32.486" fill="#9297ab" r="3.357"/><path d="m48.454 36.343a3.857 3.857 0 1 1 3.856-3.856 3.861 3.861 0 0 1 -3.856 3.856zm0-6.713a2.857 2.857 0 1 0 2.856 2.857 2.861 2.861 0 0 0 -2.856-2.858z" fill="#323c6b"/><path d="m63.913 32.435a.5.5 0 0 1 -.327-.122l-6-5.181a.5.5 0 1 1 .654-.757l6 5.181a.5.5 0 0 1 -.327.878z" fill="#323c6b"/><path d="m66.234 34.346a.5.5 0 0 1 -.327-.122l-.574-.5a.5.5 0 1 1 .654-.757l.574.5a.5.5 0 0 1 -.327.878z" fill="#323c6b"/><path d="m37.094 65.445h-5.194a.5.5 0 0 1 -.5-.5v-17.845a.5.5 0 0 1 .5-.5h5.191a.5.5 0 0 1 .5.5v17.845a.5.5 0 0 1 -.497.5zm-4.691-1h4.191v-16.845h-4.194z" fill="#323c6b"/><path d="m51.05 65.445h-5.193a.5.5 0 0 1 -.5-.5v-17.845a.5.5 0 0 1 .5-.5h5.193a.5.5 0 0 1 .5.5v17.845a.5.5 0 0 1 -.5.5zm-4.692-1h4.192v-16.845h-4.193z" fill="#323c6b"/><path d="m65 65.445h-5.187a.5.5 0 0 1 -.5-.5v-17.845a.5.5 0 0 1 .5-.5h5.187a.5.5 0 0 1 .5.5v17.845a.5.5 0 0 1 -.5.5zm-4.691-1h4.191v-16.845h-4.187z" fill="#323c6b"/><path d="m72.706 44.058h-48.506a.5.5 0 0 1 -.327-.878l24.254-20.944a.5.5 0 0 1 .654 0l24.252 20.944a.5.5 0 0 1 -.327.878zm-47.161-1h45.817l-22.908-19.783z" fill="#323c6b"/><path d="m70.96 73.3h-45.013a.5.5 0 0 1 -.5-.5v-4.671a.5.5 0 0 1 .5-.5h45.013a.5.5 0 0 1 .5.5v4.671a.5.5 0 0 1 -.5.5zm-44.513-1h44.013v-3.671h-44.013z" fill="#323c6b"/><path d="m18.359 33.363a15.01 15.01 0 1 1 0-30.02 15.01 15.01 0 1 1 0 30.02zm0-29.02a14.01 14.01 0 1 0 14.013 14.012 14.027 14.027 0 0 0 -14.014-14.012z" fill="#323c6b"/></svg>