<svg id="color_line" height="512" viewBox="0 0 74 74" width="512" xmlns="http://www.w3.org/2000/svg" data-name="color line"><path d="m49.07 11.557h10.258a2.687 2.687 0 0 1 2.693 2.693v54.057a2.687 2.687 0 0 1 -2.693 2.693h-44.656a2.687 2.687 0 0 1 -2.693-2.693v-54.057a2.687 2.687 0 0 1 2.693-2.693h10.272" fill="#e7aa6c"/><path d="m61.7 13.875v54.06a2.684 2.684 0 0 1 -2.69 2.69h-44.656a2.684 2.684 0 0 1 -2.69-2.69v-.06h44.76a2.687 2.687 0 0 0 2.7-2.69v-54a2.689 2.689 0 0 1 2.576 2.69z" fill="#d09865"/><path d="m49.125 16.938h7.026v48.68h-38.302v-48.68h7.026" fill="#eeefee"/><path d="m49.125 18.33h-24.25v-6.1a2.9 2.9 0 0 1 1.22-2.457 2.935 2.935 0 0 1 1.605-.473h4.287v-2.274c0-2.213 2.967-4.133 5.217-4.021 2.109.1 4.805 2.125 4.805 4.237v2.058h4.291a2.935 2.935 0 0 1 1.607.476 2.9 2.9 0 0 1 1.22 2.457z" fill="#9297ab"/><path d="m42.177 7.24v2.5h-2.27v-2.5c0-1.81-1.99-3.56-3.89-4.08a4.321 4.321 0 0 1 1.36-.16c2.1.11 4.8 2.13 4.8 4.24z" fill="#84879c"/><path d="m49.088 12.23.245 6.1h-2.525v-6.1a2.788 2.788 0 0 0 -2.83-2.93h2.28a2.788 2.788 0 0 1 2.83 2.93z" fill="#84879c"/><circle cx="37" cy="8.024" fill="#323c6b" r="1.712"/><path d="m24.979 40.6v14.022a1.843 1.843 0 0 0 1.843 1.843h20.356a1.843 1.843 0 0 0 1.843-1.843v-14.022z" fill="#d5d6db"/><path d="m47.178 56.965h-20.356a2.346 2.346 0 0 1 -2.344-2.343v-14.022a.5.5 0 0 1 .5-.5h24.043a.5.5 0 0 1 .5.5v14.022a2.346 2.346 0 0 1 -2.343 2.343zm-21.699-15.865v13.522a1.345 1.345 0 0 0 1.344 1.343h20.355a1.345 1.345 0 0 0 1.344-1.343v-13.522z" fill="#323c6b"/><path d="m47.178 33.844h-20.356a1.843 1.843 0 0 0 -1.843 1.843v4.913h24.042v-4.913a1.843 1.843 0 0 0 -1.843-1.843z" fill="#fe7058"/><g fill="#323c6b"><path d="m49.021 41.1h-24.042a.5.5 0 0 1 -.5-.5v-4.913a2.346 2.346 0 0 1 2.344-2.343h20.355a2.346 2.346 0 0 1 2.344 2.343v4.913a.5.5 0 0 1 -.501.5zm-23.543-1h23.043v-4.413a1.345 1.345 0 0 0 -1.344-1.343h-20.355a1.345 1.345 0 0 0 -1.344 1.343z"/><path d="m29.8 36.063a.5.5 0 0 1 -.5-.5v-3.438a.5.5 0 0 1 1 0v3.438a.5.5 0 0 1 -.5.5z"/><path d="m44.2 36.063a.5.5 0 0 1 -.5-.5v-3.438a.5.5 0 0 1 1 0v3.438a.5.5 0 0 1 -.5.5z"/><path d="m30.534 46.24h-.634a.5.5 0 0 1 0-1h.632a.5.5 0 0 1 0 1z"/><path d="m37.315 46.24h-.631a.5.5 0 0 1 0-1h.631a.5.5 0 0 1 0 1z"/><path d="m44.1 46.24h-.632a.5.5 0 0 1 0-1h.632a.5.5 0 0 1 0 1z"/><path d="m30.534 51.826h-.634a.5.5 0 0 1 0-1h.632a.5.5 0 1 1 0 1z"/><path d="m37.315 51.826h-.631a.5.5 0 0 1 0-1h.631a.5.5 0 0 1 0 1z"/><path d="m44.1 51.826h-.632a.5.5 0 0 1 0-1h.632a.5.5 0 0 1 0 1z"/><path d="m65.021 60.563a.5.5 0 0 1 -.5-.5v-8.771a.5.5 0 0 1 1 0v8.771a.5.5 0 0 1 -.5.5z"/><path d="m8.979 18.92a.5.5 0 0 1 -.5-.5v-.649a.5.5 0 0 1 1 0v.649a.5.5 0 0 1 -.5.5z"/><path d="m8.979 16.029a.5.5 0 0 1 -.5-.5v-1.279a6.234 6.234 0 0 1 5.235-6.112.5.5 0 0 1 .154.988 5.226 5.226 0 0 0 -4.39 5.124v1.28a.5.5 0 0 1 -.499.499z"/><path d="m65.021 49.229a.5.5 0 0 1 -.5-.5v-.813a.5.5 0 0 1 1 0v.813a.5.5 0 0 1 -.5.5z"/><path d="m59.328 71.5h-44.656a3.2 3.2 0 0 1 -3.192-3.193v-54.057a3.2 3.2 0 0 1 3.192-3.193h10.272a.5.5 0 0 1 0 1h-10.272a2.2 2.2 0 0 0 -2.192 2.193v54.057a2.2 2.2 0 0 0 2.192 2.193h44.656a2.2 2.2 0 0 0 2.192-2.193v-54.057a2.2 2.2 0 0 0 -2.192-2.193h-10.258a.5.5 0 0 1 0-1h10.258a3.2 3.2 0 0 1 3.192 3.193v54.057a3.2 3.2 0 0 1 -3.192 3.193z"/><path d="m56.151 66.118h-38.3a.5.5 0 0 1 -.5-.5v-48.68a.5.5 0 0 1 .5-.5h7.026a.5.5 0 0 1 0 1h-6.528v47.68h37.3v-47.68h-6.524a.5.5 0 0 1 0-1h7.026a.5.5 0 0 1 .5.5v48.68a.5.5 0 0 1 -.5.5z"/><path d="m49.125 18.83h-24.25a.5.5 0 0 1 -.5-.5v-6.1a3.376 3.376 0 0 1 1.446-2.875 3.431 3.431 0 0 1 1.879-.555h3.788v-1.774a3.911 3.911 0 0 1 1.347-2.769 6.349 6.349 0 0 1 4.395-1.752c2.377.118 5.28 2.327 5.28 4.736v1.559h3.79a3.428 3.428 0 0 1 1.88.558 3.375 3.375 0 0 1 1.446 2.875v6.1a.5.5 0 0 1 -.501.497zm-23.75-1h23.25v-5.6a2.282 2.282 0 0 0 -2.325-2.43h-4.289a.5.5 0 0 1 -.5-.5v-2.058c0-1.814-2.439-3.644-4.329-3.737a5.285 5.285 0 0 0 -3.656 1.477 2.935 2.935 0 0 0 -1.036 2.044v2.274a.5.5 0 0 1 -.5.5h-4.29a2.281 2.281 0 0 0 -2.326 2.433z"/></g><path d="m36.924 16.068h-6.955a.65.65 0 1 1 0-1.3h6.955a.65.65 0 1 1 0 1.3z" fill="#fff"/><path d="m40.313 16.068h-.813a.65.65 0 1 1 0-1.3h.813a.65.65 0 1 1 0 1.3z" fill="#fff"/></svg>