<svg id="color_line" height="512" viewBox="0 0 74 74" width="512" xmlns="http://www.w3.org/2000/svg" data-name="color line"><path d="m4.5 43.733h38.664v4.014h-38.664z" fill="#e1e6e9"/><path d="m8.113 22.769h7.464v3.044h-7.464z" fill="#d5d6db"/><path d="m15.577 26.313h-7.465a.5.5 0 0 1 -.5-.5v-3.044a.5.5 0 0 1 .5-.5h7.465a.5.5 0 0 1 .5.5v3.043a.5.5 0 0 1 -.5.501zm-6.965-1h6.465v-2.044h-6.465z" fill="#323c6b"/><path d="m8.113 40.998h7.464v2.735h-7.464z" fill="#d5d6db"/><path d="m15.577 44.233h-7.465a.5.5 0 0 1 -.5-.5v-2.733a.5.5 0 0 1 .5-.5h7.465a.5.5 0 0 1 .5.5v2.735a.5.5 0 0 1 -.5.498zm-6.965-1h6.465v-1.733h-6.465z" fill="#323c6b"/><path d="m9.615 25.813h4.46v15.186h-4.46z" fill="#e1e6e9"/><path d="m20.1 22.769h7.464v3.044h-7.464z" fill="#d5d6db"/><path d="m27.564 26.313h-7.464a.5.5 0 0 1 -.5-.5v-3.044a.5.5 0 0 1 .5-.5h7.465a.5.5 0 0 1 .5.5v3.043a.5.5 0 0 1 -.501.501zm-6.965-1h6.465v-2.044h-6.464z" fill="#323c6b"/><path d="m20.1 40.998h7.464v2.735h-7.464z" fill="#d5d6db"/><path d="m27.564 44.233h-7.464a.5.5 0 0 1 -.5-.5v-2.733a.5.5 0 0 1 .5-.5h7.465a.5.5 0 0 1 .5.5v2.735a.5.5 0 0 1 -.501.498zm-6.965-1h6.465v-1.733h-6.464z" fill="#323c6b"/><path d="m21.602 25.813h4.46v15.186h-4.46z" fill="#e1e6e9"/><path d="m32.087 22.769h7.464v3.044h-7.464z" fill="#d5d6db"/><path d="m39.552 26.313h-7.465a.5.5 0 0 1 -.5-.5v-3.044a.5.5 0 0 1 .5-.5h7.465a.5.5 0 0 1 .5.5v3.043a.5.5 0 0 1 -.5.501zm-6.965-1h6.465v-2.044h-6.465z" fill="#323c6b"/><path d="m32.087 40.998h7.464v2.735h-7.464z" fill="#d5d6db"/><path d="m39.552 44.233h-7.465a.5.5 0 0 1 -.5-.5v-2.733a.5.5 0 0 1 .5-.5h7.465a.5.5 0 0 1 .5.5v2.735a.5.5 0 0 1 -.5.498zm-6.965-1h6.465v-1.733h-6.465z" fill="#323c6b"/><path d="m33.59 25.813h4.46v15.186h-4.46z" fill="#e1e6e9"/><path d="m23.832 4.779-20.832 17.99h41.664z" fill="#e1e6e9"/><path d="m40.93 43.73h2.23v4.02h-2.23z" fill="#d5d6db"/><path d="m11.84 25.81h2.23v15.19h-2.23z" fill="#d5d6db"/><path d="m23.83 25.81h2.23v15.19h-2.23z" fill="#d5d6db"/><path d="m35.82 25.81h2.23v15.19h-2.23z" fill="#d5d6db"/><path d="m44.66 22.77h-2.88l-19.39-16.75 1.44-1.24z" fill="#d5d6db"/><circle cx="23.832" cy="13.774" fill="#9297ab" r="2.883"/><path d="m23.832 17.157a3.383 3.383 0 1 1 3.384-3.383 3.387 3.387 0 0 1 -3.384 3.383zm0-5.767a2.383 2.383 0 1 0 2.384 2.383 2.386 2.386 0 0 0 -2.384-2.382z" fill="#323c6b"/><path d="m64.456 46.946c0 4.26-2.715 9.085-7.633 9.367-5.785.01-8.166-6.61-7.707-10.484a15.9 15.9 0 0 0 10.693-4.856c3.572 1.274 4.177 4.939 4.647 5.973z" fill="#fcd462"/><path d="m64.272 46.638c0 4.26-2.72 9.08-7.64 9.36a6.794 6.794 0 0 1 -5.4-2.64 6.628 6.628 0 0 0 3.5.95c3.44-.2 5.8-2.62 6.91-5.52a8.136 8.136 0 0 0 -.44-6.75 8.3 8.3 0 0 0 -.58-.92c2.691 1.539 3.231 4.589 3.65 5.52z" fill="#f7be56"/><path d="m71 67.682v2.539h-28.343v-2.539a9.735 9.735 0 0 1 9.4-9.73 9.989 9.989 0 0 0 4.766 1.162h.212a10.535 10.535 0 0 0 4.26-1.169 9.74 9.74 0 0 1 9.705 9.737z" fill="#89c5cd"/><path d="m70.59 67.68v2.54h-3.11v-1.79a9.753 9.753 0 0 0 -8.65-9.68 10.181 10.181 0 0 0 2.05-.81 9.746 9.746 0 0 1 9.71 9.74z" fill="#6eaaad"/><path d="m65.063 70.721h-16.468a.5.5 0 0 1 -.5-.5v-4.5a.5.5 0 0 1 1 0v4h15.468v-4a.5.5 0 0 1 1 0v4.5a.5.5 0 0 1 -.5.5z" fill="#323c6b"/><path d="m64.456 46.946c-.47-1.034-1.075-4.7-4.647-5.973a15.9 15.9 0 0 1 -10.693 4.856 7.9 7.9 0 0 1 -1.839-3.948 6.186 6.186 0 0 1 .046-2.372c.7-3.079 2.984-3.172 2.984-3.172 3.519-6.244 10.724-3.143 12.938-.971a7.629 7.629 0 0 1 2.235 3.289c1.346 3.853-1.024 8.291-1.024 8.291z" fill="#707583"/><path d="m64.456 47.446h-.016a.5.5 0 0 1 -.44-.293c-.083-.183-.171-.442-.276-.754-.479-1.432-1.271-3.794-3.79-4.842a16.152 16.152 0 0 1 -10.825 4.771.5.5 0 0 1 -.374-.176 8.435 8.435 0 0 1 -1.952-4.189 6.65 6.65 0 0 1 .052-2.565c.631-2.777 2.447-3.389 3.162-3.523a7.094 7.094 0 0 1 5.243-3.649 10.966 10.966 0 0 1 8.36 2.782 8.145 8.145 0 0 1 2.357 3.485c1.4 4.01-.955 8.5-1.056 8.688a.5.5 0 0 1 -.445.265zm-4.646-6.973a.487.487 0 0 1 .168.029 7.578 7.578 0 0 1 4.528 5.089c.581-1.511 1.366-4.3.5-6.771a7.2 7.2 0 0 0 -2.095-3.08 10.022 10.022 0 0 0 -7.532-2.525 6.2 6.2 0 0 0 -4.639 3.368.5.5 0 0 1 -.415.254c-.074 0-1.917.142-2.518 2.783a5.668 5.668 0 0 0 -.04 2.18 7.332 7.332 0 0 0 1.577 3.523 15.677 15.677 0 0 0 10.1-4.7.5.5 0 0 1 .366-.15z" fill="#323c6b"/><path d="m61.923 38.368a.649.649 0 0 1 -.485-.217 5.427 5.427 0 0 0 -.451-.447 7.1 7.1 0 0 0 -4.132-1.763.649.649 0 0 1 -.607-.69.656.656 0 0 1 .689-.607 8.4 8.4 0 0 1 4.937 2.109 6.471 6.471 0 0 1 .535.533.65.65 0 0 1 -.485 1.083z" fill="#fff"/><path d="m53.689 36.62a.65.65 0 0 1 -.316-1.218 5 5 0 0 1 .526-.254.65.65 0 1 1 .5 1.2 4.045 4.045 0 0 0 -.394.191.643.643 0 0 1 -.316.081z" fill="#fff"/><g fill="#323c6b"><path d="m7.917 15.059a.5.5 0 0 1 -.327-.878l5.568-4.809a.5.5 0 0 1 .654.757l-5.568 4.809a.5.5 0 0 1 -.327.121z"/><path d="m16 8.079a.5.5 0 0 1 -.327-.878l.694-.6a.5.5 0 1 1 .654.757l-.694.6a.5.5 0 0 1 -.327.121z"/><path d="m71.846 61.125a.5.5 0 0 1 -.415-.221 12.285 12.285 0 0 0 -5.614-4.565.5.5 0 1 1 .375-.927 13.282 13.282 0 0 1 6.069 4.935.5.5 0 0 1 -.137.694.493.493 0 0 1 -.278.084z"/><path d="m73.426 64.438a.5.5 0 0 1 -.478-.351 12.3 12.3 0 0 0 -.441-1.2.5.5 0 0 1 .92-.394 13.719 13.719 0 0 1 .477 1.3.5.5 0 0 1 -.478.649z"/><path d="m14.074 41.5h-4.459a.5.5 0 0 1 -.5-.5v-15.187a.5.5 0 0 1 .5-.5h4.459a.5.5 0 0 1 .5.5v15.187a.5.5 0 0 1 -.5.5zm-3.959-1h3.459v-14.187h-3.459z"/><path d="m26.063 41.5h-4.463a.5.5 0 0 1 -.5-.5v-15.187a.5.5 0 0 1 .5-.5h4.46a.5.5 0 0 1 .5.5v15.187a.5.5 0 0 1 -.497.5zm-3.96-1h3.46v-14.187h-3.463z"/><path d="m38.05 41.5h-4.46a.5.5 0 0 1 -.5-.5v-15.187a.5.5 0 0 1 .5-.5h4.46a.5.5 0 0 1 .5.5v15.187a.5.5 0 0 1 -.5.5zm-3.96-1h3.46v-14.187h-3.46z"/><path d="m44.664 23.269h-41.664a.5.5 0 0 1 -.327-.878l20.827-17.991a.5.5 0 0 1 .654 0l20.832 17.99a.5.5 0 0 1 -.327.878zm-40.32-1h38.976l-19.488-16.829z"/><path d="m43.164 48.248h-38.664a.5.5 0 0 1 -.5-.5v-4.015a.5.5 0 0 1 .5-.5h38.664a.5.5 0 0 1 .5.5v4.015a.5.5 0 0 1 -.5.5zm-38.164-1h37.664v-3.015h-37.664z"/><path d="m56.834 56.812a7.233 7.233 0 0 1 -5.542-2.52 11.706 11.706 0 0 1 -2.672-8.522.5.5 0 0 1 .5-.441h.006a15.632 15.632 0 0 0 10.328-4.7.5.5 0 0 1 .526-.122c3.21 1.145 4.177 4.029 4.7 5.579.092.272.166.5.238.658a.5.5 0 0 1 .045.207c0 4.622-3.031 9.575-8.105 9.866zm-7.259-10.5a10.681 10.681 0 0 0 2.464 7.312 6.168 6.168 0 0 0 4.77 2.186h.013c4.42-.254 7.091-4.638 7.134-8.766-.069-.172-.145-.392-.23-.648-.479-1.432-1.271-3.794-3.79-4.842a16.484 16.484 0 0 1 -10.361 4.76z"/><path d="m71 70.721h-28.343a.5.5 0 0 1 -.5-.5v-2.539a10.2 10.2 0 0 1 9.878-10.229.44.44 0 0 1 .254.059 9.483 9.483 0 0 0 4.529 1.1h.212a10 10 0 0 0 4.029-1.112.486.486 0 0 1 .233-.057 10.261 10.261 0 0 1 10.208 10.239v2.539a.5.5 0 0 1 -.5.5zm-27.843-1h27.343v-2.039a9.26 9.26 0 0 0 -9.091-9.236 11.032 11.032 0 0 1 -4.349 1.167h-.229a10.507 10.507 0 0 1 -4.893-1.157 9.2 9.2 0 0 0 -8.782 9.225z"/></g></svg>