<svg id="color_line" height="512" viewBox="0 0 74 74" width="512" xmlns="http://www.w3.org/2000/svg" data-name="color line"><circle cx="56.229" cy="16.436" fill="#fcd462" r="13.436"/><path d="m65.455 26.455a13.436 13.436 0 0 0 -19.99-17.8 13.433 13.433 0 1 1 19.99 17.8z" fill="#f7be56"/><g fill="#323c6b"><path d="m59.456 21.732h-6.22a.5.5 0 0 1 -.3-.9 2.149 2.149 0 0 0 .854-1.538l.521-6.632a2.519 2.519 0 0 1 5.029.211v.278a.5.5 0 1 1 -1 0v-.278a1.519 1.519 0 0 0 -3.033-.13l-.521 6.632a3.149 3.149 0 0 1 -.438 1.356h5.107a.5.5 0 0 1 0 1z"/><path d="m56.316 16.969h-3.316a.5.5 0 0 1 0-1h3.315a.5.5 0 1 1 0 1z"/><path d="m56.229 26.872a10.436 10.436 0 1 1 10.436-10.436 10.448 10.448 0 0 1 -10.436 10.436zm0-19.872a9.436 9.436 0 1 0 9.437 9.436 9.446 9.446 0 0 0 -9.437-9.436z"/><path d="m17.559 17.837a.5.5 0 0 1 -.5-.5v-5.562a3.348 3.348 0 0 1 3.341-3.345h12.019a.5.5 0 0 1 0 1h-12.019a2.347 2.347 0 0 0 -2.345 2.345v5.562a.5.5 0 0 1 -.496.5z"/><path d="m28.343 13.012a.5.5 0 0 1 -.33-.875l3.648-3.207-3.648-3.206a.5.5 0 1 1 .66-.751l4.076 3.582a.5.5 0 0 1 0 .751l-4.076 3.582a.5.5 0 0 1 -.33.124z"/><path d="m67.345 57.56h-12.016a.5.5 0 0 1 0-1h12.016a2.347 2.347 0 0 0 2.345-2.345v-5.562a.5.5 0 0 1 1 0v5.563a3.348 3.348 0 0 1 -3.345 3.344z"/><path d="m59.405 61.141a.5.5 0 0 1 -.33-.125l-4.075-3.581a.5.5 0 0 1 0-.751l4.075-3.584a.5.5 0 1 1 .66.751l-3.648 3.209 3.648 3.206a.5.5 0 0 1 -.33.875z"/><path d="m4.9 34.557a.5.5 0 0 1 -.327-.878l6.3-5.441a.5.5 0 1 1 .654.757l-6.3 5.441a.5.5 0 0 1 -.327.121z"/><path d="m12.924 27.63a.5.5 0 0 1 -.327-.878l.632-.546a.5.5 0 0 1 .654.757l-.632.546a.5.5 0 0 1 -.327.121z"/><path d="m72.314 13.583a.5.5 0 0 1 -.488-.4 15.9 15.9 0 0 0 -4.09-7.748.5.5 0 1 1 .723-.691 16.9 16.9 0 0 1 4.341 8.237.5.5 0 0 1 -.49.6z"/><path d="m72.653 17.159a.462.462 0 0 1 -.5-.456c0-.055 0-.108.008-.162l.006-.1c0-.149-.007-.3-.013-.445l-.008-.181a.5.5 0 0 1 .481-.518h.019a.5.5 0 0 1 .5.482l.007.175c.007.162.014.324.014.488 0 .06 0 .119-.008.178a.548.548 0 0 1 -.506.539z"/></g><path d="m5.834 40.519h42.305v3.791h-42.305z" fill="#e1e6e9"/><path d="m4.253 66.851h45.466v5.093h-45.466z" fill="#e1e6e9"/><path d="m8.281 44.311h8.883v3.152h-8.883z" fill="#e1e6e9"/><path d="m17.163 47.963h-8.883a.5.5 0 0 1 -.5-.5v-3.152a.5.5 0 0 1 .5-.5h8.883a.5.5 0 0 1 .5.5v3.152a.5.5 0 0 1 -.5.5zm-8.383-1h7.883v-2.152h-7.883z" fill="#323c6b"/><path d="m8.281 63.833h8.883v3.018h-8.883z" fill="#e1e6e9"/><path d="m17.163 67.351h-8.883a.5.5 0 0 1 -.5-.5v-3.018a.5.5 0 0 1 .5-.5h8.883a.5.5 0 0 1 .5.5v3.018a.5.5 0 0 1 -.5.5zm-8.383-1h7.883v-2.018h-7.883z" fill="#323c6b"/><path d="m22.545 44.311h8.883v3.152h-8.883z" fill="#e1e6e9"/><path d="m31.428 47.963h-8.883a.5.5 0 0 1 -.5-.5v-3.152a.5.5 0 0 1 .5-.5h8.883a.5.5 0 0 1 .5.5v3.152a.5.5 0 0 1 -.5.5zm-8.383-1h7.883v-2.152h-7.883z" fill="#323c6b"/><path d="m22.545 63.833h8.883v3.018h-8.883z" fill="#e1e6e9"/><path d="m31.428 67.351h-8.883a.5.5 0 0 1 -.5-.5v-3.018a.5.5 0 0 1 .5-.5h8.883a.5.5 0 0 1 .5.5v3.018a.5.5 0 0 1 -.5.5zm-8.383-1h7.883v-2.018h-7.883z" fill="#323c6b"/><path d="m24.056 47.463h5.86v16.37h-5.86z" fill="#e1e6e9"/><path d="m36.81 44.311h8.883v3.152h-8.883z" fill="#e1e6e9"/><path d="m45.692 47.963h-8.882a.5.5 0 0 1 -.5-.5v-3.152a.5.5 0 0 1 .5-.5h8.883a.5.5 0 0 1 .5.5v3.152a.5.5 0 0 1 -.501.5zm-8.383-1h7.883v-2.152h-7.882z" fill="#323c6b"/><path d="m36.81 63.833h8.883v3.018h-8.883z" fill="#e1e6e9"/><path d="m45.692 67.351h-8.882a.5.5 0 0 1 -.5-.5v-3.018a.5.5 0 0 1 .5-.5h8.883a.5.5 0 0 1 .5.5v3.018a.5.5 0 0 1 -.501.5zm-8.383-1h7.883v-2.018h-7.882z" fill="#323c6b"/><path d="m26.987 18.953-25.895 21.566h51.789z" fill="#e1e6e9"/><path d="m45.878 40.516h2.185v3.796h-2.185z" fill="#d5d6db"/><path d="m47.707 66.853h2.013v5.093h-2.013z" fill="#d5d6db"/><path d="m27.827 47.463h2.213v16.371h-2.213z" fill="#d5d6db"/><path d="m52.642 40.5-25.874-21.55-1.968 1.719 23.818 19.831z" fill="#d5d6db"/><circle cx="26.987" cy="29.872" fill="#9297ab" r="3.791"/><path d="m26.986 34.163a4.291 4.291 0 1 1 4.291-4.291 4.3 4.3 0 0 1 -4.291 4.291zm0-7.583a3.291 3.291 0 1 0 3.291 3.292 3.3 3.3 0 0 0 -3.291-3.291z" fill="#323c6b"/><path d="m48.139 44.811h-42.305a.5.5 0 0 1 -.5-.5v-3.792a.5.5 0 0 1 .5-.5h42.3a.5.5 0 0 1 .5.5v3.792a.5.5 0 0 1 -.495.5zm-41.8-1h41.3v-2.792h-41.305z" fill="#323c6b"/><path d="m49.72 72.443h-45.467a.5.5 0 0 1 -.5-.5v-5.092a.5.5 0 0 1 .5-.5h45.467a.5.5 0 0 1 .5.5v5.093a.5.5 0 0 1 -.5.499zm-44.967-1h44.467v-4.092h-44.467z" fill="#323c6b"/><path d="m29.917 64.333h-5.86a.5.5 0 0 1 -.5-.5v-16.37a.5.5 0 0 1 .5-.5h5.86a.5.5 0 0 1 .5.5v16.37a.5.5 0 0 1 -.5.5zm-5.36-1h4.86v-15.37h-4.86z" fill="#323c6b"/><path d="m52.882 41.019h-51.79a.5.5 0 0 1 -.32-.884l25.894-21.567a.5.5 0 0 1 .641 0l25.893 21.567a.5.5 0 0 1 -.32.884zm-50.408-1h49.026l-24.514-20.419z" fill="#323c6b"/><path d="m38.321 47.463h5.86v16.37h-5.86z" fill="#e1e6e9"/><path d="m41.691 47.463h2.213v16.371h-2.213z" fill="#d5d6db"/><path d="m44.182 64.333h-5.86a.5.5 0 0 1 -.5-.5v-16.37a.5.5 0 0 1 .5-.5h5.86a.5.5 0 0 1 .5.5v16.37a.5.5 0 0 1 -.5.5zm-5.36-1h4.86v-15.37h-4.86z" fill="#323c6b"/><path d="m9.792 47.463h5.86v16.37h-5.86z" fill="#e1e6e9"/><path d="m13.438 47.463h2.213v16.371h-2.213z" fill="#d5d6db"/><path d="m15.652 64.333h-5.86a.5.5 0 0 1 -.5-.5v-16.37a.5.5 0 0 1 .5-.5h5.86a.5.5 0 0 1 .5.5v16.37a.5.5 0 0 1 -.5.5zm-5.36-1h4.86v-15.37h-4.86z" fill="#323c6b"/><path d="m56.229 30.372a13.936 13.936 0 1 1 13.936-13.936 13.951 13.951 0 0 1 -13.936 13.936zm0-26.872a12.936 12.936 0 1 0 12.936 12.936 12.95 12.95 0 0 0 -12.936-12.936z" fill="#323c6b"/><path d="m50.172 20.792a.5.5 0 0 1 -.422-.231 7.632 7.632 0 0 1 -.673-6.924.5.5 0 0 1 .93.367 6.632 6.632 0 0 0 .587 6.019.5.5 0 0 1 -.422.769z" fill="#323c6b"/><path d="m50.914 12.125a.5.5 0 0 1 -.371-.835 8.328 8.328 0 0 1 .666-.667.5.5 0 0 1 .662.749 7.473 7.473 0 0 0 -.586.587.5.5 0 0 1 -.371.166z" fill="#323c6b"/></svg>