<svg id="color_line" height="512" viewBox="0 0 74 74" width="512" xmlns="http://www.w3.org/2000/svg" data-name="color line"><path d="m59.318 36.749c0 6.358-4.072 13.572-11.409 14-8.654.02-12.215-9.889-11.521-15.675a23.752 23.752 0 0 0 15.97-7.254c5.347 1.908 6.255 7.38 6.96 8.929z" fill="#fcd462"/><path d="m59.32 36.75c0 6.36-4.07 13.57-11.41 14a9.861 9.861 0 0 1 -6.69-2.5 9.981 9.981 0 0 0 4.63 1.09c4.69-.27 8.05-3.32 9.86-7.15a12.345 12.345 0 0 0 -.37-11.5 10.531 10.531 0 0 0 -1.93-2.42c4.42 2.2 5.25 7.04 5.91 8.48z" fill="#f7be56"/><path d="m69.559 67.222v3.872h-43.217v-3.872a14.844 14.844 0 0 1 14.326-14.837 15.231 15.231 0 0 0 7.267 1.772h.323a16.064 16.064 0 0 0 6.5-1.783 14.851 14.851 0 0 1 14.801 14.848z" fill="#89c5cd"/><path d="m69.56 67.22v3.87h-3.5v-2.68a14.857 14.857 0 0 0 -14.32-14.84 15.248 15.248 0 0 0 3.01-1.2 14.863 14.863 0 0 1 14.81 14.85z" fill="#6eaaad"/><path d="m51.74 53.57c-.33.1-.66.18-1.01.25.18-.08.35-.17.52-.26.16 0 .33 0 .49.01z" fill="#84bcc1"/><path d="m60.505 71.593h-25.105a.5.5 0 0 1 -.5-.5v-6.864a.5.5 0 0 1 1 0v6.364h24.11v-6.364a.5.5 0 0 1 1 0v6.864a.5.5 0 0 1 -.505.5z" fill="#323c6b"/><path d="m59.318 36.749c-.7-1.551-1.612-7.021-6.96-8.929a23.752 23.752 0 0 1 -15.971 7.256 12.107 12.107 0 0 1 -2.939-7.745c.51-6.276 4.715-6.449 4.715-6.449 5.256-9.329 16.032-4.682 19.337-1.441a11.359 11.359 0 0 1 3.347 4.919c2.012 5.746-1.529 12.389-1.529 12.389z" fill="#707583"/><path d="m59.317 37.249h-.017a.5.5 0 0 1 -.439-.293c-.122-.267-.25-.645-.4-1.1-.694-2.065-1.971-5.867-5.974-7.453a24.04 24.04 0 0 1 -16.107 7.172.5.5 0 0 1 -.374-.176 12.577 12.577 0 0 1 -3.058-8.049c.461-5.712 3.876-6.749 4.9-6.932a10.386 10.386 0 0 1 7.713-5.432c4.89-.69 10.128 1.979 12.287 4.1a11.884 11.884 0 0 1 3.474 5.114c2.058 5.88-1.415 12.505-1.563 12.785a.5.5 0 0 1 -.442.264zm-6.959-9.929a.489.489 0 0 1 .168.029c4.624 1.651 6.074 5.785 6.847 8.084.871-2.075 2.45-6.775 1-10.908a10.931 10.931 0 0 0 -3.206-4.709c-2.031-1.993-6.913-4.487-11.465-3.839a9.493 9.493 0 0 0 -7.102 5.149.5.5 0 0 1 -.415.254c-.151.008-3.771.265-4.237 5.991a11.592 11.592 0 0 0 2.67 7.2 23.617 23.617 0 0 0 15.382-7.1.5.5 0 0 1 .358-.151z" fill="#323c6b"/><circle cx="17.703" cy="15.597" fill="#fcd462" r="13.222"/><path d="m28.41 23.36a13.228 13.228 0 0 0 -22.57-13.62 13.232 13.232 0 0 1 25.09 5.86 13.091 13.091 0 0 1 -2.52 7.76z" fill="#f7be56"/><circle cx="17.703" cy="15.597" fill="#fcd462" r="9.639"/><g fill="#323c6b"><path d="m17.7 25.736a10.139 10.139 0 1 1 10.142-10.136 10.15 10.15 0 0 1 -10.142 10.136zm0-19.278a9.139 9.139 0 1 0 9.142 9.142 9.149 9.149 0 0 0 -9.142-9.142z"/><path d="m17.7 21.484a3.2 3.2 0 0 1 -3.193-3.194.5.5 0 0 1 1 0 2.194 2.194 0 1 0 2.193-2.19 3.193 3.193 0 1 1 3.2-3.2.5.5 0 0 1 -1 0 2.194 2.194 0 1 0 -2.2 2.2 3.194 3.194 0 1 1 0 6.387z"/><path d="m17.7 10.71a.5.5 0 0 1 -.5-.5v-.845a.5.5 0 0 1 1 0v.845a.5.5 0 0 1 -.5.5z"/><path d="m17.7 22.329a.5.5 0 0 1 -.5-.5v-.845a.5.5 0 0 1 1 0v.845a.5.5 0 0 1 -.5.5z"/><path d="m23.586 64.917a.478.478 0 0 1 -.079-.006.5.5 0 0 1 -.416-.572l.045-.307c.035-.242.07-.483.121-.72a.5.5 0 1 1 .978.21c-.046.214-.077.433-.108.652l-.048.321a.5.5 0 0 1 -.493.422z"/><path d="m24.408 61.625a.5.5 0 0 1 -.17-.03.5.5 0 0 1 -.3-.64 18.174 18.174 0 0 1 6.7-8.757.5.5 0 1 1 .574.819 17.18 17.18 0 0 0 -6.333 8.278.5.5 0 0 1 -.471.33z"/><path d="m63.748 23.883a.5.5 0 0 1 -.474-.341 13.9 13.9 0 0 0 -4.018-5.97 14.319 14.319 0 0 0 -2.191-1.71.5.5 0 0 1 .542-.84 15.266 15.266 0 0 1 2.33 1.818 14.862 14.862 0 0 1 4.285 6.384.5.5 0 0 1 -.474.659z"/><path d="m64.5 27.886a.5.5 0 0 1 -.5-.476c-.021-.45-.056-.9-.12-1.358a.5.5 0 0 1 .99-.139c.068.485.105.968.129 1.449a.5.5 0 0 1 -.476.523z"/><path d="m69.559 71.593h-43.217a.5.5 0 0 1 -.5-.5v-3.871a15.292 15.292 0 0 1 14.808-15.337.438.438 0 0 1 .253.059 14.726 14.726 0 0 0 7.031 1.713h.323a15.538 15.538 0 0 0 6.265-1.726c.072-.038.159-.088.233-.057a15.384 15.384 0 0 1 15.3 15.347v3.872a.5.5 0 0 1 -.496.5zm-42.717-1h42.217v-3.371a14.382 14.382 0 0 0 -14.185-14.347 16.557 16.557 0 0 1 -6.585 1.781h-.333a15.754 15.754 0 0 1 -7.4-1.768 14.3 14.3 0 0 0 -13.714 14.334z"/><path d="m47.907 51.249a10.566 10.566 0 0 1 -8.09-3.688 17.209 17.209 0 0 1 -3.926-12.545.488.488 0 0 1 .5-.44 23.458 23.458 0 0 0 15.609-7.105.5.5 0 0 1 .526-.122c4.695 1.675 6.118 5.912 6.882 8.188.14.416.254.761.365 1.005a.5.5 0 0 1 .045.207c0 6.787-4.443 14.065-11.879 14.5zm-11.066-15.683a16.2 16.2 0 0 0 3.723 11.334 9.46 9.46 0 0 0 7.317 3.354h.026c6.781-.4 10.865-7.1 10.909-13.4-.108-.258-.223-.6-.357-1-.694-2.065-1.971-5.867-5.974-7.453a24.279 24.279 0 0 1 -15.644 7.165z"/></g><path d="m42.375 31.222a.6.6 0 0 1 -.238-1.151 23.493 23.493 0 0 0 6.12-3.839.6.6 0 1 1 .786.906 24.692 24.692 0 0 1 -6.432 4.035.6.6 0 0 1 -.236.049z" fill="#fff"/><path d="m38.765 32.452a.6.6 0 0 1 -.148-1.182q.423-.108.872-.24a.6.6 0 0 1 .341 1.15q-.472.14-.916.253a.6.6 0 0 1 -.149.019z" fill="#fff"/><path d="m17.7 29.319a13.722 13.722 0 1 1 13.725-13.719 13.738 13.738 0 0 1 -13.725 13.719zm0-26.444a12.722 12.722 0 1 0 12.725 12.725 12.736 12.736 0 0 0 -12.725-12.725z" fill="#323c6b"/></svg>