<svg id="color_line" height="512" viewBox="0 0 74 74" width="512" xmlns="http://www.w3.org/2000/svg" data-name="color line"><path d="m70.056 45.465v8.789a3.8 3.8 0 0 1 -3.8 3.8h-58.511a3.8 3.8 0 0 1 -3.8-3.8v-8.789z" fill="#e1e6e9"/><path d="m69.773 45.465v8.789a3.8 3.8 0 0 1 -3.8 3.8h-2.53a3.8 3.8 0 0 0 3.8-3.8v-8.789z" fill="#d5d6db"/><path d="m70.056 10.222v35.243h-66.112v-35.243a3.8 3.8 0 0 1 3.8-3.8h58.51a3.8 3.8 0 0 1 3.802 3.8z" fill="#89c5cd"/><path d="m69.773 10.586v35.244h-2.528v-32.73a3.8 3.8 0 0 0 -3.8-3.8h-58.511a3.758 3.758 0 0 0 -1.1.165 3.781 3.781 0 0 1 3.628-2.68h58.51a3.8 3.8 0 0 1 3.801 3.801z" fill="#6eaaad"/><path d="m48.224 67.5-2.294-9.443h-17.86l-2.294 9.443z" fill="#d5d6db"/><path d="m48.224 68h-22.448a.5.5 0 0 1 -.486-.618l2.294-9.442a.5.5 0 0 1 .486-.382h17.86a.5.5 0 0 1 .486.382l2.294 9.442a.5.5 0 0 1 -.486.618zm-21.812-1h21.176l-2.051-8.442h-17.074z" fill="#323c6b"/><path d="m51.762 68h-29.524a.5.5 0 0 1 0-1h29.524a.5.5 0 0 1 0 1z" fill="#323c6b"/><circle cx="37" cy="51.866" fill="#84879c" r="1.863"/><path d="m37 54.229a2.364 2.364 0 1 1 2.363-2.363 2.366 2.366 0 0 1 -2.363 2.363zm0-3.729a1.364 1.364 0 1 0 1.363 1.364 1.365 1.365 0 0 0 -1.363-1.364z" fill="#323c6b"/><path d="m26.368 23.293h5.049v2.571h-5.049z" fill="#e1e6e9"/><path d="m31.417 26.364h-5.049a.5.5 0 0 1 -.5-.5v-2.571a.5.5 0 0 1 .5-.5h5.048a.5.5 0 0 1 .5.5v2.571a.5.5 0 0 1 -.499.5zm-4.548-1h4.048v-1.571h-4.049z" fill="#323c6b"/><path d="m26.368 35.849h5.049v2.735h-5.049z" fill="#e1e6e9"/><path d="m31.417 39.084h-5.049a.5.5 0 0 1 -.5-.5v-2.734a.5.5 0 0 1 .5-.5h5.048a.5.5 0 0 1 .5.5v2.734a.5.5 0 0 1 -.499.5zm-4.548-1h4.048v-1.734h-4.049z" fill="#323c6b"/><path d="m26.983 25.864h3.819v9.986h-3.819z" fill="#e1e6e9"/><path d="m30.8 36.35h-3.817a.5.5 0 0 1 -.5-.5v-9.986a.5.5 0 0 1 .5-.5h3.817a.5.5 0 0 1 .5.5v9.986a.5.5 0 0 1 -.5.5zm-3.319-1h2.819v-8.986h-2.817z" fill="#323c6b"/><path d="m35.09 25.864h3.819v9.986h-3.819z" fill="#e1e6e9"/><path d="m38.91 36.35h-3.82a.5.5 0 0 1 -.5-.5v-9.986a.5.5 0 0 1 .5-.5h3.82a.5.5 0 0 1 .5.5v9.986a.5.5 0 0 1 -.5.5zm-3.319-1h2.819v-8.986h-2.82z" fill="#323c6b"/><path d="m43.198 25.864h3.819v9.986h-3.819z" fill="#e1e6e9"/><path d="m47.017 36.35h-3.817a.5.5 0 0 1 -.5-.5v-9.986a.5.5 0 0 1 .5-.5h3.819a.5.5 0 0 1 .5.5v9.986a.5.5 0 0 1 -.502.5zm-3.319-1h2.819v-8.986h-2.817z" fill="#323c6b"/><path d="m34.476 23.293h5.049v2.571h-5.049z" fill="#e1e6e9"/><path d="m39.524 26.364h-5.048a.5.5 0 0 1 -.5-.5v-2.571a.5.5 0 0 1 .5-.5h5.049a.5.5 0 0 1 .5.5v2.571a.5.5 0 0 1 -.501.5zm-4.549-1h4.049v-1.571h-4.048z" fill="#323c6b"/><path d="m34.476 35.849h5.049v2.735h-5.049z" fill="#e1e6e9"/><path d="m39.524 39.084h-5.048a.5.5 0 0 1 -.5-.5v-2.734a.5.5 0 0 1 .5-.5h5.049a.5.5 0 0 1 .5.5v2.734a.5.5 0 0 1 -.501.5zm-4.549-1h4.049v-1.734h-4.048z" fill="#323c6b"/><path d="m42.583 23.293h5.049v2.571h-5.049z" fill="#e1e6e9"/><path d="m47.632 26.364h-5.049a.5.5 0 0 1 -.5-.5v-2.571a.5.5 0 0 1 .5-.5h5.048a.5.5 0 0 1 .5.5v2.571a.5.5 0 0 1 -.499.5zm-4.548-1h4.048v-1.571h-4.049z" fill="#323c6b"/><path d="m42.583 35.849h5.049v2.735h-5.049z" fill="#e1e6e9"/><path d="m47.632 39.084h-5.049a.5.5 0 0 1 -.5-.5v-2.734a.5.5 0 0 1 .5-.5h5.048a.5.5 0 0 1 .5.5v2.734a.5.5 0 0 1 -.499.5zm-4.548-1h4.048v-1.734h-4.049z" fill="#323c6b"/><path d="m37 10.583-14.718 12.71h29.436z" fill="#e1e6e9"/><path d="m51.718 23.793h-29.436a.5.5 0 0 1 -.327-.878l14.718-12.715a.5.5 0 0 1 .653 0l14.718 12.71a.5.5 0 0 1 -.327.878zm-28.092-1h26.748l-13.374-11.549z" fill="#323c6b"/><path d="m22.791 37.976h28.418v2.917h-28.418z" fill="#d5d6db"/><path d="m51.209 41.393h-28.418a.5.5 0 0 1 -.5-.5v-2.916a.5.5 0 0 1 .5-.5h28.418a.5.5 0 0 1 .5.5v2.917a.5.5 0 0 1 -.5.499zm-27.918-1h27.418v-1.916h-27.418z" fill="#323c6b"/><circle cx="37" cy="16.226" fill="#84879c" r="1.899"/><g fill="#323c6b"><path d="m37 18.625a2.4 2.4 0 1 1 2.4-2.4 2.4 2.4 0 0 1 -2.4 2.4zm0-3.8a1.4 1.4 0 1 0 1.4 1.4 1.4 1.4 0 0 0 -1.4-1.398z"/><path d="m72.973 53.379a.5.5 0 0 1 -.5-.5v-9.779a.5.5 0 1 1 1 0v9.783a.5.5 0 0 1 -.5.496z"/><path d="m1.027 10.72a.5.5 0 0 1 -.5-.5 7.228 7.228 0 0 1 7.22-7.22.5.5 0 0 1 0 1 6.227 6.227 0 0 0 -6.22 6.22.5.5 0 0 1 -.5.5z"/><path d="m11.256 4h-1.056a.5.5 0 1 1 0-1h1.053a.5.5 0 0 1 0 1z"/><path d="m72.973 41.074a.5.5 0 0 1 -.5-.5v-1.063a.5.5 0 0 1 1 0v1.063a.5.5 0 0 1 -.5.5z"/><path d="m70.056 45.965h-66.112a.5.5 0 0 1 -.5-.5v-35.243a4.306 4.306 0 0 1 4.3-4.3h58.51a4.306 4.306 0 0 1 4.3 4.3v35.243a.5.5 0 0 1 -.498.5zm-65.612-1h65.112v-34.743a3.305 3.305 0 0 0 -3.3-3.3h-58.511a3.305 3.305 0 0 0 -3.3 3.3z"/><path d="m66.255 58.556h-58.51a4.306 4.306 0 0 1 -4.3-4.3v-8.791a.5.5 0 0 1 .5-.5h66.111a.5.5 0 0 1 .5.5v8.789a4.306 4.306 0 0 1 -4.301 4.302zm-61.811-12.591v8.289a3.305 3.305 0 0 0 3.3 3.3h58.51a3.305 3.305 0 0 0 3.3-3.3v-8.289z"/></g><path d="m19.175 42.006h-7.94a.632.632 0 1 1 0-1.264h7.94a.632.632 0 0 1 0 1.264z" fill="#fff"/><path d="m8.435 42.006h-1.063a.632.632 0 1 1 0-1.264h1.063a.632.632 0 1 1 0 1.264z" fill="#fff"/></svg>