<svg id="color_line" height="512" viewBox="0 0 74 74" width="512" xmlns="http://www.w3.org/2000/svg" data-name="color line"><path d="m48.982 4.5h-38.369v68h52.774v-53.595z" fill="#e1e6e9"/><path d="m59.886 17.75v51.37h-49.27v3.38h52.77v-53.6l-1.15-1.15z" fill="#d5d6db"/><path d="m20.519 55.824h7.008v8.673h-7.008z" fill="#fe7058"/><path d="m33.496 43.929h7.008v20.569h-7.008z" fill="#05afd6"/><path d="m46.473 50.244h7.008v14.253h-7.008z" fill="#fcd462"/><path d="m27.526 55.82v8.68h-7.01v-2.21h4.68v-6.47z" fill="#ea6453"/><path d="m40.506 43.93v20.57h-7.01v-2.21h4.67v-18.36z" fill="#27a2db"/><path d="m53.476 50.24v14.26h-7v-2.21h4.67v-12.05z" fill="#f7be56"/><path d="m22.529 47.089a.5.5 0 0 1 -.36-.847l11.651-12.1a.5.5 0 0 1 .647-.062l10.66 7.48 5.859-6.329a.5.5 0 1 1 .733.68l-6.155 6.649a.5.5 0 0 1 -.654.069l-10.666-7.484-11.354 11.791a.5.5 0 0 1 -.361.153z" fill="#323c6b"/><path d="m47.427 32.431 7.43 6.402 1.669-9.206z" fill="#9297ab"/><g fill="#323c6b"><path d="m54.857 39.333a.5.5 0 0 1 -.326-.121l-7.43-6.4a.5.5 0 0 1 .179-.857l9.1-2.8a.5.5 0 0 1 .64.567l-1.67 9.201a.5.5 0 0 1 -.325.382.5.5 0 0 1 -.168.028zm-6.419-6.691 6.083 5.242 1.366-7.537z"/><path d="m31.247 12.2h-12.069a.5.5 0 0 1 0-1h12.069a.5.5 0 0 1 0 1z"/><path d="m25.213 18.021h-6.035a.5.5 0 0 1 0-1h6.035a.5.5 0 0 1 0 1z"/><path d="m7.613 9.167a.5.5 0 0 1 -.5-.5v-7.167a.5.5 0 0 1 .5-.5h3a.5.5 0 0 1 0 1h-2.5v6.667a.5.5 0 0 1 -.5.5z"/><path d="m13.892 2h-.8a.5.5 0 0 1 0-1h.8a.5.5 0 0 1 0 1z"/><path d="m66.387 50.125a.5.5 0 0 1 -.5-.5v-.937a.5.5 0 0 1 1 0v.938a.5.5 0 0 1 -.5.499z"/><path d="m66.387 62.25a.5.5 0 0 1 -.5-.5v-9.469a.5.5 0 0 1 1 0v9.469a.5.5 0 0 1 -.5.5z"/></g><path d="m48.982 18.905h14.405l-14.405-14.405z" fill="#e1e6e9"/><path d="m63.387 19.4h-14.4a.5.5 0 0 1 -.5-.5v-14.4a.5.5 0 0 1 .854-.354l14.4 14.4a.5.5 0 0 1 -.354.854zm-13.9-1h12.7l-12.7-12.7z" fill="#323c6b"/><path d="m63.387 73h-52.774a.5.5 0 0 1 -.5-.5v-68a.5.5 0 0 1 .5-.5h38.369a.5.5 0 0 1 .354.146l14.4 14.4a.5.5 0 0 1 .146.354v53.6a.5.5 0 0 1 -.495.5zm-52.274-1h51.774v-52.889l-14.112-14.111h-37.662z" fill="#323c6b"/><path d="m27.527 65h-7.008a.5.5 0 0 1 -.5-.5v-8.676a.5.5 0 0 1 .5-.5h7.008a.5.5 0 0 1 .5.5v8.676a.5.5 0 0 1 -.5.5zm-6.508-1h6.008v-7.676h-6.008z" fill="#323c6b"/><path d="m40.5 65h-7a.5.5 0 0 1 -.5-.5v-20.571a.5.5 0 0 1 .5-.5h7a.5.5 0 0 1 .5.5v20.571a.5.5 0 0 1 -.5.5zm-6.5-1h6v-19.571h-6z" fill="#323c6b"/><path d="m53.481 65h-7.007a.5.5 0 0 1 -.5-.5v-14.255a.5.5 0 0 1 .5-.5h7.007a.5.5 0 0 1 .5.5v14.255a.5.5 0 0 1 -.5.5zm-6.507-1h6.007v-13.255h-6.007z" fill="#323c6b"/></svg>