<svg id="color_line" height="512" viewBox="0 0 74 74" width="512" xmlns="http://www.w3.org/2000/svg" data-name="color line"><path d="m15.045 8.34h-7.21a3 3 0 0 0 -3 3v56.66a3 3 0 0 0 3 3h58.88a3 3 0 0 0 3-3v-56.66a3 3 0 0 0 -3-3h-7.215" fill="#e1e6e9"/><path d="m66.71 24.5v40.29a3 3 0 0 1 -3 3h-58.88v.21a3 3 0 0 0 3 3h58.88a3 3 0 0 0 3-3v-43.5z" fill="#d5d6db"/><path d="m15.045 8.34h-7.21a3 3 0 0 0 -3 3v13.16h64.88v-13.16a3 3 0 0 0 -3-3z" fill="#fe7058"/><path d="m69.71 11.34v13.16h-3.06v-10.28a3 3 0 0 0 -3-3h-58.81a2.99 2.99 0 0 1 2.99-2.88h58.88a3 3 0 0 1 3 3z" fill="#ea6453"/><path d="m63.801 24.5h-53.052v39h41.526l11.526-11.526z" fill="#eeefee"/><path d="m52.275 64h-41.526a.5.5 0 0 1 -.5-.5v-39a.5.5 0 0 1 .5-.5h53.051a.5.5 0 0 1 .5.5v27.474a.5.5 0 0 1 -.146.354l-11.525 11.526a.5.5 0 0 1 -.354.146zm-41.026-1h40.819l11.232-11.233v-26.767h-52.051z" fill="#323c6b"/><path d="m52.275 63.5 11.526-11.526h-11.526z" fill="#d5d6db"/><path d="m52.275 64a.494.494 0 0 1 -.191-.038.5.5 0 0 1 -.309-.462v-11.526a.5.5 0 0 1 .5-.5h11.525a.5.5 0 0 1 .354.854l-11.525 11.526a.5.5 0 0 1 -.354.146zm.5-11.526v9.819l9.818-9.819z" fill="#323c6b"/><path d="m17.212 31.625h7.625v7.625h-7.625z" fill="#d5d6db"/><path d="m24.837 39.75h-7.624a.5.5 0 0 1 -.5-.5v-7.625a.5.5 0 0 1 .5-.5h7.624a.5.5 0 0 1 .5.5v7.625a.5.5 0 0 1 -.5.5zm-7.124-1h6.624v-6.625h-6.624z" fill="#323c6b"/><path d="m33.463 31.625h7.625v7.625h-7.625z" fill="#d5d6db"/><path d="m41.087 39.75h-7.624a.5.5 0 0 1 -.5-.5v-7.625a.5.5 0 0 1 .5-.5h7.624a.5.5 0 0 1 .5.5v7.625a.5.5 0 0 1 -.5.5zm-7.124-1h6.624v-6.625h-6.624z" fill="#323c6b"/><path d="m49.213 31.625h7.625v7.625h-7.625z" fill="#d5d6db"/><path d="m56.838 39.75h-7.625a.5.5 0 0 1 -.5-.5v-7.625a.5.5 0 0 1 .5-.5h7.625a.5.5 0 0 1 .5.5v7.625a.5.5 0 0 1 -.5.5zm-7.125-1h6.625v-6.625h-6.625z" fill="#323c6b"/><path d="m17.212 48.044h7.625v7.625h-7.625z" fill="#d5d6db"/><path d="m24.837 56.169h-7.624a.5.5 0 0 1 -.5-.5v-7.625a.5.5 0 0 1 .5-.5h7.624a.5.5 0 0 1 .5.5v7.625a.5.5 0 0 1 -.5.5zm-7.124-1h6.624v-6.625h-6.624z" fill="#323c6b"/><path d="m33.463 48.044h7.625v7.625h-7.625z" fill="#d5d6db"/><g fill="#323c6b"><path d="m41.087 56.169h-7.624a.5.5 0 0 1 -.5-.5v-7.625a.5.5 0 0 1 .5-.5h7.624a.5.5 0 0 1 .5.5v7.625a.5.5 0 0 1 -.5.5zm-7.124-1h6.624v-6.625h-6.624z"/><path d="m72.715 59.375a.5.5 0 0 1 -.5-.5v-10.312a.5.5 0 0 1 1 0v10.312a.5.5 0 0 1 -.5.5z"/><path d="m1.835 17.292a.5.5 0 0 1 -.5-.5v-.708a.5.5 0 0 1 1 0v.708a.5.5 0 0 1 -.5.5z"/><path d="m72.715 46.75a.5.5 0 0 1 -.5-.5v-.812a.5.5 0 0 1 1 0v.813a.5.5 0 0 1 -.5.499z"/><path d="m1.835 14.125a.5.5 0 0 1 -.5-.5v-2.285a6.55 6.55 0 0 1 4.141-6.057.5.5 0 1 1 .363.932 5.543 5.543 0 0 0 -3.5 5.125v2.285a.5.5 0 0 1 -.504.5z"/><path d="m69.715 25h-64.88a.5.5 0 0 1 -.5-.5v-13.16a3.5 3.5 0 0 1 3.5-3.5h58.88a3.5 3.5 0 0 1 3.5 3.5v13.16a.5.5 0 0 1 -.5.5zm-64.38-1h63.88v-12.66a2.5 2.5 0 0 0 -2.5-2.5h-58.88a2.5 2.5 0 0 0 -2.5 2.5z"/></g><rect fill="#84879c" height="11.542" rx="1.459" width="6.623" x="15.045" y="3"/><path d="m20.209 15.042h-3.709a1.961 1.961 0 0 1 -1.959-1.958v-8.626a1.961 1.961 0 0 1 1.959-1.958h3.705a1.961 1.961 0 0 1 1.959 1.958v8.625a1.961 1.961 0 0 1 -1.955 1.959zm-3.709-11.542a.96.96 0 0 0 -.959.958v8.625a.96.96 0 0 0 .959.958h3.705a.96.96 0 0 0 .959-.958v-8.625a.96.96 0 0 0 -.959-.958z" fill="#323c6b"/><rect fill="#84879c" height="11.542" rx="1.459" width="6.623" x="52.882" y="3"/><path d="m58.046 15.042h-3.705a1.961 1.961 0 0 1 -1.959-1.958v-8.626a1.961 1.961 0 0 1 1.959-1.958h3.705a1.961 1.961 0 0 1 1.954 1.958v8.625a1.961 1.961 0 0 1 -1.954 1.959zm-3.705-11.542a.96.96 0 0 0 -.959.958v8.625a.96.96 0 0 0 .959.958h3.705a.96.96 0 0 0 .954-.958v-8.625a.96.96 0 0 0 -.959-.958z" fill="#323c6b"/><path d="m66.715 71.5h-58.88a3.5 3.5 0 0 1 -3.5-3.5v-43.5a.5.5 0 0 1 .5-.5h64.88a.5.5 0 0 1 .5.5v43.5a3.5 3.5 0 0 1 -3.5 3.5zm-61.38-46.5v43a2.5 2.5 0 0 0 2.5 2.5h58.88a2.5 2.5 0 0 0 2.5-2.5v-43z" fill="#323c6b"/><path d="m45.75 21.837h-10.688a.65.65 0 1 1 0-1.3h10.688a.65.65 0 1 1 0 1.3z" fill="#fff"/><path d="m31.625 21.837h-.813a.65.65 0 1 1 0-1.3h.813a.65.65 0 1 1 0 1.3z" fill="#fff"/></svg>