<svg id="color_line" height="512" viewBox="0 0 74 74" width="512" xmlns="http://www.w3.org/2000/svg" data-name="color line"><path d="m31.617 56.859h-21.623a4.508 4.508 0 0 1 -4.506-4.506v-44.847a4.508 4.508 0 0 1 4.506-4.506h40.728a4.508 4.508 0 0 1 4.506 4.506v36.742" fill="#eeefee"/><path d="m55.23 7.51v36.74l-2.5 1.34v-35.58a4.511 4.511 0 0 0 -4.51-4.51h-40.73a4.432 4.432 0 0 0 -1.67.32 4.494 4.494 0 0 1 4.17-2.82h40.73a4.511 4.511 0 0 1 4.51 4.51z" fill="#d5d6db"/><path d="m39.314 52.18h-25.982a2.169 2.169 0 0 1 -2.166-2.167v-40.178a2.168 2.168 0 0 1 2.166-2.166h35.062a2.168 2.168 0 0 1 2.166 2.166v35.321a2.163 2.163 0 0 1 -1.145 1.91l-9.078 4.857a2.177 2.177 0 0 1 -1.023.257zm-25.982-43.511a1.167 1.167 0 0 0 -1.166 1.166v40.179a1.168 1.168 0 0 0 1.166 1.167h25.982a1.178 1.178 0 0 0 .551-.138l9.077-4.857a1.164 1.164 0 0 0 .617-1.028v-35.323a1.167 1.167 0 0 0 -1.166-1.166z" fill="#323c6b"/><path d="m23.851 12.5h21.398v10.458h-21.398z" fill="#89c5cd"/><path d="m45.25 12.5v10.46h-2.17v-8.55h-19.23v-1.91z" fill="#6eaaad"/><path d="m15.085 15.554v7.166a1.143 1.143 0 0 1 -1.139 1.149h-2.873a1.151 1.151 0 0 1 -1.148-1.149v-7.166a1.145 1.145 0 0 1 1.149-1.149h2.872a1.137 1.137 0 0 1 1.139 1.149z" fill="#9297ab"/><path d="m13.945 24.369h-2.872a1.65 1.65 0 0 1 -1.648-1.649v-7.166a1.65 1.65 0 0 1 1.648-1.649h2.872a1.646 1.646 0 0 1 1.64 1.649v7.166a1.646 1.646 0 0 1 -1.64 1.649zm-2.872-9.463a.642.642 0 0 0 -.648.649v7.165a.649.649 0 0 0 .648.649h2.872a.645.645 0 0 0 .64-.649v-7.166a.638.638 0 0 0 -.64-.649z" fill="#323c6b"/><path d="m15.085 37.136v7.164a1.143 1.143 0 0 1 -1.139 1.149h-2.873a1.151 1.151 0 0 1 -1.148-1.149v-7.164a1.151 1.151 0 0 1 1.149-1.149h2.872a1.143 1.143 0 0 1 1.139 1.149z" fill="#9297ab"/><path d="m13.945 45.951h-2.872a1.65 1.65 0 0 1 -1.648-1.651v-7.164a1.65 1.65 0 0 1 1.648-1.648h2.872a1.646 1.646 0 0 1 1.64 1.648v7.164a1.646 1.646 0 0 1 -1.64 1.651zm-2.872-9.463a.649.649 0 0 0 -.648.648v7.164a.649.649 0 0 0 .648.649h2.872a.645.645 0 0 0 .64-.649v-7.164a.645.645 0 0 0 -.64-.648z" fill="#323c6b"/><path d="m24.008 26.73h4.34v4.34h-4.34z" fill="#9297ab"/><path d="m28.348 31.57h-4.34a.5.5 0 0 1 -.5-.5v-4.34a.5.5 0 0 1 .5-.5h4.34a.5.5 0 0 1 .5.5v4.34a.5.5 0 0 1 -.5.5zm-3.84-1h3.34v-3.34h-3.34z" fill="#323c6b"/><path d="m32.38 26.73h4.34v4.34h-4.34z" fill="#9297ab"/><path d="m36.72 31.57h-4.34a.5.5 0 0 1 -.5-.5v-4.34a.5.5 0 0 1 .5-.5h4.34a.5.5 0 0 1 .5.5v4.34a.5.5 0 0 1 -.5.5zm-3.84-1h3.34v-3.34h-3.34z" fill="#323c6b"/><path d="m40.753 26.73h4.34v4.34h-4.34z" fill="#9297ab"/><path d="m45.093 31.57h-4.34a.5.5 0 0 1 -.5-.5v-4.34a.5.5 0 0 1 .5-.5h4.34a.5.5 0 0 1 .5.5v4.34a.5.5 0 0 1 -.5.5zm-3.84-1h3.34v-3.34h-3.34z" fill="#323c6b"/><path d="m24.008 34.919h4.34v4.34h-4.34z" fill="#9297ab"/><path d="m28.348 39.758h-4.34a.5.5 0 0 1 -.5-.5v-4.339a.5.5 0 0 1 .5-.5h4.34a.5.5 0 0 1 .5.5v4.339a.5.5 0 0 1 -.5.5zm-3.84-1h3.34v-3.339h-3.34z" fill="#323c6b"/><path d="m36.724 35.521v-.601h-4.342v4.343h.999" fill="#9297ab"/><path d="m33.381 39.763h-1a.5.5 0 0 1 -.5-.5v-4.343a.5.5 0 0 1 .5-.5h4.343a.5.5 0 0 1 .5.5v.6a.5.5 0 0 1 -1 0v-.1h-3.342v3.343h.5a.5.5 0 1 1 0 1z" fill="#323c6b"/><path d="m40.753 34.919h4.34v4.34h-4.34z" fill="#9297ab"/><path d="m45.093 39.758h-4.34a.5.5 0 0 1 -.5-.5v-4.339a.5.5 0 0 1 .5-.5h4.34a.5.5 0 0 1 .5.5v4.339a.5.5 0 0 1 -.5.5zm-3.84-1h3.34v-3.339h-3.34z" fill="#323c6b"/><path d="m24.008 43.108h4.34v4.34h-4.34z" fill="#9297ab"/><path d="m28.348 47.947h-4.34a.5.5 0 0 1 -.5-.5v-4.34a.5.5 0 0 1 .5-.5h4.34a.5.5 0 0 1 .5.5v4.34a.5.5 0 0 1 -.5.5zm-3.84-1h3.34v-3.34h-3.34z" fill="#323c6b"/><path d="m36.724 45.818v1.631h-4.342v-4.343h2.956" fill="#9297ab"/><path d="m36.725 47.949h-4.343a.5.5 0 0 1 -.5-.5v-4.343a.5.5 0 0 1 .5-.5h2.956a.5.5 0 0 1 0 1h-2.456v3.343h3.343v-1.131a.5.5 0 0 1 1 0v1.631a.5.5 0 0 1 -.5.5z" fill="#323c6b"/><path d="m41.751 43.106h3.343v4.343h-1.121" fill="#9297ab"/><path d="m45.095 47.949h-1.122a.5.5 0 0 1 0-1h.622v-3.343h-2.844a.5.5 0 0 1 0-1h3.344a.5.5 0 0 1 .5.5v4.343a.5.5 0 0 1 -.5.5z" fill="#323c6b"/><path d="m68.116 58.622-5.9-11.505a5.824 5.824 0 0 0 -7.216-2.802l-10.606 3.945-5.728-11.172a2.965 2.965 0 0 0 -3.779-1.448 2.856 2.856 0 0 0 -1.377 3.91l8.12 15.837-5-2.013a3.666 3.666 0 0 0 -4.63 1.597 3.564 3.564 0 0 0 1.826 4.955l11.738 4.792 2.22 4.328a3.592 3.592 0 0 0 4.838 1.554l13.936-7.146a3.592 3.592 0 0 0 1.558-4.832z" fill="#fcd462"/><path d="m38.67 37.09 5.615 11.217-2.21.82-6.655-13.247a2.5 2.5 0 0 0 -.21-.35 2.984 2.984 0 0 1 3.46 1.56z" fill="#f7be56"/><path d="m66.56 63.46-13.94 7.14a3.583 3.583 0 0 1 -4.36-.85 3.794 3.794 0 0 0 1.11-.36l13.94-7.14a3.608 3.608 0 0 0 1.56-4.84l-5.9-11.5a5.768 5.768 0 0 0 -1.63-1.95 5.822 5.822 0 0 1 4.88 3.16l5.9 11.5a3.607 3.607 0 0 1 -1.56 4.84z" fill="#f7be56"/><g fill="#323c6b"><path d="m2.487 11.75a.5.5 0 0 1 -.5-.5v-.54a.5.5 0 0 1 1 0v.54a.5.5 0 0 1 -.5.5z"/><path d="m2.487 8.669a.5.5 0 0 1 -.5-.5v-.663a7.953 7.953 0 0 1 3.784-6.791.5.5 0 1 1 .527.849 6.961 6.961 0 0 0 -3.311 5.942v.663a.5.5 0 0 1 -.5.5z"/><path d="m69.375 65.61a.5.5 0 0 1 -.339-.868 6.114 6.114 0 0 0 1.3-7.262l-.113-.194a.5.5 0 0 1 .865-.5l.126.217a7.123 7.123 0 0 1 -1.5 8.477.5.5 0 0 1 -.339.13z"/><path d="m69.679 55.754a.5.5 0 0 1 -.444-.271l-.38-.74a.5.5 0 1 1 .889-.457l.38.74a.5.5 0 0 1 -.444.729z"/><path d="m50.989 71.5a4.1 4.1 0 0 1 -3.648-2.225l-2.135-4.163-11.566-4.723a4.064 4.064 0 0 1 -2.081-5.648 4.179 4.179 0 0 1 5.263-1.831l3.752 1.512-7.51-14.644a3.356 3.356 0 0 1 1.617-4.595 3.487 3.487 0 0 1 4.43 1.676l5.525 10.776 10.193-3.79a6.327 6.327 0 0 1 7.831 3.042l5.9 11.5a4.1 4.1 0 0 1 -1.773 5.513l-13.936 7.148a4.072 4.072 0 0 1 -1.862.452zm-15.789-17.9a3.077 3.077 0 0 0 -2.753 1.6 3.042 3.042 0 0 0 -.159 2.484 3.074 3.074 0 0 0 1.728 1.777l11.74 4.793a.5.5 0 0 1 .256.235l2.22 4.328a3.1 3.1 0 0 0 4.162 1.341l13.936-7.145a3.1 3.1 0 0 0 1.341-4.163l-5.9-11.5a5.321 5.321 0 0 0 -6.593-2.561l-10.61 3.94a.5.5 0 0 1 -.619-.241l-5.728-11.172a2.472 2.472 0 0 0 -3.13-1.22 2.355 2.355 0 0 0 -1.136 3.227l8.12 15.836a.5.5 0 0 1 -.632.692l-5-2.013a3.33 3.33 0 0 0 -1.243-.238z"/></g><path d="m45.377 62.2a.646.646 0 0 1 -.246-.049l-1.092-.451a.65.65 0 0 1 .492-1.2l1.092.446a.65.65 0 0 1 -.246 1.252z" fill="#fff"/><path d="m41.817 60.744a.646.646 0 0 1 -.246-.049l-6.279-2.563a.65.65 0 0 1 .492-1.2l6.279 2.563a.65.65 0 0 1 -.246 1.252z" fill="#fff"/><path d="m31.617 57.359h-21.623a5.012 5.012 0 0 1 -5.007-5.006v-44.847a5.012 5.012 0 0 1 5.007-5.006h40.728a5.012 5.012 0 0 1 5.006 5.006v36.742a.5.5 0 1 1 -1 0v-36.742a4.01 4.01 0 0 0 -4.006-4.006h-40.728a4.011 4.011 0 0 0 -4.007 4.006v44.847a4.011 4.011 0 0 0 4.007 4.006h21.623a.5.5 0 0 1 0 1z" fill="#323c6b"/><path d="m45.249 23.458h-21.4a.5.5 0 0 1 -.5-.5v-10.458a.5.5 0 0 1 .5-.5h21.4a.5.5 0 0 1 .5.5v10.458a.5.5 0 0 1 -.5.5zm-20.9-1h20.4v-9.458h-20.4z" fill="#323c6b"/></svg>