<svg id="color_line" height="512" viewBox="0 0 74 74" width="512" xmlns="http://www.w3.org/2000/svg" data-name="color line"><path d="m9.74 36.823h8.42v30.34h-8.42z" fill="#fe7058"/><path d="m39.45 46.883h8.41v20.28h-8.41z" fill="#27ccbc"/><path d="m24.59 22.493h8.42v44.67h-8.42z" fill="#89c5cd"/><path d="m54.3 34.883h8.42v32.28h-8.42z" fill="#fcd462"/><path d="m15.16 36.82h3v30.34h-3z" fill="#ea6453"/><path d="m44.86 46.88h3v20.28h-3z" fill="#21b3a9"/><path d="m30.01 22.49h3v44.67h-3z" fill="#6eaaad"/><path d="m59.72 34.88h3v32.28h-3z" fill="#f7be56"/><path d="m50.781 3.07c-10.741 0-19.448 9.883-19.448 9.883s8.707 9.883 19.448 9.883 19.448-9.883 19.448-9.883-8.707-9.883-19.448-9.883z" fill="#e1e6e9"/><path d="m70.23 12.95s-8.71 9.88-19.45 9.88-19.45-9.88-19.45-9.88l.02-.02c3.03 2.83 9.84 8.2 17.76 8.2 10.44 0 18.95-9.33 19.43-9.87 1.09 1.01 1.69 1.69 1.69 1.69z" fill="#d5d6db"/><path d="m50.475 22.833a9.881 9.881 0 1 1 9.881-9.881 9.892 9.892 0 0 1 -9.881 9.881z" fill="#fcd462"/><path d="m60.36 12.95a9.848 9.848 0 0 1 -3.56 7.58 9.874 9.874 0 0 0 -14.24-13.49 9.882 9.882 0 0 1 17.8 5.91z" fill="#f7be56"/><g fill="#323c6b"><path d="m49.957 18.466v-.8a4.438 4.438 0 0 1 -2.331-.666l.365-1.021a4.06 4.06 0 0 0 2.194.655c1.082 0 1.813-.625 1.813-1.493 0-.838-.594-1.356-1.722-1.813-1.554-.609-2.514-1.31-2.514-2.636a2.5 2.5 0 0 1 2.3-2.454v-.8h.944v.737a4.064 4.064 0 0 1 1.981.534l-.381 1.006a3.682 3.682 0 0 0 -1.92-.518c-1.174 0-1.615.7-1.615 1.31 0 .792.564 1.189 1.89 1.737 1.57.64 2.362 1.432 2.362 2.789a2.651 2.651 0 0 1 -2.408 2.591v.844z"/><path d="m6.74 41.594a.5.5 0 0 1 -.5-.5v-.312a.5.5 0 0 1 1 0v.313a.5.5 0 0 1 -.5.499z"/><path d="m6.74 39.031a.5.5 0 0 1 -.5-.5v-4.708a.5.5 0 0 1 .5-.5h3.51a.5.5 0 0 1 0 1h-3.01v4.208a.5.5 0 0 1 -.5.5z"/><path d="m61.25 3.113a.5.5 0 0 1 -.216-.049c-.239-.115-.486-.223-.731-.332l.114-.5.2-.458c.343.15.6.263.848.382a.5.5 0 0 1 -.216.951z"/><path d="m70.333 9.33a.5.5 0 0 1 -.333-.13 39.512 39.512 0 0 0 -6.416-4.777.5.5 0 1 1 .508-.861 40.537 40.537 0 0 1 6.584 4.9.5.5 0 0 1 -.338.869z"/><path d="m50.781 23.334c-10.843 0-19.462-9.641-19.823-10.052a.5.5 0 0 1 0-.661c.361-.411 8.98-10.052 19.823-10.052s19.461 9.642 19.819 10.053a.5.5 0 0 1 0 .661c-.358.41-8.977 10.051-19.819 10.051zm-18.765-10.382c1.627 1.7 9.484 9.382 18.766 9.382s17.139-7.68 18.765-9.382c-1.627-1.7-9.484-9.383-18.765-9.383s-17.14 7.681-18.766 9.383z"/><path d="m50.475 23.333a10.381 10.381 0 1 1 10.381-10.381 10.393 10.393 0 0 1 -10.381 10.381zm0-19.763a9.381 9.381 0 1 0 9.382 9.381 9.392 9.392 0 0 0 -9.382-9.38z"/><path d="m18.16 67.664h-8.42a.5.5 0 0 1 -.5-.5v-30.341a.5.5 0 0 1 .5-.5h8.42a.5.5 0 0 1 .5.5v30.34a.5.5 0 0 1 -.5.501zm-7.92-1h7.42v-29.341h-7.42z"/><path d="m47.86 67.664h-8.41a.5.5 0 0 1 -.5-.5v-20.281a.5.5 0 0 1 .5-.5h8.41a.5.5 0 0 1 .5.5v20.28a.5.5 0 0 1 -.5.501zm-7.91-1h7.41v-19.281h-7.41z"/><path d="m33.01 67.664h-8.42a.5.5 0 0 1 -.5-.5v-44.67a.5.5 0 0 1 .5-.5h8.42a.5.5 0 0 1 .5.5v44.67a.5.5 0 0 1 -.5.5zm-7.92-1h7.42v-43.67h-7.42z"/><path d="m62.72 67.664h-8.42a.5.5 0 0 1 -.5-.5v-32.281a.5.5 0 0 1 .5-.5h8.42a.5.5 0 0 1 .5.5v32.28a.5.5 0 0 1 -.5.501zm-7.92-1h7.42v-31.281h-7.42z"/></g><path d="m4.5 66.625h63.46v4.375h-63.46z" fill="#84879c"/><path d="m67.96 71.5h-63.46a.5.5 0 0 1 -.5-.5v-4.375a.5.5 0 0 1 .5-.5h63.46a.5.5 0 0 1 .5.5v4.375a.5.5 0 0 1 -.5.5zm-62.96-1h62.46v-3.375h-62.46z" fill="#323c6b"/><path d="m56.875 54.8a.65.65 0 0 1 -.65-.65v-.617a.65.65 0 0 1 1.3 0v.617a.65.65 0 0 1 -.65.65z" fill="#fff"/><path d="m56.875 51.67a.65.65 0 0 1 -.65-.65v-8.12a.65.65 0 0 1 1.3 0v8.12a.65.65 0 0 1 -.65.65z" fill="#fff"/></svg>