<svg id="color_line" height="512" viewBox="0 0 74 74" width="512" xmlns="http://www.w3.org/2000/svg" data-name="color line"><path d="m40.975 59.27h-37.975a.5.5 0 0 1 -.5-.5v-45.414a.5.5 0 1 1 1 0v44.914h37.475a.5.5 0 1 1 0 1z" fill="#323c6b"/><path d="m8.534 38.819h5.834v15.02h-5.834z" fill="#89c5cd"/><path d="m19.49 28.44h5.834v25.398h-5.834z" fill="#fcd462"/><path d="m30.447 38.819h5.834v15.02h-5.834z" fill="#fe7058"/><path d="m14.37 38.82v15.02h-5.84v-1.68h3.83v-13.34z" fill="#84bcc1"/><path d="m25.32 28.44v25.4h-5.83v-1.68h3.83v-23.72z" fill="#f7be56"/><path d="m36.28 38.82v15.02h-5.83v-1.68h3.83v-13.34z" fill="#ea6453"/><path d="m70.228 54.506c-1.969 2.826-7.86 4.249-13.765 4.264h-.063c-5.906-.015-11.8-1.438-13.765-4.264-3.472-4.99 5.695-17.6 9.058-21.923a1.359 1.359 0 0 0 .429.065h8.586a1.36 1.36 0 0 0 .45-.073c3.368 4.316 12.542 16.94 9.07 21.931z" fill="#27ccbc"/><path d="m70.23 54.51c-1.97 2.82-7.86 4.25-13.77 4.26h-.06c-5.04-.01-10.07-1.05-12.66-3.11a28.58 28.58 0 0 0 10.01 1.63h.05c5.91-.01 11.8-1.43 13.77-4.26 3.12-4.49-3.98-15.14-7.89-20.38h1.03a1.365 1.365 0 0 0 .45-.07c3.37 4.31 12.54 16.94 9.07 21.93z" fill="#21b3a9"/><path d="m63.93 25-2.768 4.627a1.36 1.36 0 0 0 -.45-.073h-8.586a1.367 1.367 0 0 0 -.385.051l-2.84-5a1.751 1.751 0 0 1 1.881-2.513l.53.1a3.923 3.923 0 0 0 1.743 0l2.266-.5a4.029 4.029 0 0 1 2.339.189l1.482.574a4.03 4.03 0 0 0 2.753.073 1.7 1.7 0 0 1 .494-.073 1.751 1.751 0 0 1 1.541 2.545z" fill="#27ccbc"/><path d="m62.39 22.46a1.659 1.659 0 0 0 -.49.07 4.053 4.053 0 0 1 -1.838.158v.047c.012 0 .025-.005.037-.005a1.747 1.747 0 0 1 1.54 2.54l-2.56 4.28h1.63a1.373 1.373 0 0 1 .45.08l2.771-4.63a1.747 1.747 0 0 0 -1.54-2.54z" fill="#21b3a9"/><circle cx="56.503" cy="46.832" fill="#fcd462" r="5.332"/><path d="m61.84 46.83a5.332 5.332 0 0 1 -9.58 3.22 5.336 5.336 0 0 0 8.08-4.57 5.235 5.235 0 0 0 -1.09-3.22 5.326 5.326 0 0 1 2.59 4.57z" fill="#f7be56"/><path d="m56.2 50.05v-.466a2.59 2.59 0 0 1 -1.36-.391l.213-.6a2.369 2.369 0 0 0 1.28.382c.631 0 1.058-.365 1.058-.871 0-.489-.347-.791-1-1.058-.907-.355-1.467-.765-1.467-1.538a1.459 1.459 0 0 1 1.343-1.432v-.466h.551v.43a2.372 2.372 0 0 1 1.156.311l-.222.587a2.149 2.149 0 0 0 -1.12-.3c-.685 0-.943.409-.943.765 0 .462.329.694 1.1 1.014.916.374 1.378.836 1.378 1.627a1.547 1.547 0 0 1 -1.4 1.512v.492z" fill="#323c6b"/><path d="m62.26 31.1a1.543 1.543 0 0 1 -.458 1.1 1.5 1.5 0 0 1 -.639.378 1.36 1.36 0 0 1 -.45.073h-8.587a1.359 1.359 0 0 1 -.429-.065 1.538 1.538 0 0 1 -1.118-1.486 1.567 1.567 0 0 1 .45-1.1 1.541 1.541 0 0 1 .712-.4 1.367 1.367 0 0 1 .385-.051h8.586a1.36 1.36 0 0 1 .45.073 1.541 1.541 0 0 1 1.098 1.478z" fill="#e1e6e9"/><path d="m60.713 33.148h-8.587a1.842 1.842 0 0 1 -.586-.091 2.036 2.036 0 0 1 -1.461-1.957 2.064 2.064 0 0 1 .592-1.445 2.033 2.033 0 0 1 .956-.538 1.787 1.787 0 0 1 .5-.064h8.587a1.86 1.86 0 0 1 .615.1 2.04 2.04 0 0 1 .827 3.4 2 2 0 0 1 -.851.5 1.809 1.809 0 0 1 -.592.095zm-8.587-3.095a.866.866 0 0 0 -.243.031 1.027 1.027 0 0 0 -.8 1.017 1.041 1.041 0 0 0 .754 1 .913.913 0 0 0 .293.047h8.587a.861.861 0 0 0 .283-.048 1.027 1.027 0 0 0 .449-.258 1.041 1.041 0 0 0 -.428-1.74.907.907 0 0 0 -.307-.052z" fill="#323c6b"/><circle cx="11.45" cy="30.526" fill="#e1e6e9" r="2.926"/><path d="m11.45 33.952a3.426 3.426 0 1 1 3.426-3.426 3.43 3.43 0 0 1 -3.426 3.426zm0-5.852a2.426 2.426 0 1 0 2.426 2.426 2.428 2.428 0 0 0 -2.426-2.426z" fill="#323c6b"/><circle cx="22.407" cy="19.364" fill="#e1e6e9" r="2.926"/><path d="m22.407 22.79a3.426 3.426 0 1 1 3.426-3.426 3.43 3.43 0 0 1 -3.426 3.426zm0-5.852a2.426 2.426 0 1 0 2.426 2.426 2.428 2.428 0 0 0 -2.426-2.426z" fill="#323c6b"/><circle cx="33.364" cy="31.463" fill="#e1e6e9" r="2.926"/><g fill="#323c6b"><path d="m33.364 34.889a3.426 3.426 0 1 1 3.426-3.426 3.43 3.43 0 0 1 -3.426 3.426zm0-5.852a2.426 2.426 0 1 0 2.426 2.426 2.428 2.428 0 0 0 -2.426-2.426z"/><path d="m13.5 28.94a.5.5 0 0 1 -.356-.85l6.856-6.984a.5.5 0 1 1 .713.7l-6.853 6.984a.5.5 0 0 1 -.36.15z"/><path d="m31.4 29.793a.5.5 0 0 1 -.37-.165l-7.03-7.761a.5.5 0 1 1 .74-.671l7.03 7.761a.5.5 0 0 1 -.37.835z"/><path d="m70.058 40.813a.5.5 0 0 1 -.435-.253c-.974-1.712-2.12-3.516-3.408-5.359a.5.5 0 0 1 .82-.572c1.3 1.868 2.469 3.7 3.457 5.437a.5.5 0 0 1 -.435.747z"/><path d="m71.574 43.719a.5.5 0 0 1 -.448-.279q-.16-.324-.327-.649a.5.5 0 0 1 .891-.456q.17.333.333.664a.5.5 0 0 1 -.448.721z"/><path d="m56.464 59.27c-5.168-.013-11.946-1.193-14.234-4.478-3.6-5.171 5.146-17.469 9.074-22.516a.5.5 0 0 1 .553-.167.869.869 0 0 0 .27.04h8.587a.861.861 0 0 0 .286-.049.5.5 0 0 1 .56.165c3.932 5.045 12.688 17.338 9.081 22.523-2.29 3.289-9.069 4.469-14.177 4.482zm-4.564-26.134c-3.146 4.078-12.091 16.426-8.85 21.084 1.7 2.444 6.945 4.033 13.356 4.049 6.466-.016 11.709-1.605 13.412-4.049 3.248-4.67-5.7-17.008-8.855-21.087a2.01 2.01 0 0 1 -.25.016h-8.587a1.981 1.981 0 0 1 -.226-.013z"/><path d="m61.163 30.126a.5.5 0 0 1 -.163-.026.861.861 0 0 0 -.285-.045h-8.589a.866.866 0 0 0 -.243.031.5.5 0 0 1 -.576-.232l-2.84-5a2.25 2.25 0 0 1 2.408-3.254l.531.1a3.462 3.462 0 0 0 1.539 0l2.269-.5a4.516 4.516 0 0 1 2.632.213l1.479.572a3.535 3.535 0 0 0 2.415.064 2.245 2.245 0 0 1 2.637 3.171c0 .01-.011.021-.017.03l-2.768 4.627a.5.5 0 0 1 -.429.249zm-9.037-1.073h8.587a2.011 2.011 0 0 1 .2.01l2.575-4.305a1.217 1.217 0 0 0 -.054-1.2 1.245 1.245 0 0 0 -1.4-.552 4.544 4.544 0 0 1 -3.083-.086l-1.471-.57a3.526 3.526 0 0 0 -2.053-.167l-2.263.5a4.443 4.443 0 0 1 -1.964 0l-.513-.1a1.251 1.251 0 0 0 -1.341 1.8l2.654 4.674c.045-.002.085-.003.126-.003z"/><path d="m56.5 52.665a5.832 5.832 0 1 1 5.832-5.832 5.839 5.839 0 0 1 -5.832 5.832zm0-10.665a4.832 4.832 0 1 0 4.832 4.833 4.838 4.838 0 0 0 -4.832-4.833z"/><path d="m14.367 54.338h-5.834a.5.5 0 0 1 -.5-.5v-15.02a.5.5 0 0 1 .5-.5h5.834a.5.5 0 0 1 .5.5v15.02a.5.5 0 0 1 -.5.5zm-5.334-1h4.834v-14.02h-4.834z"/><path d="m25.324 54.338h-5.834a.5.5 0 0 1 -.5-.5v-25.398a.5.5 0 0 1 .5-.5h5.834a.5.5 0 0 1 .5.5v25.4a.5.5 0 0 1 -.5.498zm-5.334-1h4.834v-24.398h-4.834z"/></g><path d="m32.713 50.4a.527.527 0 0 1 -.527-.527v-5.151a.527.527 0 0 1 1.055 0v5.151a.527.527 0 0 1 -.528.527z" fill="#fff"/><path d="m32.713 43.5a.527.527 0 0 1 -.527-.527v-.557a.527.527 0 0 1 1.055 0v.557a.527.527 0 0 1 -.528.527z" fill="#fff"/><path d="m36.28 54.338h-5.833a.5.5 0 0 1 -.5-.5v-15.02a.5.5 0 0 1 .5-.5h5.833a.5.5 0 0 1 .5.5v15.02a.5.5 0 0 1 -.5.5zm-5.333-1h4.833v-14.02h-4.833z" fill="#323c6b"/></svg>