<svg id="color_line" height="512" viewBox="0 0 74 74" width="512" xmlns="http://www.w3.org/2000/svg" data-name="color line"><path d="m40.09 12.98h6.37a2.868 2.868 0 0 1 2.87 2.86v52.29a2.87 2.87 0 0 1 -2.87 2.87h-29.4a2.862 2.862 0 0 1 -2.86-2.87v-52.29a2.859 2.859 0 0 1 2.86-2.86h6.37" fill="#9297ab"/><path d="m49.33 15.84v52.29a2.87 2.87 0 0 1 -2.87 2.87h-29.4a2.862 2.862 0 0 1 -2.86-2.87v-.23h29.26a2.87 2.87 0 0 0 2.87-2.87v-52.05h.13a2.868 2.868 0 0 1 2.87 2.86z" fill="#84879c"/><path d="m42.023 17.25h-20.523a.5.5 0 0 1 0-1h20.523a.5.5 0 0 1 0 1z" fill="#323c6b"/><path d="m42.023 17.25h-20.523a.5.5 0 0 1 0-1h20.523a.5.5 0 0 1 0 1z" fill="#323c6b"/><path d="m19.729 42.405h4.809v4.121h-4.809z" fill="#ebf0f3"/><path d="m24.538 47.026h-4.809a.5.5 0 0 1 -.5-.5v-4.121a.5.5 0 0 1 .5-.5h4.809a.5.5 0 0 1 .5.5v4.121a.5.5 0 0 1 -.5.5zm-4.309-1h3.809v-3.121h-3.809z" fill="#323c6b"/><path d="m29.357 42.405h4.809v4.121h-4.809z" fill="#ebf0f3"/><path d="m34.167 47.026h-4.81a.5.5 0 0 1 -.5-.5v-4.121a.5.5 0 0 1 .5-.5h4.809a.5.5 0 0 1 .5.5v4.121a.5.5 0 0 1 -.499.5zm-4.309-1h3.809v-3.121h-3.81z" fill="#323c6b"/><path d="m38.986 42.405h4.809v4.121h-4.809z" fill="#ebf0f3"/><path d="m43.795 47.026h-4.809a.5.5 0 0 1 -.5-.5v-4.121a.5.5 0 0 1 .5-.5h4.809a.5.5 0 0 1 .5.5v4.121a.5.5 0 0 1 -.5.5zm-4.309-1h3.809v-3.121h-3.809z" fill="#323c6b"/><path d="m19.729 52.125h4.809v4.121h-4.809z" fill="#ebf0f3"/><path d="m24.538 56.747h-4.809a.5.5 0 0 1 -.5-.5v-4.122a.5.5 0 0 1 .5-.5h4.809a.5.5 0 0 1 .5.5v4.121a.5.5 0 0 1 -.5.501zm-4.309-1h3.809v-3.122h-3.809z" fill="#323c6b"/><path d="m29.357 52.125h4.809v4.121h-4.809z" fill="#ebf0f3"/><path d="m34.167 56.747h-4.81a.5.5 0 0 1 -.5-.5v-4.122a.5.5 0 0 1 .5-.5h4.809a.5.5 0 0 1 .5.5v4.121a.5.5 0 0 1 -.499.501zm-4.309-1h3.809v-3.122h-3.81z" fill="#323c6b"/><path d="m38.986 52.125h4.809v4.121h-4.809z" fill="#ebf0f3"/><path d="m43.795 56.747h-4.809a.5.5 0 0 1 -.5-.5v-4.122a.5.5 0 0 1 .5-.5h4.809a.5.5 0 0 1 .5.5v4.121a.5.5 0 0 1 -.5.501zm-4.309-1h3.809v-3.122h-3.809z" fill="#323c6b"/><path d="m19.729 61.846h4.809v4.121h-4.809z" fill="#ebf0f3"/><path d="m24.538 66.467h-4.809a.5.5 0 0 1 -.5-.5v-4.121a.5.5 0 0 1 .5-.5h4.809a.5.5 0 0 1 .5.5v4.121a.5.5 0 0 1 -.5.5zm-4.309-1h3.809v-3.121h-3.809z" fill="#323c6b"/><path d="m29.357 61.846h4.809v4.121h-4.809z" fill="#ebf0f3"/><path d="m34.167 66.467h-4.81a.5.5 0 0 1 -.5-.5v-4.121a.5.5 0 0 1 .5-.5h4.809a.5.5 0 0 1 .5.5v4.121a.5.5 0 0 1 -.499.5zm-4.309-1h3.809v-3.121h-3.81z" fill="#323c6b"/><path d="m38.986 61.846h4.809v4.121h-4.809z" fill="#ebf0f3"/><path d="m43.795 66.467h-4.809a.5.5 0 0 1 -.5-.5v-4.121a.5.5 0 0 1 .5-.5h4.809a.5.5 0 0 1 .5.5v4.121a.5.5 0 0 1 -.5.5zm-4.309-1h3.809v-3.121h-3.809z" fill="#323c6b"/><path d="m49.327 23.707h12.613a2.382 2.382 0 0 1 2.382 2.382v22.605a2.382 2.382 0 0 1 -2.382 2.382h-12.613a0 0 0 0 1 0 0v-27.369a0 0 0 0 1 0 0z" fill="#fe7058"/><path d="m49.33 48.76h4.42v2.32h-4.42z" fill="#ea6453"/><path d="m61.94 23.71h-.06v22.67a2.373 2.373 0 0 1 -2.38 2.38h-.708v2.32h3.148a2.381 2.381 0 0 0 2.38-2.39v-22.6a2.373 2.373 0 0 0 -2.38-2.38z" fill="#ea6453"/><path d="m53.941 23.707h4.562v27.369h-4.562z" fill="#84879c"/><path d="m40.093 3v13.751h-16.662v-13.751l4.166 1.517 4.165-1.517 4.165 1.517z" fill="#e1e6e9"/><path d="m40.09 3v13.75h-2.5v-12.84z" fill="#d5d6db"/><g fill="#323c6b"><path d="m11.2 21.25a.5.5 0 0 1 -.5-.5v-.531a.5.5 0 0 1 1 0v.531a.5.5 0 0 1 -.5.5z"/><path d="m11.2 18.406a.5.5 0 0 1 -.5-.5v-2.066a6.33 6.33 0 0 1 4.464-6.065.5.5 0 0 1 .3.954 5.335 5.335 0 0 0 -3.764 5.111v2.066a.5.5 0 0 1 -.5.5z"/><path d="m11.2 21.25a.5.5 0 0 1 -.5-.5v-.531a.5.5 0 0 1 1 0v.531a.5.5 0 0 1 -.5.5z"/><path d="m11.2 18.406a.5.5 0 0 1 -.5-.5v-2.066a.5.5 0 0 1 1 0v2.066a.5.5 0 0 1 -.5.5z"/><path d="m67.322 43.667a.5.5 0 0 1 -.5-.5v-.417a.5.5 0 0 1 1 0v.417a.5.5 0 0 1 -.5.5z"/><path d="m67.322 40.5a.5.5 0 0 1 -.5-.5v-9a.5.5 0 0 1 1 0v9a.5.5 0 0 1 -.5.5z"/><path d="m46.46 71.5h-29.4a3.369 3.369 0 0 1 -3.36-3.37v-52.29a3.364 3.364 0 0 1 3.36-3.36h6.37a.5.5 0 0 1 0 1h-6.37a2.362 2.362 0 0 0 -2.36 2.36v52.29a2.368 2.368 0 0 0 2.36 2.37h29.4a2.372 2.372 0 0 0 2.37-2.37v-52.29a2.367 2.367 0 0 0 -2.37-2.36h-6.37a.5.5 0 0 1 0-1h6.37a3.369 3.369 0 0 1 3.37 3.36v52.29a3.374 3.374 0 0 1 -3.37 3.37z"/><path d="m61.94 51.576h-12.613a.5.5 0 0 1 -.5-.5v-27.369a.5.5 0 0 1 .5-.5h12.613a2.885 2.885 0 0 1 2.882 2.882v22.605a2.885 2.885 0 0 1 -2.882 2.882zm-12.114-1h12.114a1.884 1.884 0 0 0 1.882-1.882v-22.606a1.884 1.884 0 0 0 -1.882-1.882h-12.113z"/></g><g opacity=".4"><path d="m54.063 48.76h4.146v2.32h-4.146z" fill="#707583"/></g><path d="m58.5 51.576h-4.56a.5.5 0 0 1 -.5-.5v-27.369a.5.5 0 0 1 .5-.5h4.56a.5.5 0 0 1 .5.5v27.37a.5.5 0 0 1 -.5.499zm-4.062-1h3.562v-26.369h-3.56z" fill="#323c6b"/><path d="m36.264 9.125h-9a.5.5 0 0 1 0-1h9a.5.5 0 0 1 0 1z" fill="#323c6b"/><path d="m36.264 13.167h-9a.5.5 0 0 1 0-1h9a.5.5 0 0 1 0 1z" fill="#323c6b"/><path d="m18.392 20.386h26.74v16.16h-26.74z" fill="#89c5cd"/><path d="m42.024 20.39h3.106v16.16h-3.106z" fill="#84bcc1"/><path d="m45.132 37.046h-26.74a.5.5 0 0 1 -.5-.5v-16.16a.5.5 0 0 1 .5-.5h26.74a.5.5 0 0 1 .5.5v16.16a.5.5 0 0 1 -.5.5zm-26.24-1h25.74v-15.16h-25.74z" fill="#323c6b"/><path d="m40.093 17.25h-16.662a.5.5 0 0 1 -.5-.5v-13.75a.5.5 0 0 1 .671-.47l3.998 1.454 3.991-1.454a.5.5 0 0 1 .342 0l3.994 1.454 3.995-1.454a.5.5 0 0 1 .671.47v13.75a.5.5 0 0 1 -.5.5zm-16.162-1h15.662v-12.536l-3.493 1.272a.5.5 0 0 1 -.342 0l-3.996-1.454-3.994 1.454a.5.5 0 0 1 -.342 0l-3.495-1.272z" fill="#323c6b"/><path d="m35.37 39.975h-.531a.6.6 0 0 1 0-1.2h.531a.6.6 0 0 1 0 1.2z" fill="#fff"/><path d="m32.344 39.975h-7.063a.6.6 0 0 1 0-1.2h7.063a.6.6 0 0 1 0 1.2z" fill="#fff"/></svg>