<svg id="color_line" height="512" viewBox="0 0 74 74" width="512" xmlns="http://www.w3.org/2000/svg" data-name="color line"><path d="m35.565 12.493-19.951 17.626h39.903z" fill="#ebf0f3"/><path d="m55.517 30.619h-39.9a.5.5 0 0 1 -.331-.875l19.948-17.625a.5.5 0 0 1 .662 0l19.952 17.626a.5.5 0 0 1 -.331.875zm-38.582-1h37.265l-18.635-16.459z" fill="#323c6b"/><path d="m19.25 30.119h8.422v3.381h-8.422z" fill="#e1e6e9"/><path d="m27.672 34h-8.422a.5.5 0 0 1 -.5-.5v-3.381a.5.5 0 0 1 .5-.5h8.422a.5.5 0 0 1 .5.5v3.381a.5.5 0 0 1 -.5.5zm-7.922-1h7.422v-2.381h-7.422z" fill="#323c6b"/><path d="m20.942 33.5h5.037v14h-5.037z" fill="#ebf0f3"/><path d="m25.979 48h-5.037a.5.5 0 0 1 -.5-.5v-14a.5.5 0 0 1 .5-.5h5.037a.5.5 0 0 1 .5.5v14a.5.5 0 0 1 -.5.5zm-4.537-1h4.037v-13h-4.037z" fill="#323c6b"/><path d="m31.354 30.119h8.422v3.381h-8.422z" fill="#e1e6e9"/><path d="m39.776 34h-8.422a.5.5 0 0 1 -.5-.5v-3.381a.5.5 0 0 1 .5-.5h8.422a.5.5 0 0 1 .5.5v3.381a.5.5 0 0 1 -.5.5zm-7.922-1h7.422v-2.381h-7.422z" fill="#323c6b"/><path d="m33.047 33.5h5.037v14h-5.037z" fill="#ebf0f3"/><path d="m38.084 48h-5.037a.5.5 0 0 1 -.5-.5v-14a.5.5 0 0 1 .5-.5h5.037a.5.5 0 0 1 .5.5v14a.5.5 0 0 1 -.5.5zm-4.537-1h4.037v-13h-4.037z" fill="#323c6b"/><path d="m43.458 30.119h8.422v3.381h-8.422z" fill="#e1e6e9"/><path d="m51.88 34h-8.422a.5.5 0 0 1 -.5-.5v-3.381a.5.5 0 0 1 .5-.5h8.422a.5.5 0 0 1 .5.5v3.381a.5.5 0 0 1 -.5.5zm-7.922-1h7.422v-2.381h-7.422z" fill="#323c6b"/><path d="m55.755 52.375v2.545h-40.379v-2.545a2.153 2.153 0 0 1 2.153-2.153h36.071a2.153 2.153 0 0 1 2.155 2.153z" fill="#ebf0f3"/><path d="m55.755 55.42h-40.38a.5.5 0 0 1 -.5-.5v-2.545a2.656 2.656 0 0 1 2.653-2.652h36.072a2.656 2.656 0 0 1 2.653 2.652v2.545a.5.5 0 0 1 -.498.5zm-39.879-1h39.379v-2.045a1.654 1.654 0 0 0 -1.655-1.652h-36.072a1.655 1.655 0 0 0 -1.653 1.652z" fill="#323c6b"/><path d="m45.151 33.5h5.037v14h-5.037z" fill="#ebf0f3"/><path d="m50.188 48h-5.037a.5.5 0 0 1 -.5-.5v-14a.5.5 0 0 1 .5-.5h5.037a.5.5 0 0 1 .5.5v14a.5.5 0 0 1 -.5.5zm-4.537-1h4.037v-13h-4.037z" fill="#323c6b"/><path d="m35.565 12.493-19.951 17.626h39.903z" fill="#e1e6e9"/><path d="m20.942 33.5h5.037v14h-5.037z" fill="#e1e6e9"/><path d="m33.047 33.5h5.037v14h-5.037z" fill="#e1e6e9"/><path d="m55.755 52.375v2.545h-40.379v-2.545a2.153 2.153 0 0 1 2.153-2.153h36.071a2.153 2.153 0 0 1 2.155 2.153z" fill="#e1e6e9"/><path d="m45.151 33.5h5.037v14h-5.037z" fill="#e1e6e9"/><path d="m55.52 30.12h-2.52l-18.69-16.52 1.26-1.11z" fill="#d5d6db"/><path d="m24.09 33.5h1.89v13.917h-1.89z" fill="#d5d6db"/><path d="m36.19 33.5h1.89v13.917h-1.89z" fill="#d5d6db"/><path d="m55.75 52.38v2.54h-1.89v-2.54a2.155 2.155 0 0 0 -2.15-2.16h1.89a2.155 2.155 0 0 1 2.15 2.16z" fill="#d5d6db"/><path d="m48.29 33.5h1.9v13.667h-1.9z" fill="#d5d6db"/><g fill="#323c6b"><path d="m35.152 26.282v-.636a3.54 3.54 0 0 1 -1.86-.535l.291-.815a3.238 3.238 0 0 0 1.75.523c.863 0 1.447-.5 1.447-1.191 0-.669-.474-1.082-1.374-1.447-1.24-.486-2.005-1.045-2.005-2.1a1.994 1.994 0 0 1 1.835-1.957v-.636h.753v.588a3.242 3.242 0 0 1 1.581.426l-.3.8a2.938 2.938 0 0 0 -1.532-.413c-.936 0-1.289.559-1.289 1.045 0 .632.45.948 1.507 1.386 1.252.511 1.884 1.143 1.884 2.224a2.114 2.114 0 0 1 -1.921 2.067v.673z"/><path d="m5.2 49.064a.5.5 0 0 1 -.473-.338 32.609 32.609 0 0 1 28.185-43.008.5.5 0 0 1 .08 1 31.609 31.609 0 0 0 -27.323 41.682.5.5 0 0 1 -.312.635.492.492 0 0 1 -.157.029z"/><path d="m35.229 71.5a32.619 32.619 0 0 1 -26.8-14.045.5.5 0 1 1 .822-.569 31.591 31.591 0 0 0 44.323 7.742.5.5 0 1 1 .582.813 32.359 32.359 0 0 1 -18.927 6.059z"/><path d="m64.569 52.422a.5.5 0 0 1 -.451-.714 31.611 31.611 0 0 0 -18.231-43.371.5.5 0 0 1 .327-.945 32.611 32.611 0 0 1 18.807 44.744.5.5 0 0 1 -.452.286z"/><path d="m28.246 11.933a.5.5 0 0 1 -.369-.837l4.271-4.671-5.758-2.981a.5.5 0 1 1 .46-.888l6.337 3.281a.5.5 0 0 1 .139.781l-4.711 5.152a.5.5 0 0 1 -.369.163z"/><path d="m9.223 64.762a.5.5 0 0 1 -.5-.477l-.323-7.129a.5.5 0 0 1 .6-.511l6.817 1.5a.5.5 0 1 1 -.216.977l-6.18-1.363.3 6.477a.5.5 0 0 1 -.477.522z"/><path d="m64.506 52.392a.5.5 0 0 1 -.477-.349l-2.106-6.657a.5.5 0 1 1 .953-.3l1.909 6.035 5.461-3.5a.5.5 0 1 1 .539.842l-6.01 3.848a.5.5 0 0 1 -.269.081z"/><path d="m50.15 21.875a.5.5 0 0 1 -.331-.125l-6.65-5.875a.5.5 0 1 1 .662-.749l6.65 5.874a.5.5 0 0 1 -.331.875z"/><path d="m52.242 23.673a.5.5 0 0 1 -.331-.125l-.361-.319a.5.5 0 0 1 .662-.749l.361.319a.5.5 0 0 1 -.331.875z"/><path d="m35.838 58.42h-8.166a.5.5 0 0 1 0-1h8.167a.5.5 0 0 1 0 1z"/><path d="m25.542 58.42h-.875a.5.5 0 1 1 0-1h.875a.5.5 0 0 1 0 1z"/><path d="m55.517 30.619h-39.9a.5.5 0 0 1 -.331-.875l19.948-17.625a.5.5 0 0 1 .662 0l19.952 17.626a.5.5 0 0 1 -.331.875zm-38.582-1h37.265l-18.635-16.459z"/><path d="m25.979 48h-5.037a.5.5 0 0 1 -.5-.5v-14a.5.5 0 0 1 .5-.5h5.037a.5.5 0 0 1 .5.5v14a.5.5 0 0 1 -.5.5zm-4.537-1h4.037v-13h-4.037z"/><path d="m38.084 48h-5.037a.5.5 0 0 1 -.5-.5v-14a.5.5 0 0 1 .5-.5h5.037a.5.5 0 0 1 .5.5v14a.5.5 0 0 1 -.5.5zm-4.537-1h4.037v-13h-4.037z"/><path d="m55.755 55.42h-40.38a.5.5 0 0 1 -.5-.5v-2.545a2.656 2.656 0 0 1 2.653-2.652h36.072a2.656 2.656 0 0 1 2.653 2.652v2.545a.5.5 0 0 1 -.498.5zm-39.879-1h39.379v-2.045a1.654 1.654 0 0 0 -1.655-1.652h-36.072a1.655 1.655 0 0 0 -1.653 1.652z"/><path d="m50.188 48h-5.037a.5.5 0 0 1 -.5-.5v-14a.5.5 0 0 1 .5-.5h5.037a.5.5 0 0 1 .5.5v14a.5.5 0 0 1 -.5.5zm-4.537-1h4.037v-13h-4.037z"/></g><path d="m19.25 46.873h8.422v3.381h-8.422z" fill="#e1e6e9"/><path d="m27.672 50.754h-8.422a.5.5 0 0 1 -.5-.5v-3.381a.5.5 0 0 1 .5-.5h8.422a.5.5 0 0 1 .5.5v3.381a.5.5 0 0 1 -.5.5zm-7.922-1h7.422v-2.381h-7.422z" fill="#323c6b"/><path d="m31.354 46.873h8.422v3.381h-8.422z" fill="#e1e6e9"/><path d="m39.776 50.754h-8.422a.5.5 0 0 1 -.5-.5v-3.381a.5.5 0 0 1 .5-.5h8.422a.5.5 0 0 1 .5.5v3.381a.5.5 0 0 1 -.5.5zm-7.922-1h7.422v-2.381h-7.422z" fill="#323c6b"/><path d="m43.458 46.873h8.422v3.381h-8.422z" fill="#e1e6e9"/><path d="m51.88 50.754h-8.422a.5.5 0 0 1 -.5-.5v-3.381a.5.5 0 0 1 .5-.5h8.422a.5.5 0 0 1 .5.5v3.381a.5.5 0 0 1 -.5.5zm-7.922-1h7.422v-2.381h-7.422z" fill="#323c6b"/></svg>