<svg id="color_line" height="512" viewBox="0 0 74 74" width="512" xmlns="http://www.w3.org/2000/svg" data-name="color line"><path d="m29.839 39.585c-.623-6.438 7.592-17.7 10.861-21.9a1.506 1.506 0 0 0 .475.072h9.515a1.507 1.507 0 0 0 .5-.08c3.571 4.581 13.053 17.616 10.458 23.564-12.959 11.126-24.018 10.788-31.809-1.656z" fill="#27ccbc"/><path d="m61.65 41.24c-9.66 8.29-18.26 10.22-25.24 5.51 5.96 2.23 12.91.22 20.56-5.89a4.987 4.987 0 0 0 1.94-4.1c-.31-5.76-6.09-14.33-9.58-19.01h1.36a1.417 1.417 0 0 0 .5-.08c3.57 4.58 13.05 17.62 10.46 23.57z" fill="#21b3a9"/><path d="m54.256 9.277-3.067 5.128a1.507 1.507 0 0 0 -.5-.081h-9.514a1.515 1.515 0 0 0 -.427.056l-3.148-5.537a1.941 1.941 0 0 1 2.085-2.785l.588.113a4.348 4.348 0 0 0 1.932 0l2.512-.555a4.465 4.465 0 0 1 2.592.209l1.642.636a4.466 4.466 0 0 0 3.049.079 1.878 1.878 0 0 1 .547-.08 1.941 1.941 0 0 1 1.709 2.817z" fill="#27ccbc"/><path d="m54.26 9.28-3.07 5.13a1.426 1.426 0 0 0 -.5-.09h-1.83l3.02-5.04a1.942 1.942 0 0 0 -.74-2.55 4.265 4.265 0 0 0 .86-.19 1.787 1.787 0 0 1 .55-.08 1.946 1.946 0 0 1 1.71 2.82z" fill="#21b3a9"/><circle cx="46.025" cy="33.034" fill="#e1e6e9" r="6.8"/><path d="m52.82 33.03a6.788 6.788 0 0 1 -11.58 4.82 6.552 6.552 0 0 0 2.8.61 6.8 6.8 0 0 0 4.81-11.61 6.784 6.784 0 0 1 3.97 6.18z" fill="#d5d6db"/><path d="m45.664 36.877v-.556a3.093 3.093 0 0 1 -1.625-.467l.255-.712a2.829 2.829 0 0 0 1.529.457c.754 0 1.264-.435 1.264-1.041 0-.584-.414-.945-1.2-1.264-1.083-.425-1.752-.913-1.752-1.837a1.742 1.742 0 0 1 1.6-1.71v-.556h.665v.509a2.833 2.833 0 0 1 1.381.372l-.265.7a2.566 2.566 0 0 0 -1.338-.361c-.818 0-1.126.489-1.126.913 0 .552.393.828 1.317 1.211 1.094.446 1.646 1 1.646 1.943a1.847 1.847 0 0 1 -1.678 1.806v.588z" fill="#323c6b"/><path d="m52.4 16.039a1.71 1.71 0 0 1 -.507 1.216 1.662 1.662 0 0 1 -.708.419 1.507 1.507 0 0 1 -.5.08h-9.51a1.506 1.506 0 0 1 -.475-.072 1.7 1.7 0 0 1 -1.24-1.642 1.736 1.736 0 0 1 .5-1.216 1.707 1.707 0 0 1 .789-.443 1.515 1.515 0 0 1 .427-.056h9.514a1.507 1.507 0 0 1 .5.081 1.708 1.708 0 0 1 1.21 1.633z" fill="#e1e6e9"/><path d="m52.4 16.04a1.708 1.708 0 0 1 -.5 1.21 1.659 1.659 0 0 1 -.71.42 1.417 1.417 0 0 1 -.5.08h-1.9a1.416 1.416 0 0 0 .5-.08 1.549 1.549 0 0 0 .71-.42 1.676 1.676 0 0 0 .51-1.21 1.7 1.7 0 0 0 -1.22-1.63 1.426 1.426 0 0 0 -.5-.09h1.9a1.426 1.426 0 0 1 .5.09 1.692 1.692 0 0 1 1.21 1.63z" fill="#d5d6db"/><g fill="#323c6b"><path d="m29.018 31.094a.5.5 0 0 1 -.456-.705l.1-.234c.073-.164.146-.329.224-.494a.5.5 0 1 1 .9.428c-.074.157-.144.314-.213.471l-.106.239a.5.5 0 0 1 -.449.295z"/><path d="m30.379 28.313a.5.5 0 0 1 -.441-.735 73.89 73.89 0 0 1 4.292-6.985.5.5 0 0 1 .824.566 72.837 72.837 0 0 0 -4.234 6.89.5.5 0 0 1 -.441.264z"/><path d="m44.494 49.768a14.836 14.836 0 0 1 -2.237-.167c-4.94-.751-9.261-4.031-12.841-9.75a.5.5 0 0 1 -.074-.217c-.635-6.556 7.456-17.75 10.964-22.259a.5.5 0 0 1 .553-.167 1.008 1.008 0 0 0 .317.046h9.514a1 1 0 0 0 .333-.052.5.5 0 0 1 .561.165c4.053 5.2 13.19 17.954 10.522 24.071a.5.5 0 0 1 -.133.18c-6.307 5.416-12.173 8.15-17.479 8.15zm-14.168-10.347c3.406 5.4 7.47 8.49 12.08 9.191 5.552.844 11.884-1.739 18.826-7.677 2.316-5.717-6.986-18.494-10.241-22.7a2.1 2.1 0 0 1 -.3.021h-9.516a2.167 2.167 0 0 1 -.273-.017c-2.861 3.703-11.066 14.931-10.576 21.182z"/></g><rect fill="#fe7058" height="30.528" rx="1.777" width="13.88" x="3" y="33.034"/><path d="m16.88 58.63v3.15a1.778 1.778 0 0 1 -1.78 1.78h-10.32a1.778 1.778 0 0 1 -1.78-1.78v-3.15a1.775 1.775 0 0 0 1.78 1.77h10.32a1.775 1.775 0 0 0 1.78-1.77z" fill="#ea6453"/><path d="m50.892 63.438a.5.5 0 0 1 -.291-.907l7.359-5.236a.5.5 0 0 1 .58.814l-7.359 5.236a.5.5 0 0 1 -.289.093z" fill="#323c6b"/><path d="m46.412 66.625a.5.5 0 0 1 -.291-.907l1.213-.863a.5.5 0 0 1 .58.814l-1.213.863a.5.5 0 0 1 -.289.093z" fill="#323c6b"/><path d="m16.88 36.1.294-.012a19.69 19.69 0 0 1 10.164 2.212l4.03 2.1 11.222-.2h.024a3.816 3.816 0 0 1 1 7.5l-12.246 2.985c6.294-1.534 13.435-3.04 13.713-3.725l21.115-7.3a3.739 3.739 0 0 1 1.175-.2 3.62 3.62 0 0 1 2.1 6.568l-29.126 20.732a9.318 9.318 0 0 1 -9.259.893l-14.206-6.463z" fill="#fcd462"/><path d="m69.47 46.03-29.12 20.73a9.3 9.3 0 0 1 -9.26.89l-14.21-6.46v-3.23l14.21 6.47a9.326 9.326 0 0 0 9.26-.9l29.12-20.72a3.6 3.6 0 0 0 1.14-1.32 3.579 3.579 0 0 1 -1.14 4.54z" fill="#f7be56"/><circle cx="9.94" cy="57.316" fill="#ebf0f3" r="2.347"/><path d="m9.94 60.163a2.847 2.847 0 1 1 2.847-2.847 2.851 2.851 0 0 1 -2.847 2.847zm0-4.694a1.847 1.847 0 1 0 1.847 1.847 1.849 1.849 0 0 0 -1.847-1.847z" fill="#323c6b"/><path d="m34.935 68.985a9.779 9.779 0 0 1 -4.056-.877l-14.206-6.462a.5.5 0 0 1 -.293-.455v-25.091a.5.5 0 0 1 .48-.5l.294-.012a20.166 20.166 0 0 1 10.416 2.265l3.917 2.047 11.094-.2a4.318 4.318 0 0 1 4.313 3.815 4.274 4.274 0 0 1 -.433 2.436l19.573-6.764a4.118 4.118 0 0 1 3.729 7.25l-29.128 20.73a9.817 9.817 0 0 1 -5.7 1.818zm-17.555-8.116 13.913 6.331a8.828 8.828 0 0 0 8.762-.845l29.13-20.728a3.119 3.119 0 0 0 -2.831-5.487l-20.975 7.246a2.136 2.136 0 0 1 -.636.383 4.24 4.24 0 0 1 -1 .414l-1.019.249c-1.463.407-3.671.945-7 1.73-1.4.329-2.838.669-4.237 1.01a.5.5 0 0 1 -.237-.972l11.2-2.731a18.9 18.9 0 0 0 1.811-.574 3.317 3.317 0 0 0 -1.648-6.195l-11.236.2a.546.546 0 0 1 -.24-.057l-4.03-2.1a19.125 19.125 0 0 0 -9.727-2.162z" fill="#323c6b"/><path d="m15.1 64.062h-10.323a2.28 2.28 0 0 1 -2.277-2.277v-26.974a2.28 2.28 0 0 1 2.277-2.277h10.323a2.28 2.28 0 0 1 2.277 2.277v26.974a2.28 2.28 0 0 1 -2.277 2.277zm-10.323-30.528a1.279 1.279 0 0 0 -1.277 1.277v26.974a1.279 1.279 0 0 0 1.277 1.277h10.323a1.279 1.279 0 0 0 1.277-1.277v-26.974a1.279 1.279 0 0 0 -1.277-1.277z" fill="#323c6b"/><path d="m6.25 47.233a.65.65 0 0 1 -.65-.65v-8.208a.65.65 0 0 1 1.3 0v8.208a.65.65 0 0 1 -.65.65z" fill="#fff"/><path d="m6.25 50.129a.65.65 0 0 1 -.65-.65v-.437a.65.65 0 1 1 1.3 0v.438a.65.65 0 0 1 -.65.649z" fill="#fff"/><path d="m46.025 40.333a7.3 7.3 0 1 1 7.3-7.3 7.308 7.308 0 0 1 -7.3 7.3zm0-13.6a6.3 6.3 0 1 0 6.3 6.3 6.307 6.307 0 0 0 -6.3-6.299z" fill="#323c6b"/><path d="m51.189 14.905a.5.5 0 0 1 -.165-.028 1.012 1.012 0 0 0 -.334-.053h-9.515a1.024 1.024 0 0 0 -.286.036.5.5 0 0 1 -.575-.233l-3.148-5.537a2.44 2.44 0 0 1 2.612-3.524l.589.113a3.874 3.874 0 0 0 1.727 0l2.515-.557a4.95 4.95 0 0 1 2.885.233l1.638.634a3.975 3.975 0 0 0 2.713.072 2.434 2.434 0 0 1 2.855 3.439l-.017.03-3.067 5.128a.5.5 0 0 1 -.427.247zm-10.014-1.08h9.515a2.09 2.09 0 0 1 .255.015l2.873-4.8a1.4 1.4 0 0 0 -.061-1.382 1.439 1.439 0 0 0 -1.61-.636 4.966 4.966 0 0 1 -3.38-.094l-1.639-.638a3.96 3.96 0 0 0 -2.306-.19l-2.509.555a4.869 4.869 0 0 1 -2.151 0l-.57-.109a1.4 1.4 0 0 0 -1.409.549 1.417 1.417 0 0 0 -.135 1.52l2.963 5.213c.053-.001.108-.003.164-.003z" fill="#323c6b"/><path d="m50.69 18.254h-9.515a1.988 1.988 0 0 1 -.633-.1 2.2 2.2 0 0 1 -1.582-2.114 2.191 2.191 0 0 1 1.672-2.145 1.968 1.968 0 0 1 .542-.07h9.516a2.016 2.016 0 0 1 .664.108 2.207 2.207 0 0 1 .9 3.675 2.168 2.168 0 0 1 -.922.545 1.949 1.949 0 0 1 -.642.101zm-9.515-3.429a1.024 1.024 0 0 0 -.286.036 1.193 1.193 0 0 0 -.929 1.179 1.207 1.207 0 0 0 .875 1.161 1.048 1.048 0 0 0 .34.054h9.515a1 1 0 0 0 .333-.052 1.2 1.2 0 0 0 .521-.3 1.208 1.208 0 0 0 -.5-2.017 1.058 1.058 0 0 0 -.356-.06z" fill="#323c6b"/></svg>