<svg id="color_line" height="512" viewBox="0 0 74 74" width="512" xmlns="http://www.w3.org/2000/svg" data-name="color line"><path d="m31.024 11.62a.5.5 0 0 1 -.5-.5 6.446 6.446 0 0 1 5.437-6.385.5.5 0 1 1 .16.987 5.449 5.449 0 0 0 -4.6 5.4.5.5 0 0 1 -.497.498z" fill="#323c6b"/><path d="m39.583 6.239a.5.5 0 0 1 -.216-.049 5.514 5.514 0 0 0 -.839-.324.5.5 0 1 1 .279-.96 6.431 6.431 0 0 1 .994.382.5.5 0 0 1 -.217.951z" fill="#323c6b"/><path d="m37 8.144a2.975 2.975 0 0 1 2.975 2.975v48.3a0 0 0 0 1 0 0h-5.95a0 0 0 0 1 0 0v-48.299a2.975 2.975 0 0 1 2.975-2.976z" fill="#9297ab"/><path d="m12.413 15.335h-2.946a2.1 2.1 0 0 0 -2.1 2.1v.01a2.1 2.1 0 0 0 2.1 2.1h3.433" fill="#9297ab"/><path d="m12.9 20.05h-3.433a2.608 2.608 0 0 1 0-5.215h2.946a.5.5 0 0 1 0 1h-2.946a1.608 1.608 0 0 0 0 3.215h3.433a.5.5 0 0 1 0 1z" fill="#323c6b"/><path d="m19.435 15.335h14.59v4.215h-15.076" fill="#9297ab"/><path d="m34.024 20.05h-15.075a.5.5 0 0 1 0-1h14.575v-3.215h-14.089a.5.5 0 0 1 0-1h14.589a.5.5 0 0 1 .5.5v4.215a.5.5 0 0 1 -.5.5z" fill="#323c6b"/><path d="m54.347 15.335h-14.372v4.215h14.858" fill="#9297ab"/><path d="m54.833 20.05h-14.857a.5.5 0 0 1 -.5-.5v-4.215a.5.5 0 0 1 .5-.5h14.371a.5.5 0 0 1 0 1h-13.871v3.215h14.357a.5.5 0 0 1 0 1z" fill="#323c6b"/><path d="m61.593 15.335h2.93a2.1 2.1 0 0 1 2.1 2.1v.01a2.1 2.1 0 0 1 -2.1 2.1h-3.423" fill="#9297ab"/><path d="m64.523 20.05h-3.423a.5.5 0 1 1 0-1h3.423a1.608 1.608 0 0 0 0-3.215h-2.93a.5.5 0 0 1 0-1h2.93a2.608 2.608 0 0 1 0 5.215z" fill="#323c6b"/><path d="m49.665 65.856c-.924-3.711-3.947-6.437-7.543-6.437h-10.244c-3.6 0-6.618 2.725-7.543 6.437z" fill="#9297ab"/><path d="m39.98 11.12v48.3h-2.47v-48.3a2.955 2.955 0 0 0 -.87-2.1 3.106 3.106 0 0 0 -.87-.61 2.989 2.989 0 0 1 4.21 2.71z" fill="#84879c"/><path d="m41.7 59.419h-2.464c3.6 0 6.618 2.725 7.543 6.437h2.461c-.924-3.712-3.947-6.437-7.54-6.437z" fill="#84879c"/><path d="m52.373 66.355h-30.746a.5.5 0 0 1 0-1h30.746a.5.5 0 1 1 0 1z" fill="#323c6b"/><path d="m60.562 60.719a.5.5 0 0 1 -.065-1 14.727 14.727 0 0 0 10-5.71.5.5 0 0 1 .8.6 15.72 15.72 0 0 1 -10.667 6.1.5.5 0 0 1 -.068.01z" fill="#323c6b"/><path d="m57.938 60.877c-.371 0-.731-.025-1.093-.049l-.126-.008a.5.5 0 1 1 .065-1l.128.009c.34.022.68.045 1.028.046a.5.5 0 0 1 0 1z" fill="#323c6b"/><path d="m54.609 19.125-9.45 25.499h3.916l9.45-25.499z" fill="#eeefee"/><path d="m49.075 45.124h-3.916a.5.5 0 0 1 -.469-.674l9.451-25.5a.5.5 0 0 1 .469-.326h3.916a.5.5 0 0 1 .469.674l-9.452 25.502a.5.5 0 0 1 -.468.324zm-3.2-1h2.849l9.08-24.5h-2.846z" fill="#323c6b"/><path d="m61.546 19.125h-3.916l9.451 25.499h3.916z" fill="#eeefee"/><path d="m71 45.124h-3.919a.5.5 0 0 1 -.469-.326l-9.451-25.498a.5.5 0 0 1 .469-.674h3.916a.5.5 0 0 1 .469.326l9.451 25.5a.5.5 0 0 1 -.469.674zm-3.568-1h2.849l-9.08-24.5h-2.852z" fill="#323c6b"/><path d="m71 44.63c0 7.47-5.34 12.75-12.82 12.75h-.21c-7.47 0-12.81-5.28-12.81-12.75z" fill="#d5d6db"/><path d="m71 44.63c0 7.47-5.34 12.75-12.82 12.75h-.21a12.952 12.952 0 0 1 -8.73-3.13 13.685 13.685 0 0 0 6.13 1.38h.21c6.88 0 11.95-4.47 12.72-11z" fill="#bbbbcd"/><circle cx="58.078" cy="17.06" fill="#eeefee" r="3.916"/><path d="m58.078 21.476a4.416 4.416 0 1 1 4.416-4.416 4.421 4.421 0 0 1 -4.416 4.416zm0-7.831a3.416 3.416 0 1 0 3.416 3.416 3.419 3.419 0 0 0 -3.416-3.416z" fill="#323c6b"/><path d="m58.18 57.88h-.21a12.844 12.844 0 0 1 -13.31-13.25.5.5 0 0 1 .5-.5h25.84a.5.5 0 0 1 .5.5c0 7.678-5.6 13.25-13.32 13.25zm-12.512-12.75c.229 6.944 5.222 11.75 12.3 11.75h.21c7.085 0 12.083-4.806 12.312-11.75z" fill="#323c6b"/><path d="m19.391 19.125 9.45 25.499h-3.916l-9.45-25.499z" fill="#eeefee"/><path d="m28.841 45.124h-3.916a.5.5 0 0 1 -.469-.326l-9.45-25.498a.5.5 0 0 1 .469-.674h3.916a.5.5 0 0 1 .469.326l9.451 25.5a.5.5 0 0 1 -.469.674zm-3.568-1h2.849l-9.08-24.5h-2.849z" fill="#323c6b"/><path d="m12.454 19.125h3.916l-9.451 25.499h-3.916z" fill="#eeefee"/><path d="m6.919 45.124h-3.919a.5.5 0 0 1 -.469-.674l9.451-25.5a.5.5 0 0 1 .469-.326h3.919a.5.5 0 0 1 .469.674l-9.451 25.502a.5.5 0 0 1 -.469.324zm-3.2-1h2.852l9.08-24.5h-2.851z" fill="#323c6b"/><path d="m3 44.63c0 7.47 5.34 12.75 12.82 12.75h.21c7.47 0 12.81-5.28 12.81-12.75z" fill="#d5d6db"/><path d="m28.84 44.63c0 7.47-5.34 12.75-12.82 12.75h-.21a12.952 12.952 0 0 1 -8.73-3.13 13.685 13.685 0 0 0 6.13 1.38h.21c6.88 0 11.95-4.47 12.72-11z" fill="#bbbbcd"/><circle cx="15.922" cy="17.06" fill="#eeefee" r="3.916"/><g fill="#323c6b"><path d="m15.922 21.476a4.416 4.416 0 1 1 4.416-4.416 4.421 4.421 0 0 1 -4.416 4.416zm0-7.831a3.416 3.416 0 1 0 3.416 3.416 3.419 3.419 0 0 0 -3.416-3.416z"/><path d="m16.03 57.88h-.21c-7.72 0-13.32-5.572-13.32-13.25a.5.5 0 0 1 .5-.5h25.84a.5.5 0 0 1 .5.5 12.844 12.844 0 0 1 -13.31 13.25zm-12.522-12.75c.229 6.944 5.227 11.75 12.312 11.75h.21c7.08 0 12.073-4.806 12.3-11.75z"/><path d="m39.976 59.919h-5.952a.5.5 0 0 1 -.5-.5v-48.299a3.476 3.476 0 0 1 6.951 0v48.3a.5.5 0 0 1 -.499.499zm-5.451-1h4.951v-47.799a2.476 2.476 0 0 0 -4.951 0z"/><path d="m49.665 66.355h-25.33a.5.5 0 0 1 -.485-.621 8.559 8.559 0 0 1 8.028-6.815h10.245a8.559 8.559 0 0 1 8.028 6.815.5.5 0 0 1 -.485.621zm-24.665-1h24a7.469 7.469 0 0 0 -6.879-5.437h-10.244a7.469 7.469 0 0 0 -6.877 5.437z"/></g><path d="m38.675 63.333a.615.615 0 0 1 -.551.348l-7.735.051a.616.616 0 1 1 -.009-1.232l7.735-.051a.616.616 0 0 1 .62.612.61.61 0 0 1 -.06.272z" fill="#fff"/><path d="m41.71 63.313a.617.617 0 0 1 -.551.349h-.66a.616.616 0 0 1 -.007-1.233h.66a.617.617 0 0 1 .62.613.609.609 0 0 1 -.062.271z" fill="#fff"/></svg>