<svg id="color_line" height="512" viewBox="0 0 74 74" width="512" xmlns="http://www.w3.org/2000/svg" data-name="color line"><path d="m9.286 20.122a.5.5 0 0 1 -.48-.64l.217-.747a.5.5 0 0 1 .961.279l-.217.747a.5.5 0 0 1 -.481.361z" fill="#323c6b"/><path d="m10.108 17.25a.51.51 0 0 1 -.134-.018.5.5 0 0 1 -.348-.615 13.781 13.781 0 0 1 7.124-8.67.5.5 0 1 1 .445.9 12.785 12.785 0 0 0 -6.605 8.041.5.5 0 0 1 -.482.362z" fill="#323c6b"/><path d="m3.378 48.72 9.482-30.649a10.32 10.32 0 0 1 10.071-8.071 10.32 10.32 0 0 1 10.32 10.32l-2.187 30.507" fill="#e1e6e9"/><g fill="#323c6b"><path d="m31.065 51.327h-.037a.5.5 0 0 1 -.463-.534l2.187-30.505a9.82 9.82 0 0 0 -19.4-2.106l-9.497 30.686a.5.5 0 0 1 -.955-.3l9.482-30.648a10.819 10.819 0 0 1 21.368 2.4l-2.187 30.543a.5.5 0 0 1 -.498.464z"/><path d="m63.938 67.993a.5.5 0 0 1 -.206-.956 16.58 16.58 0 0 0 8.349-8.406.5.5 0 0 1 .914.405 17.575 17.575 0 0 1 -8.851 8.912.5.5 0 0 1 -.206.045z"/><path d="m60.249 69.17a.5.5 0 0 1 -.1-.99c.368-.074.733-.157 1.093-.254a.5.5 0 0 1 .26.966c-.381.1-.768.191-1.157.269a.483.483 0 0 1 -.096.009z"/></g><path d="m70.622 48.72-9.482-30.649a10.32 10.32 0 0 0 -10.071-8.071 10.32 10.32 0 0 0 -10.32 10.32l2.187 30.506" fill="#e1e6e9"/><path d="m70.62 48.72-3.41.26-8.77-28.34a10.324 10.324 0 0 0 -15.72-6.39 10.322 10.322 0 0 1 18.42 3.82z" fill="#d5d6db"/><path d="m40.988 23.878 5.327 1.596 2.675 7.981-6.847 5.588z" fill="#9297ab"/><path d="m42.143 39.543a.5.5 0 0 1 -.5-.462l-1.154-15.165a.5.5 0 0 1 .643-.517l5.326 1.601a.5.5 0 0 1 .33.32l2.676 7.98a.5.5 0 0 1 -.157.546l-6.848 5.584a.5.5 0 0 1 -.316.113zm-.6-14.978 1.025 13.485 5.838-4.764-2.483-7.407z" fill="#323c6b"/><path d="m33.013 23.878-5.327 1.596-2.675 7.981 6.847 5.588z" fill="#9297ab"/><path d="m31.857 39.543a.5.5 0 0 1 -.316-.113l-6.847-5.588a.5.5 0 0 1 -.157-.546l2.676-7.98a.5.5 0 0 1 .33-.32l5.326-1.6a.5.5 0 0 1 .643.517l-1.156 15.168a.5.5 0 0 1 -.5.462zm-6.263-6.257 5.837 4.764 1.027-13.484-4.381 1.313z" fill="#323c6b"/><path d="m41.793 33.844-.805-9.966h-7.975l-.805 9.966z" fill="#9297ab"/><path d="m41.793 34.344h-9.585a.5.5 0 0 1 -.5-.54l.8-9.966a.5.5 0 0 1 .5-.46h7.976a.5.5 0 0 1 .5.46l.8 9.966a.5.5 0 0 1 -.5.54zm-9.043-1h8.5l-.724-8.966h-7.052z" fill="#323c6b"/><circle cx="56.968" cy="51.966" fill="#d5d6db" r="14.032"/><path d="m56.968 66.5a14.532 14.532 0 1 1 14.532-14.534 14.549 14.549 0 0 1 -14.532 14.534zm0-28.064a13.532 13.532 0 1 0 13.532 13.53 13.547 13.547 0 0 0 -13.532-13.532z" fill="#323c6b"/><circle cx="17.032" cy="51.966" fill="#d5d6db" r="14.032"/><path d="m17.032 66.5a14.532 14.532 0 1 1 14.532-14.534 14.549 14.549 0 0 1 -14.532 14.534zm0-28.064a13.532 13.532 0 1 0 13.532 13.53 13.547 13.547 0 0 0 -13.532-13.532z" fill="#323c6b"/><circle cx="56.968" cy="51.966" fill="#89c5cd" r="10.091"/><circle cx="16.973" cy="51.966" fill="#89c5cd" r="10.091"/><path d="m67.06 51.97a10.091 10.091 0 0 1 -17.31 7.05 10.088 10.088 0 0 0 12-15.93 10.054 10.054 0 0 1 5.31 8.88z" fill="#6eaaad"/><path d="m27.06 51.97a10.077 10.077 0 0 1 -17.3 7.04 10.083 10.083 0 0 0 11.99-15.93 10.081 10.081 0 0 1 5.31 8.89z" fill="#6eaaad"/><path d="m42.935 51.327a.5.5 0 0 1 -.5-.464l-2.185-30.506a10.819 10.819 0 0 1 21.378-2.4l9.472 30.615a.5.5 0 0 1 -.955.3l-9.483-30.653a9.82 9.82 0 0 0 -19.413 2.1l2.186 30.47a.5.5 0 0 1 -.463.534z" fill="#323c6b"/><path d="m56.968 62.557a10.591 10.591 0 1 1 10.591-10.591 10.6 10.6 0 0 1 -10.591 10.591zm0-20.182a9.591 9.591 0 1 0 9.591 9.591 9.6 9.6 0 0 0 -9.591-9.591z" fill="#323c6b"/><path d="m16.973 62.557a10.591 10.591 0 1 1 10.59-10.591 10.6 10.6 0 0 1 -10.59 10.591zm0-20.182a9.591 9.591 0 1 0 9.591 9.591 9.6 9.6 0 0 0 -9.591-9.591z" fill="#323c6b"/></svg>