<svg id="color_line" height="512" viewBox="0 0 74 74" width="512" xmlns="http://www.w3.org/2000/svg" data-name="color line"><path d="m7.547 11.738a.5.5 0 0 1 -.5-.5v-.667a.5.5 0 0 1 1 0v.667a.5.5 0 0 1 -.5.5z" fill="#323c6b"/><path d="m7.547 8.5a.5.5 0 0 1 -.5-.5 7.692 7.692 0 0 1 6.7-7.612.509.509 0 0 1 .56.433.5.5 0 0 1 -.433.56 6.689 6.689 0 0 0 -5.827 6.619.5.5 0 0 1 -.5.5z" fill="#323c6b"/><path d="m66.453 44.947a.5.5 0 0 1 -.5-.5v-.521a.5.5 0 0 1 1 0v.521a.5.5 0 0 1 -.5.5z" fill="#323c6b"/><path d="m66.453 56.863a.5.5 0 0 1 -.5-.5v-9.75a.5.5 0 0 1 1 0v9.75a.5.5 0 0 1 -.5.5z" fill="#323c6b"/><rect fill="#bbbbcd" height="69.292" rx="4.181" width="52.907" x="10.547" y="3.822"/><g opacity=".4"><path d="m63.45 8v60.93a4.171 4.171 0 0 1 -2.68 3.9 3.908 3.908 0 0 0 .12-.97v-60.927a4.178 4.178 0 0 0 -4.18-4.18h-44.55a4.071 4.071 0 0 0 -1.49.28 4.172 4.172 0 0 1 4.06-3.21h44.54a4.178 4.178 0 0 1 4.18 4.177z" fill="#9297ab"/></g><rect fill="#89c5cd" height="22.036" rx="1.756" width="32.255" x="20.873" y="15.749"/><path d="m53.13 17.5v18.53a1.754 1.754 0 0 1 -1.76 1.75h-2.57a1.754 1.754 0 0 0 1.76-1.75v-18.53a1.754 1.754 0 0 0 -1.76-1.75h2.57a1.754 1.754 0 0 1 1.76 1.75z" fill="#6eaaad"/><path d="m16.213 18.86h-.929a.5.5 0 0 1 0-1h.929a.5.5 0 1 1 0 1z" fill="#323c6b"/><path d="m16.213 24.506h-.929a.5.5 0 1 1 0-1h.929a.5.5 0 0 1 0 1z" fill="#323c6b"/><path d="m16.213 30.153h-.929a.5.5 0 0 1 0-1h.929a.5.5 0 1 1 0 1z" fill="#323c6b"/><path d="m16.213 35.8h-.929a.5.5 0 0 1 0-1h.929a.5.5 0 1 1 0 1z" fill="#323c6b"/><path d="m58.716 18.86h-.929a.5.5 0 1 1 0-1h.929a.5.5 0 0 1 0 1z" fill="#323c6b"/><path d="m58.716 24.506h-.929a.5.5 0 0 1 0-1h.929a.5.5 0 0 1 0 1z" fill="#323c6b"/><path d="m58.716 30.153h-.929a.5.5 0 1 1 0-1h.929a.5.5 0 0 1 0 1z" fill="#323c6b"/><path d="m58.716 35.8h-.929a.5.5 0 1 1 0-1h.929a.5.5 0 0 1 0 1z" fill="#323c6b"/><rect fill="#9297ab" height="3.797" rx=".852" width="4.495" x="20.873" y="45.065"/><path d="m24.515 49.362h-2.789a1.354 1.354 0 0 1 -1.353-1.352v-2.093a1.354 1.354 0 0 1 1.353-1.352h2.789a1.354 1.354 0 0 1 1.353 1.352v2.093a1.354 1.354 0 0 1 -1.353 1.352zm-2.789-3.8a.353.353 0 0 0 -.353.352v2.096a.353.353 0 0 0 .353.352h2.789a.353.353 0 0 0 .353-.352v-2.093a.353.353 0 0 0 -.353-.352z" fill="#323c6b"/><rect fill="#9297ab" height="3.797" rx=".852" width="4.495" x="29.939" y="45.065"/><path d="m33.581 49.362h-2.79a1.354 1.354 0 0 1 -1.353-1.352v-2.093a1.354 1.354 0 0 1 1.353-1.352h2.79a1.354 1.354 0 0 1 1.353 1.352v2.093a1.354 1.354 0 0 1 -1.353 1.352zm-2.79-3.8a.353.353 0 0 0 -.353.352v2.096a.353.353 0 0 0 .353.352h2.79a.353.353 0 0 0 .353-.352v-2.093a.353.353 0 0 0 -.353-.352z" fill="#323c6b"/><rect fill="#9297ab" height="3.797" rx=".852" width="4.495" x="39.005" y="45.065"/><path d="m42.647 49.362h-2.79a1.354 1.354 0 0 1 -1.357-1.352v-2.093a1.354 1.354 0 0 1 1.353-1.352h2.79a1.354 1.354 0 0 1 1.357 1.352v2.093a1.354 1.354 0 0 1 -1.353 1.352zm-2.79-3.8a.353.353 0 0 0 -.353.352v2.096a.353.353 0 0 0 .353.352h2.79a.353.353 0 0 0 .353-.352v-2.093a.353.353 0 0 0 -.353-.352z" fill="#323c6b"/><rect fill="#9297ab" height="3.797" rx=".852" width="4.495" x="20.873" y="53.628"/><path d="m24.515 57.925h-2.789a1.354 1.354 0 0 1 -1.353-1.353v-2.092a1.354 1.354 0 0 1 1.353-1.353h2.789a1.354 1.354 0 0 1 1.353 1.353v2.092a1.354 1.354 0 0 1 -1.353 1.353zm-2.789-3.8a.353.353 0 0 0 -.353.353v2.092a.353.353 0 0 0 .353.353h2.789a.353.353 0 0 0 .353-.353v-2.09a.353.353 0 0 0 -.353-.353z" fill="#323c6b"/><rect fill="#9297ab" height="3.797" rx=".852" width="4.495" x="29.939" y="53.628"/><path d="m33.581 57.925h-2.79a1.354 1.354 0 0 1 -1.353-1.353v-2.092a1.354 1.354 0 0 1 1.353-1.353h2.79a1.354 1.354 0 0 1 1.353 1.353v2.092a1.354 1.354 0 0 1 -1.353 1.353zm-2.79-3.8a.353.353 0 0 0 -.353.353v2.092a.353.353 0 0 0 .353.353h2.79a.353.353 0 0 0 .353-.353v-2.09a.353.353 0 0 0 -.353-.353z" fill="#323c6b"/><rect fill="#9297ab" height="3.797" rx=".852" width="4.495" x="39.005" y="53.628"/><path d="m42.647 57.925h-2.79a1.354 1.354 0 0 1 -1.357-1.352v-2.093a1.354 1.354 0 0 1 1.353-1.353h2.79a1.354 1.354 0 0 1 1.357 1.353v2.092a1.354 1.354 0 0 1 -1.353 1.353zm-2.79-3.8a.353.353 0 0 0 -.353.353v2.092a.353.353 0 0 0 .353.353h2.79a.353.353 0 0 0 .353-.35v-2.093a.353.353 0 0 0 -.353-.353z" fill="#323c6b"/><rect fill="#9297ab" height="3.797" rx=".852" width="4.495" x="20.873" y="62.191"/><path d="m24.515 66.488h-2.789a1.354 1.354 0 0 1 -1.353-1.353v-2.092a1.354 1.354 0 0 1 1.353-1.353h2.789a1.354 1.354 0 0 1 1.353 1.353v2.092a1.354 1.354 0 0 1 -1.353 1.353zm-2.789-3.8a.353.353 0 0 0 -.353.353v2.092a.353.353 0 0 0 .353.353h2.789a.353.353 0 0 0 .353-.353v-2.09a.353.353 0 0 0 -.353-.353z" fill="#323c6b"/><rect fill="#9297ab" height="3.797" rx=".852" width="4.495" x="29.939" y="62.191"/><path d="m33.581 66.488h-2.79a1.354 1.354 0 0 1 -1.353-1.353v-2.092a1.354 1.354 0 0 1 1.353-1.353h2.79a1.354 1.354 0 0 1 1.353 1.353v2.092a1.354 1.354 0 0 1 -1.353 1.353zm-2.79-3.8a.353.353 0 0 0 -.353.353v2.092a.353.353 0 0 0 .353.353h2.79a.353.353 0 0 0 .353-.353v-2.09a.353.353 0 0 0 -.353-.353z" fill="#323c6b"/><rect fill="#9297ab" height="3.797" rx=".852" width="4.495" x="39.005" y="62.191"/><path d="m42.647 66.488h-2.79a1.354 1.354 0 0 1 -1.357-1.352v-2.093a1.354 1.354 0 0 1 1.353-1.353h2.79a1.354 1.354 0 0 1 1.357 1.353v2.092a1.354 1.354 0 0 1 -1.353 1.353zm-2.79-3.8a.353.353 0 0 0 -.353.353v2.092a.353.353 0 0 0 .353.353h2.79a.353.353 0 0 0 .353-.35v-2.093a.353.353 0 0 0 -.353-.353z" fill="#323c6b"/><path d="m49.199 49.613h8.438v8.438h-8.438z" fill="#27ccbc"/><g fill="#323c6b"><path d="m57.637 58.551h-8.437a.5.5 0 0 1 -.5-.5v-8.438a.5.5 0 0 1 .5-.5h8.438a.5.5 0 0 1 .5.5v8.438a.5.5 0 0 1 -.501.5zm-7.937-1h7.438v-7.438h-7.438z"/><path d="m59.25 50.113h-11.664a.5.5 0 0 1 0-1h11.664a.5.5 0 0 1 0 1z"/><path d="m27.313 13.047 2.416-6.295h.9l2.571 6.295h-.949l-.731-1.907h-2.632l-.688 1.907zm1.816-2.585h2.134s-1.007-2.708-1.1-3.049c-.084.404-1.034 3.049-1.034 3.049z"/><path d="m33.39 13.172h-1.222l-.733-1.906h-2.459l-.691 1.906h-1.154l2.512-6.545h1.068l.031.078zm-1.05-.25h.677l-2.474-6.045h-.729l-2.32 6.045h.614l.691-1.906h2.807zm-.9-2.335h-2.489l.061-.167c.327-.912.963-2.718 1.023-3.03l.1-.509.143.5c.1.332 1.092 3.012 1.1 3.04zm-2.136-.25h1.776c-.176-.475-.672-1.813-.915-2.5-.219.701-.69 2.029-.858 2.5z"/><path d="m35.877 13.047v-5.547h-2.077v-.748h4.989v.748h-2.079v5.552z"/><path d="m36.835 13.172h-1.083v-5.552h-2.073v-.993h5.238v.993h-2.082zm-.835-.25h.583v-5.552h2.082v-.493h-4.736v.493h2.071z"/><path d="m40.681 13.047v-6.295h1.253l1.49 4.457c.138.416.237.726.3.932q.107-.343.335-1.009l1.507-4.38h1.121v6.295h-.8v-5.269l-1.829 5.269h-.758l-1.82-5.359v5.359z"/><path d="m46.813 13.172h-1.053v-4.652l-1.615 4.652h-.93l-.028-.085-1.578-4.642v4.727h-1.053v-6.545h1.469l1.519 4.542q.107.322.184.56.089-.27.215-.638l1.536-4.464h1.335zm-.8-.25h.553v-6.045h-.907l-1.478 4.3c-.15.442-.263.778-.334 1.005l-.12.385-.118-.386c-.063-.205-.162-.515-.3-.929l-1.464-4.375h-1.039v6.045h.554v-5.991l2.035 5.991h.572l2.043-5.885z"/><path d="m59.272 73.613h-44.544a4.686 4.686 0 0 1 -4.681-4.681v-60.932a4.686 4.686 0 0 1 4.681-4.681h44.544a4.686 4.686 0 0 1 4.681 4.681v60.93a4.686 4.686 0 0 1 -4.681 4.683zm-44.544-69.291a3.685 3.685 0 0 0 -3.681 3.678v60.93a3.685 3.685 0 0 0 3.681 3.681h44.544a3.685 3.685 0 0 0 3.681-3.681v-60.93a3.685 3.685 0 0 0 -3.681-3.681z"/><path d="m51.371 38.286h-28.742a2.258 2.258 0 0 1 -2.256-2.256v-18.525a2.258 2.258 0 0 1 2.256-2.256h28.742a2.258 2.258 0 0 1 2.256 2.256v18.525a2.258 2.258 0 0 1 -2.256 2.256zm-28.742-22.036a1.257 1.257 0 0 0 -1.256 1.256v18.524a1.257 1.257 0 0 0 1.256 1.256h28.742a1.257 1.257 0 0 0 1.256-1.256v-18.525a1.257 1.257 0 0 0 -1.256-1.256z"/></g><path d="m14.042 58.7a.65.65 0 0 1 -.65-.65v-.52a.65.65 0 0 1 1.3 0v.521a.65.65 0 0 1 -.65.649z" fill="#fff"/><path d="m14.042 55.43a.65.65 0 0 1 -.65-.65v-9.323a.65.65 0 0 1 1.3 0v9.323a.65.65 0 0 1 -.65.65z" fill="#fff"/></svg>